<svg xmlns="http://www.w3.org/2000/svg" width="1800" height="1850" viewBox="0 0 1800 1850">
<defs>
<marker id="arrow" viewBox="0 0 10 10" refX="9" refY="5" markerWidth="8" markerHeight="8" orient="auto-start-reverse">
<path d="M 0 0 L 10 5 L 0 10 z" fill="#4b5563" />
</marker>
</defs>
<rect x="0" y="0" width="1800" height="1850" fill="#ffffff" />
<path d="M 900.0 140.0 L 900.0 250.0" fill="none" stroke="#4b5563" stroke-width="2" marker-end="url(#arrow)" />
<path d="M 900.0 250.0 L 900.0 355.0" fill="none" stroke="#4b5563" stroke-width="2" marker-end="url(#arrow)" />
<path d="M 900.0 355.0 L 900.0 460.0" fill="none" stroke="#4b5563" stroke-width="2" marker-end="url(#arrow)" />
<path d="M 900.0 460.0 L 900.0 565.0" fill="none" stroke="#4b5563" stroke-width="2" marker-end="url(#arrow)" />
<path d="M 900.0 565.0 L 900.0 670.0" fill="none" stroke="#4b5563" stroke-width="2" marker-end="url(#arrow)" />
<path d="M 900.0 670.0 L 900.0 775.0" fill="none" stroke="#4b5563" stroke-width="2" marker-end="url(#arrow)" />
<path d="M 900.0 775.0 L 900.0 880.0" fill="none" stroke="#4b5563" stroke-width="2" marker-end="url(#arrow)" />
<path d="M 900.0 880.0 L 900.0 985.0" fill="none" stroke="#4b5563" stroke-width="2" marker-end="url(#arrow)" />
<path d="M 900.0 985.0 L 900.0 1090.0" fill="none" stroke="#4b5563" stroke-width="2" marker-end="url(#arrow)" />
<path d="M 900.0 1090.0 L 900.0 1245.0" fill="none" stroke="#4b5563" stroke-width="2" marker-end="url(#arrow)" />
<path d="M 900.0 1245.0 L 535.0 1250.0" fill="none" stroke="#4b5563" stroke-width="2" marker-end="url(#arrow)" /><rect x="667.0" y="1235.1" width="100.9" height="24.9" rx="6" ry="6" fill="#ffffff" opacity="0.92" stroke="none" /><text x="717.5" y="1251.1" fill="#111111" font-family="Arial, Helvetica, sans-serif" font-size="11" font-weight="400" text-anchor="middle"><tspan x="717.5" dy="0">Belum lengkap</tspan></text>
<path d="M 900.0 1245.0 L 1250.0 1255.0" fill="none" stroke="#4b5563" stroke-width="2" marker-end="url(#arrow)" /><rect x="1043.7" y="1237.6" width="62.7" height="24.9" rx="6" ry="6" fill="#ffffff" opacity="0.92" stroke="none" /><text x="1075.0" y="1253.6" fill="#111111" font-family="Arial, Helvetica, sans-serif" font-size="11" font-weight="400" text-anchor="middle"><tspan x="1075.0" dy="0">Lengkap</tspan></text>
<path d="M 535.0 1250.0 L 360.0 1250.0 L 360.0 250.0 L 790.0 250.0 L 900.0 250.0" fill="none" stroke="#4b5563" stroke-width="2" marker-end="url(#arrow)" /><rect x="280.8" y="555.1" width="158.4" height="24.9" rx="6" ry="6" fill="#ffffff" opacity="0.92" stroke="none" /><text x="360.0" y="571.1" fill="#111111" font-family="Arial, Helvetica, sans-serif" font-size="11" font-weight="400" text-anchor="middle"><tspan x="360.0" dy="0">Lengkapi lalu cek lagi</tspan></text>
<path d="M 1250.0 1255.0 L 1250.0 1390.0" fill="none" stroke="#4b5563" stroke-width="2" marker-end="url(#arrow)" />
<text x="52.0" y="42.8" fill="#111111" font-family="Arial, Helvetica, sans-serif" font-size="24" font-weight="700" text-anchor="start"><tspan x="52.0" dy="0">FLOWCHART MASTER SETUP SEBELUM OPERASIONAL</tspan></text>
<text x="52.0" y="68.6" fill="#666666" font-family="Arial, Helvetica, sans-serif" font-size="11" font-weight="400" text-anchor="start"><tspan x="52.0" dy="0">Urutannya dibuat dari atas ke bawah agar mudah dimasukkan ke Word. Semua master inti harus beres dulu sebelum flow harian dimulai.</tspan></text>
<ellipse cx="900.0" cy="140.0" rx="85.0" ry="30.0" fill="#d5e8d4" stroke="#82b366" stroke-width="1.5" /><text x="900.0" y="143.9" fill="#111111" font-family="Arial, Helvetica, sans-serif" font-size="12" font-weight="700" text-anchor="middle"><tspan x="900.0" dy="0">Mulai setup sistem</tspan></text>
<rect x="790.0" y="210.0" width="220.0" height="80.0" rx="12" ry="12" fill="#dae8fc" stroke="#6c8ebf" stroke-width="1.5" /><text x="900.0" y="253.9" fill="#111111" font-family="Arial, Helvetica, sans-serif" font-size="12" font-weight="400" text-anchor="middle"><tspan x="900.0" dy="0">Setup Company / branding / user policy</tspan></text>
<rect x="805.0" y="315.0" width="190.0" height="80.0" rx="12" ry="12" fill="#dae8fc" stroke="#6c8ebf" stroke-width="1.5" /><text x="900.0" y="358.9" fill="#111111" font-family="Arial, Helvetica, sans-serif" font-size="12" font-weight="400" text-anchor="middle"><tspan x="900.0" dy="0">Setup Rekening / Kas</tspan></text>
<rect x="810.0" y="420.0" width="180.0" height="80.0" rx="12" ry="12" fill="#dae8fc" stroke="#6c8ebf" stroke-width="1.5" /><text x="900.0" y="463.9" fill="#111111" font-family="Arial, Helvetica, sans-serif" font-size="12" font-weight="400" text-anchor="middle"><tspan x="900.0" dy="0">Setup Customer</tspan></text>
<rect x="795.0" y="525.0" width="210.0" height="80.0" rx="12" ry="12" fill="#dae8fc" stroke="#6c8ebf" stroke-width="1.5" /><text x="900.0" y="568.9" fill="#111111" font-family="Arial, Helvetica, sans-serif" font-size="12" font-weight="400" text-anchor="middle"><tspan x="900.0" dy="0">Setup Pengirim / Penerima</tspan></text>
<rect x="800.0" y="630.0" width="200.0" height="80.0" rx="12" ry="12" fill="#dae8fc" stroke="#6c8ebf" stroke-width="1.5" /><text x="900.0" y="673.9" fill="#111111" font-family="Arial, Helvetica, sans-serif" font-size="12" font-weight="400" text-anchor="middle"><tspan x="900.0" dy="0">Setup Barang Customer</tspan></text>
<rect x="815.0" y="735.0" width="170.0" height="80.0" rx="12" ry="12" fill="#d5e8d4" stroke="#82b366" stroke-width="1.5" /><text x="900.0" y="778.9" fill="#111111" font-family="Arial, Helvetica, sans-serif" font-size="12" font-weight="400" text-anchor="middle"><tspan x="900.0" dy="0">Setup Driver</tspan></text>
<rect x="810.0" y="840.0" width="180.0" height="80.0" rx="12" ry="12" fill="#d5e8d4" stroke="#82b366" stroke-width="1.5" /><text x="900.0" y="883.9" fill="#111111" font-family="Arial, Helvetica, sans-serif" font-size="12" font-weight="400" text-anchor="middle"><tspan x="900.0" dy="0">Setup Kendaraan</tspan></text>
<rect x="805.0" y="945.0" width="190.0" height="80.0" rx="12" ry="12" fill="#fff2cc" stroke="#d6b656" stroke-width="1.5" /><text x="900.0" y="988.9" fill="#111111" font-family="Arial, Helvetica, sans-serif" font-size="12" font-weight="400" text-anchor="middle"><tspan x="900.0" dy="0">Setup Tarif Rute Trip</tspan></text>
<rect x="790.0" y="1050.0" width="220.0" height="80.0" rx="12" ry="12" fill="#fff2cc" stroke="#d6b656" stroke-width="1.5" /><text x="900.0" y="1093.9" fill="#111111" font-family="Arial, Helvetica, sans-serif" font-size="12" font-weight="400" text-anchor="middle"><tspan x="900.0" dy="0">Setup Kategori Expense</tspan></text>
<polygon points="900.0,1175.0 1000.0,1245.0 900.0,1315.0 800.0,1245.0" fill="#fff2cc" stroke="#d6b656" stroke-width="1.5" /><text x="900.0" y="1248.9" fill="#111111" font-family="Arial, Helvetica, sans-serif" font-size="12" font-weight="700" text-anchor="middle"><tspan x="900.0" dy="0">Master inti lengkap?</tspan></text>
<rect x="420.0" y="1205.0" width="230.0" height="90.0" rx="12" ry="12" fill="#ffe6cc" stroke="#d79b00" stroke-width="1.5" /><text x="535.0" y="1253.9" fill="#111111" font-family="Arial, Helvetica, sans-serif" font-size="12" font-weight="400" text-anchor="middle"><tspan x="535.0" dy="0">Lengkapi master yang belum siap</tspan></text>
<rect x="1140.0" y="1210.0" width="220.0" height="90.0" rx="12" ry="12" fill="#fff7e6" stroke="#999999" stroke-width="1.5" stroke-dasharray="7 5" /><text x="1250.0" y="1250.8" fill="#111111" font-family="Arial, Helvetica, sans-serif" font-size="12" font-weight="400" text-anchor="middle"><tspan x="1250.0" dy="0">Lanjut ke Flow 01</tspan><tspan x="1250.0" dy="16.200000000000003">End-to-End Main Flow</tspan></text>
<ellipse cx="1250.0" cy="1390.0" rx="80.0" ry="30.0" fill="#d5e8d4" stroke="#82b366" stroke-width="1.5" /><text x="1250.0" y="1393.9" fill="#111111" font-family="Arial, Helvetica, sans-serif" font-size="12" font-weight="700" text-anchor="middle"><tspan x="1250.0" dy="0">Siap operasional</tspan></text>
</svg>