<svg xmlns="http://www.w3.org/2000/svg" width="1800" height="2200" viewBox="0 0 1800 2200">
<defs>
<marker id="arrow" viewBox="0 0 10 10" refX="9" refY="5" markerWidth="8" markerHeight="8" orient="auto-start-reverse">
<path d="M 0 0 L 10 5 L 0 10 z" fill="#4b5563" />
</marker>
</defs>
<rect x="0" y="0" width="1800" height="2200" fill="#ffffff" />
<path d="M 900.0 155.0 L 900.0 305.0" fill="none" stroke="#4b5563" stroke-width="2" marker-end="url(#arrow)" />
<path d="M 900.0 305.0 L 525.0 305.0" fill="none" stroke="#4b5563" stroke-width="2" marker-end="url(#arrow)" /><rect x="687.5" y="292.6" width="49.9" height="24.9" rx="6" ry="6" fill="#ffffff" opacity="0.92" stroke="none" /><text x="712.5" y="308.6" fill="#111111" font-family="Arial, Helvetica, sans-serif" font-size="11" font-weight="400" text-anchor="middle"><tspan x="712.5" dy="0">Belum</tspan></text>
<path d="M 900.0 305.0 L 900.0 470.0" fill="none" stroke="#4b5563" stroke-width="2" marker-end="url(#arrow)" /><rect x="868.7" y="375.1" width="62.7" height="24.9" rx="6" ry="6" fill="#ffffff" opacity="0.92" stroke="none" /><text x="900.0" y="391.1" fill="#111111" font-family="Arial, Helvetica, sans-serif" font-size="11" font-weight="400" text-anchor="middle"><tspan x="900.0" dy="0">Lengkap</tspan></text>
<path d="M 900.0 470.0 L 1245.0 470.0" fill="none" stroke="#4b5563" stroke-width="2" marker-end="url(#arrow)" />
<path d="M 1245.0 470.0 L 900.0 630.0" fill="none" stroke="#4b5563" stroke-width="2" marker-end="url(#arrow)" /><rect x="1022.0" y="537.6" width="100.9" height="24.9" rx="6" ry="6" fill="#ffffff" opacity="0.92" stroke="none" /><text x="1072.5" y="553.6" fill="#111111" font-family="Arial, Helvetica, sans-serif" font-size="11" font-weight="400" text-anchor="middle"><tspan x="1072.5" dy="0">Lanjut proses</tspan></text>
<path d="M 900.0 630.0 L 900.0 800.0" fill="none" stroke="#4b5563" stroke-width="2" marker-end="url(#arrow)" />
<path d="M 900.0 800.0 L 1250.0 800.0" fill="none" stroke="#4b5563" stroke-width="2" marker-end="url(#arrow)" />
<path d="M 1250.0 800.0 L 900.0 995.0" fill="none" stroke="#4b5563" stroke-width="2" marker-end="url(#arrow)" /><rect x="1046.9" y="885.1" width="56.3" height="24.9" rx="6" ry="6" fill="#ffffff" opacity="0.92" stroke="none" /><text x="1075.0" y="901.1" fill="#111111" font-family="Arial, Helvetica, sans-serif" font-size="11" font-weight="400" text-anchor="middle"><tspan x="1075.0" dy="0">Lanjut</tspan></text>
<path d="M 900.0 995.0 L 1240.0 995.0" fill="none" stroke="#4b5563" stroke-width="2" marker-end="url(#arrow)" /><rect x="1048.0" y="982.6" width="44.0" height="24.9" rx="6" ry="6" fill="#ffffff" opacity="0.92" stroke="none" /><text x="1070.0" y="998.6" fill="#111111" font-family="Arial, Helvetica, sans-serif" font-size="11" font-weight="400" text-anchor="middle"><tspan x="1070.0" dy="0">Ya</tspan></text>
<path d="M 900.0 995.0 L 900.0 1175.0" fill="none" stroke="#4b5563" stroke-width="2" marker-end="url(#arrow)" /><rect x="875.0" y="1072.6" width="49.9" height="24.9" rx="6" ry="6" fill="#ffffff" opacity="0.92" stroke="none" /><text x="900.0" y="1088.6" fill="#111111" font-family="Arial, Helvetica, sans-serif" font-size="11" font-weight="400" text-anchor="middle"><tspan x="900.0" dy="0">Tidak</tspan></text>
<path d="M 1240.0 995.0 L 900.0 1175.0" fill="none" stroke="#4b5563" stroke-width="2" marker-end="url(#arrow)" /><rect x="1010.0" y="1072.6" width="120.1" height="24.9" rx="6" ry="6" fill="#ffffff" opacity="0.92" stroke="none" /><text x="1070.0" y="1088.6" fill="#111111" font-family="Arial, Helvetica, sans-serif" font-size="11" font-weight="400" text-anchor="middle"><tspan x="1070.0" dy="0">Setelah diproses</tspan></text>
<path d="M 900.0 1175.0 L 900.0 1330.0" fill="none" stroke="#4b5563" stroke-width="2" marker-end="url(#arrow)" /><rect x="875.0" y="1240.1" width="49.9" height="24.9" rx="6" ry="6" fill="#ffffff" opacity="0.92" stroke="none" /><text x="900.0" y="1256.1" fill="#111111" font-family="Arial, Helvetica, sans-serif" font-size="11" font-weight="400" text-anchor="middle"><tspan x="900.0" dy="0">Sudah</tspan></text>
<path d="M 900.0 1330.0 L 1250.0 1330.0" fill="none" stroke="#4b5563" stroke-width="2" marker-end="url(#arrow)" />
<path d="M 1250.0 1330.0 L 900.0 1510.0" fill="none" stroke="#4b5563" stroke-width="2" marker-end="url(#arrow)" /><rect x="1018.1" y="1407.6" width="113.7" height="24.9" rx="6" ry="6" fill="#ffffff" opacity="0.92" stroke="none" /><text x="1075.0" y="1423.6" fill="#111111" font-family="Arial, Helvetica, sans-serif" font-size="11" font-weight="400" text-anchor="middle"><tspan x="1075.0" dy="0">Setelah billing</tspan></text>
<path d="M 900.0 1510.0 L 1235.0 1510.0" fill="none" stroke="#4b5563" stroke-width="2" marker-end="url(#arrow)" />
<path d="M 1235.0 1510.0 L 900.0 1710.0" fill="none" stroke="#4b5563" stroke-width="2" marker-end="url(#arrow)" /><rect x="1039.4" y="1597.6" width="56.3" height="24.9" rx="6" ry="6" fill="#ffffff" opacity="0.92" stroke="none" /><text x="1067.5" y="1613.6" fill="#111111" font-family="Arial, Helvetica, sans-serif" font-size="11" font-weight="400" text-anchor="middle"><tspan x="1067.5" dy="0">Lanjut</tspan></text>
<path d="M 900.0 1710.0 L 1235.0 1710.0" fill="none" stroke="#4b5563" stroke-width="2" marker-end="url(#arrow)" /><rect x="1045.5" y="1697.6" width="44.0" height="24.9" rx="6" ry="6" fill="#ffffff" opacity="0.92" stroke="none" /><text x="1067.5" y="1713.6" fill="#111111" font-family="Arial, Helvetica, sans-serif" font-size="11" font-weight="400" text-anchor="middle"><tspan x="1067.5" dy="0">Ya</tspan></text>
<path d="M 900.0 1710.0 L 900.0 1885.0" fill="none" stroke="#4b5563" stroke-width="2" marker-end="url(#arrow)" /><rect x="875.0" y="1785.1" width="49.9" height="24.9" rx="6" ry="6" fill="#ffffff" opacity="0.92" stroke="none" /><text x="900.0" y="1801.1" fill="#111111" font-family="Arial, Helvetica, sans-serif" font-size="11" font-weight="400" text-anchor="middle"><tspan x="900.0" dy="0">Tidak</tspan></text>
<path d="M 1235.0 1710.0 L 900.0 1885.0" fill="none" stroke="#4b5563" stroke-width="2" marker-end="url(#arrow)" /><rect x="1007.5" y="1785.1" width="120.1" height="24.9" rx="6" ry="6" fill="#ffffff" opacity="0.92" stroke="none" /><text x="1067.5" y="1801.1" fill="#111111" font-family="Arial, Helvetica, sans-serif" font-size="11" font-weight="400" text-anchor="middle"><tspan x="1067.5" dy="0">Setelah diproses</tspan></text>
<path d="M 900.0 1175.0 L 520.0 1175.0 L 520.0 800.0 L 790.0 800.0 L 900.0 800.0" fill="none" stroke="#4b5563" stroke-width="2" marker-end="url(#arrow)" /><rect x="495.1" y="975.1" width="49.9" height="24.9" rx="6" ry="6" fill="#ffffff" opacity="0.92" stroke="none" /><text x="520.0" y="991.1" fill="#111111" font-family="Arial, Helvetica, sans-serif" font-size="11" font-weight="400" text-anchor="middle"><tspan x="520.0" dy="0">Belum</tspan></text>
<text x="52.0" y="42.8" fill="#111111" font-family="Arial, Helvetica, sans-serif" font-size="24" font-weight="700" text-anchor="start"><tspan x="52.0" dy="0">FLOWCHART UTAMA END-TO-END</tspan></text>
<text x="52.0" y="68.6" fill="#666666" font-family="Arial, Helvetica, sans-serif" font-size="11" font-weight="400" text-anchor="start"><tspan x="52.0" dy="0">Halaman utama ini dibuat top-down. Cabang yang rumit tetap dipisah ke flow detail agar halaman inti tetap rapi untuk Word.</tspan></text>
<ellipse cx="900.0" cy="155.0" rx="100.0" ry="35.0" fill="#d5e8d4" stroke="#82b366" stroke-width="1.5" /><text x="900.0" y="150.8" fill="#111111" font-family="Arial, Helvetica, sans-serif" font-size="12" font-weight="700" text-anchor="middle"><tspan x="900.0" dy="0">Masuk dari Flow 00</tspan><tspan x="900.0" dy="16.200000000000003">Master Setup selesai</tspan></text>
<polygon points="900.0,240.0 990.0,305.0 900.0,370.0 810.0,305.0" fill="#fff2cc" stroke="#d6b656" stroke-width="1.5" /><text x="900.0" y="308.9" fill="#111111" font-family="Arial, Helvetica, sans-serif" font-size="12" font-weight="700" text-anchor="middle"><tspan x="900.0" dy="0">Master inti masih lengkap?</tspan></text>
<rect x="430.0" y="265.0" width="190.0" height="80.0" rx="12" ry="12" fill="#fff7e6" stroke="#999999" stroke-width="1.5" stroke-dasharray="7 5" /><text x="525.0" y="300.8" fill="#111111" font-family="Arial, Helvetica, sans-serif" font-size="12" font-weight="400" text-anchor="middle"><tspan x="525.0" dy="0">Balik ke Flow 00</tspan><tspan x="525.0" dy="16.200000000000003">Master Setup</tspan></text>
<rect x="800.0" y="430.0" width="200.0" height="80.0" rx="12" ry="12" fill="#f8cecc" stroke="#b85450" stroke-width="1.5" /><text x="900.0" y="473.9" fill="#111111" font-family="Arial, Helvetica, sans-serif" font-size="12" font-weight="700" text-anchor="middle"><tspan x="900.0" dy="0">Buat Order / Resi</tspan></text>
<rect x="1130.0" y="430.0" width="230.0" height="80.0" rx="12" ry="12" fill="#fff7e6" stroke="#999999" stroke-width="1.5" stroke-dasharray="7 5" /><text x="1245.0" y="465.8" fill="#111111" font-family="Arial, Helvetica, sans-serif" font-size="12" font-weight="400" text-anchor="middle"><tspan x="1245.0" dy="0">Lihat Flow 02</tspan><tspan x="1245.0" dy="16.200000000000003">Order and Delivery Order</tspan></text>
<rect x="810.0" y="590.0" width="180.0" height="80.0" rx="12" ry="12" fill="#f8cecc" stroke="#b85450" stroke-width="1.5" /><text x="900.0" y="633.9" fill="#111111" font-family="Arial, Helvetica, sans-serif" font-size="12" font-weight="700" text-anchor="middle"><tspan x="900.0" dy="0">DO siap jalan</tspan></text>
<rect x="790.0" y="760.0" width="220.0" height="80.0" rx="12" ry="12" fill="#e1d5e7" stroke="#9673a6" stroke-width="1.5" /><text x="900.0" y="803.9" fill="#111111" font-family="Arial, Helvetica, sans-serif" font-size="12" font-weight="400" text-anchor="middle"><tspan x="900.0" dy="0">Eksekusi trip + tracking</tspan></text>
<rect x="1130.0" y="760.0" width="240.0" height="80.0" rx="12" ry="12" fill="#fff7e6" stroke="#999999" stroke-width="1.5" stroke-dasharray="7 5" /><text x="1250.0" y="795.8" fill="#111111" font-family="Arial, Helvetica, sans-serif" font-size="12" font-weight="400" text-anchor="middle"><tspan x="1250.0" dy="0">Lihat Flow 03</tspan><tspan x="1250.0" dy="16.200000000000003">Delivery Execution and Tracking</tspan></text>
<polygon points="900.0,930.0 990.0,995.0 900.0,1060.0 810.0,995.0" fill="#fff2cc" stroke="#d6b656" stroke-width="1.5" /><text x="900.0" y="998.9" fill="#111111" font-family="Arial, Helvetica, sans-serif" font-size="12" font-weight="700" text-anchor="middle"><tspan x="900.0" dy="0">Perlu bon trip / borongan?</tspan></text>
<rect x="1130.0" y="955.0" width="220.0" height="80.0" rx="12" ry="12" fill="#fff7e6" stroke="#999999" stroke-width="1.5" stroke-dasharray="7 5" /><text x="1240.0" y="990.8" fill="#111111" font-family="Arial, Helvetica, sans-serif" font-size="12" font-weight="400" text-anchor="middle"><tspan x="1240.0" dy="0">Lihat Flow 04</tspan><tspan x="1240.0" dy="16.200000000000003">Trip Cash and Borongan</tspan></text>
<polygon points="900.0,1110.0 990.0,1175.0 900.0,1240.0 810.0,1175.0" fill="#fff2cc" stroke="#d6b656" stroke-width="1.5" /><text x="900.0" y="1178.9" fill="#111111" font-family="Arial, Helvetica, sans-serif" font-size="12" font-weight="700" text-anchor="middle"><tspan x="900.0" dy="0">DO sudah delivered?</tspan></text>
<rect x="800.0" y="1290.0" width="200.0" height="80.0" rx="12" ry="12" fill="#dae8fc" stroke="#6c8ebf" stroke-width="1.5" /><text x="900.0" y="1333.9" fill="#111111" font-family="Arial, Helvetica, sans-serif" font-size="12" font-weight="700" text-anchor="middle"><tspan x="900.0" dy="0">Buat Nota / tagihan</tspan></text>
<rect x="1130.0" y="1290.0" width="240.0" height="80.0" rx="12" ry="12" fill="#fff7e6" stroke="#999999" stroke-width="1.5" stroke-dasharray="7 5" /><text x="1250.0" y="1325.8" fill="#111111" font-family="Arial, Helvetica, sans-serif" font-size="12" font-weight="400" text-anchor="middle"><tspan x="1250.0" dy="0">Lihat Flow 05</tspan><tspan x="1250.0" dy="16.200000000000003">Invoice to Receipt and Refund</tspan></text>
<rect x="790.0" y="1470.0" width="220.0" height="80.0" rx="12" ry="12" fill="#dae8fc" stroke="#6c8ebf" stroke-width="1.5" /><text x="900.0" y="1513.9" fill="#111111" font-family="Arial, Helvetica, sans-serif" font-size="12" font-weight="700" text-anchor="middle"><tspan x="900.0" dy="0">Ledger / cashflow / laporan</tspan></text>
<rect x="1130.0" y="1470.0" width="210.0" height="80.0" rx="12" ry="12" fill="#fff7e6" stroke="#999999" stroke-width="1.5" stroke-dasharray="7 5" /><text x="1235.0" y="1505.8" fill="#111111" font-family="Arial, Helvetica, sans-serif" font-size="12" font-weight="400" text-anchor="middle"><tspan x="1235.0" dy="0">Lihat Flow 06</tspan><tspan x="1235.0" dy="16.200000000000003">Ledger and Cashflow</tspan></text>
<polygon points="900.0,1640.0 995.0,1710.0 900.0,1780.0 805.0,1710.0" fill="#fff2cc" stroke="#d6b656" stroke-width="1.5" /><text x="900.0" y="1713.9" fill="#111111" font-family="Arial, Helvetica, sans-serif" font-size="12" font-weight="700" text-anchor="middle"><tspan x="900.0" dy="0">Ada event armada yang perlu diproses?</tspan></text>
<rect x="1130.0" y="1670.0" width="210.0" height="80.0" rx="12" ry="12" fill="#fff7e6" stroke="#999999" stroke-width="1.5" stroke-dasharray="7 5" /><text x="1235.0" y="1705.8" fill="#111111" font-family="Arial, Helvetica, sans-serif" font-size="12" font-weight="400" text-anchor="middle"><tspan x="1235.0" dy="0">Lihat Flow 07</tspan><tspan x="1235.0" dy="16.200000000000003">Fleet Operations</tspan></text>
<ellipse cx="900.0" cy="1885.0" rx="100.0" ry="35.0" fill="#d5e8d4" stroke="#82b366" stroke-width="1.5" /><text x="900.0" y="1880.8" fill="#111111" font-family="Arial, Helvetica, sans-serif" font-size="12" font-weight="700" text-anchor="middle"><tspan x="900.0" dy="0">Selesai</tspan><tspan x="900.0" dy="16.200000000000003">Operasional dan finance sinkron</tspan></text>
</svg>