<svg xmlns="http://www.w3.org/2000/svg" width="1900" height="2200" viewBox="0 0 1900 2200">
<defs>
<marker id="arrow" viewBox="0 0 10 10" refX="9" refY="5" markerWidth="8" markerHeight="8" orient="auto-start-reverse">
<path d="M 0 0 L 10 5 L 0 10 z" fill="#4b5563" />
</marker>
</defs>
<rect x="0" y="0" width="1900" height="2200" fill="#ffffff" />
<path d="M 930.0 150.0 L 930.0 285.0" fill="none" stroke="#4b5563" stroke-width="2" marker-end="url(#arrow)" />
<path d="M 930.0 285.0 L 580.0 285.0" fill="none" stroke="#4b5563" stroke-width="2" marker-end="url(#arrow)" /><rect x="730.0" y="272.6" width="49.9" height="24.9" rx="6" ry="6" fill="#ffffff" opacity="0.92" stroke="none" /><text x="755.0" y="288.6" fill="#111111" font-family="Arial, Helvetica, sans-serif" font-size="11" font-weight="400" text-anchor="middle"><tspan x="755.0" dy="0">Belum</tspan></text>
<path d="M 930.0 285.0 L 930.0 460.0" fill="none" stroke="#4b5563" stroke-width="2" marker-end="url(#arrow)" /><rect x="908.0" y="360.1" width="44.0" height="24.9" rx="6" ry="6" fill="#ffffff" opacity="0.92" stroke="none" /><text x="930.0" y="376.1" fill="#111111" font-family="Arial, Helvetica, sans-serif" font-size="11" font-weight="400" text-anchor="middle"><tspan x="930.0" dy="0">Siap</tspan></text>
<path d="M 580.0 285.0 L 930.0 460.0" fill="none" stroke="#4b5563" stroke-width="2" marker-end="url(#arrow)" /><rect x="698.1" y="360.1" width="113.7" height="24.9" rx="6" ry="6" fill="#ffffff" opacity="0.92" stroke="none" /><text x="755.0" y="376.1" fill="#111111" font-family="Arial, Helvetica, sans-serif" font-size="11" font-weight="400" text-anchor="middle"><tspan x="755.0" dy="0">Setelah lengkap</tspan></text>
<path d="M 930.0 460.0 L 930.0 615.0" fill="none" stroke="#4b5563" stroke-width="2" marker-end="url(#arrow)" />
<path d="M 930.0 615.0 L 1280.0 515.0" fill="none" stroke="#4b5563" stroke-width="2" marker-end="url(#arrow)" /><rect x="1083.0" y="552.6" width="44.0" height="24.9" rx="6" ry="6" fill="#ffffff" opacity="0.92" stroke="none" /><text x="1105.0" y="568.6" fill="#111111" font-family="Arial, Helvetica, sans-serif" font-size="11" font-weight="400" text-anchor="middle"><tspan x="1105.0" dy="0">Ya</tspan></text>
<path d="M 930.0 615.0 L 1280.0 655.0" fill="none" stroke="#4b5563" stroke-width="2" marker-end="url(#arrow)" /><rect x="1080.0" y="622.6" width="49.9" height="24.9" rx="6" ry="6" fill="#ffffff" opacity="0.92" stroke="none" /><text x="1105.0" y="638.6" fill="#111111" font-family="Arial, Helvetica, sans-serif" font-size="11" font-weight="400" text-anchor="middle"><tspan x="1105.0" dy="0">Tidak</tspan></text>
<path d="M 1280.0 515.0 L 930.0 805.0" fill="none" stroke="#4b5563" stroke-width="2" marker-end="url(#arrow)" />
<path d="M 1280.0 655.0 L 930.0 805.0" fill="none" stroke="#4b5563" stroke-width="2" marker-end="url(#arrow)" />
<path d="M 930.0 805.0 L 1275.0 805.0" fill="none" stroke="#4b5563" stroke-width="2" marker-end="url(#arrow)" /><rect x="1080.5" y="792.6" width="44.0" height="24.9" rx="6" ry="6" fill="#ffffff" opacity="0.92" stroke="none" /><text x="1102.5" y="808.6" fill="#111111" font-family="Arial, Helvetica, sans-serif" font-size="11" font-weight="400" text-anchor="middle"><tspan x="1102.5" dy="0">Ya</tspan></text>
<path d="M 930.0 805.0 L 930.0 995.0" fill="none" stroke="#4b5563" stroke-width="2" marker-end="url(#arrow)" /><rect x="905.0" y="887.6" width="49.9" height="24.9" rx="6" ry="6" fill="#ffffff" opacity="0.92" stroke="none" /><text x="930.0" y="903.6" fill="#111111" font-family="Arial, Helvetica, sans-serif" font-size="11" font-weight="400" text-anchor="middle"><tspan x="930.0" dy="0">Tidak</tspan></text>
<path d="M 1275.0 805.0 L 930.0 995.0" fill="none" stroke="#4b5563" stroke-width="2" marker-end="url(#arrow)" />
<path d="M 930.0 995.0 L 595.0 1000.0" fill="none" stroke="#4b5563" stroke-width="2" marker-end="url(#arrow)" /><rect x="737.5" y="985.1" width="49.9" height="24.9" rx="6" ry="6" fill="#ffffff" opacity="0.92" stroke="none" /><text x="762.5" y="1001.1" fill="#111111" font-family="Arial, Helvetica, sans-serif" font-size="11" font-weight="400" text-anchor="middle"><tspan x="762.5" dy="0">Belum</tspan></text>
<path d="M 930.0 995.0 L 930.0 1160.0" fill="none" stroke="#4b5563" stroke-width="2" marker-end="url(#arrow)" /><rect x="908.0" y="1065.1" width="44.0" height="24.9" rx="6" ry="6" fill="#ffffff" opacity="0.92" stroke="none" /><text x="930.0" y="1081.1" fill="#111111" font-family="Arial, Helvetica, sans-serif" font-size="11" font-weight="400" text-anchor="middle"><tspan x="930.0" dy="0">Siap</tspan></text>
<path d="M 930.0 1160.0 L 930.0 1335.0" fill="none" stroke="#4b5563" stroke-width="2" marker-end="url(#arrow)" />
<path d="M 930.0 1335.0 L 1285.0 1340.0" fill="none" stroke="#4b5563" stroke-width="2" marker-end="url(#arrow)" /><rect x="1082.5" y="1325.1" width="49.9" height="24.9" rx="6" ry="6" fill="#ffffff" opacity="0.92" stroke="none" /><text x="1107.5" y="1341.1" fill="#111111" font-family="Arial, Helvetica, sans-serif" font-size="11" font-weight="400" text-anchor="middle"><tspan x="1107.5" dy="0">Gagal</tspan></text>
<path d="M 930.0 1335.0 L 920.0 1530.0" fill="none" stroke="#4b5563" stroke-width="2" marker-end="url(#arrow)" /><rect x="900.0" y="1420.1" width="49.9" height="24.9" rx="6" ry="6" fill="#ffffff" opacity="0.92" stroke="none" /><text x="925.0" y="1436.1" fill="#111111" font-family="Arial, Helvetica, sans-serif" font-size="11" font-weight="400" text-anchor="middle"><tspan x="925.0" dy="0">Lolos</tspan></text>
<path d="M 920.0 1530.0 L 580.0 1525.0" fill="none" stroke="#4b5563" stroke-width="2" marker-end="url(#arrow)" /><rect x="725.0" y="1515.1" width="49.9" height="24.9" rx="6" ry="6" fill="#ffffff" opacity="0.92" stroke="none" /><text x="750.0" y="1531.1" fill="#111111" font-family="Arial, Helvetica, sans-serif" font-size="11" font-weight="400" text-anchor="middle"><tspan x="750.0" dy="0">Tidak</tspan></text>
<path d="M 920.0 1530.0 L 1255.0 1520.0" fill="none" stroke="#4b5563" stroke-width="2" marker-end="url(#arrow)" /><rect x="1065.5" y="1512.6" width="44.0" height="24.9" rx="6" ry="6" fill="#ffffff" opacity="0.92" stroke="none" /><text x="1087.5" y="1528.6" fill="#111111" font-family="Arial, Helvetica, sans-serif" font-size="11" font-weight="400" text-anchor="middle"><tspan x="1087.5" dy="0">Ya</tspan></text>
<path d="M 1255.0 1520.0 L 1555.0 1445.0" fill="none" stroke="#4b5563" stroke-width="2" marker-end="url(#arrow)" /><rect x="1383.0" y="1470.1" width="44.0" height="24.9" rx="6" ry="6" fill="#ffffff" opacity="0.92" stroke="none" /><text x="1405.0" y="1486.1" fill="#111111" font-family="Arial, Helvetica, sans-serif" font-size="11" font-weight="400" text-anchor="middle"><tspan x="1405.0" dy="0">Ya</tspan></text>
<path d="M 1255.0 1520.0 L 1555.0 1555.0" fill="none" stroke="#4b5563" stroke-width="2" marker-end="url(#arrow)" /><rect x="1380.0" y="1525.1" width="49.9" height="24.9" rx="6" ry="6" fill="#ffffff" opacity="0.92" stroke="none" /><text x="1405.0" y="1541.1" fill="#111111" font-family="Arial, Helvetica, sans-serif" font-size="11" font-weight="400" text-anchor="middle"><tspan x="1405.0" dy="0">Tidak</tspan></text>
<path d="M 580.0 1525.0 L 935.0 1730.0" fill="none" stroke="#4b5563" stroke-width="2" marker-end="url(#arrow)" />
<path d="M 1555.0 1445.0 L 935.0 1730.0" fill="none" stroke="#4b5563" stroke-width="2" marker-end="url(#arrow)" />
<path d="M 1555.0 1555.0 L 935.0 1730.0" fill="none" stroke="#4b5563" stroke-width="2" marker-end="url(#arrow)" />
<path d="M 935.0 1730.0 L 930.0 2095.0" fill="none" stroke="#4b5563" stroke-width="2" marker-end="url(#arrow)" /><rect x="907.5" y="1900.1" width="49.9" height="24.9" rx="6" ry="6" fill="#ffffff" opacity="0.92" stroke="none" /><text x="932.5" y="1916.1" fill="#111111" font-family="Arial, Helvetica, sans-serif" font-size="11" font-weight="400" text-anchor="middle"><tspan x="932.5" dy="0">Tidak</tspan></text>
<path d="M 935.0 1730.0 L 935.0 1920.0" fill="none" stroke="#4b5563" stroke-width="2" marker-end="url(#arrow)" /><rect x="913.0" y="1812.6" width="44.0" height="24.9" rx="6" ry="6" fill="#ffffff" opacity="0.92" stroke="none" /><text x="935.0" y="1828.6" fill="#111111" font-family="Arial, Helvetica, sans-serif" font-size="11" font-weight="400" text-anchor="middle"><tspan x="935.0" dy="0">Ya</tspan></text>
<path d="M 935.0 1920.0 L 1285.0 1835.0" fill="none" stroke="#4b5563" stroke-width="2" marker-end="url(#arrow)" /><rect x="1069.1" y="1865.1" width="81.8" height="24.9" rx="6" ry="6" fill="#ffffff" opacity="0.92" stroke="none" /><text x="1110.0" y="1881.1" fill="#111111" font-family="Arial, Helvetica, sans-serif" font-size="11" font-weight="400" text-anchor="middle"><tspan x="1110.0" dy="0">Belum lock</tspan></text>
<path d="M 935.0 1920.0 L 1285.0 1965.0" fill="none" stroke="#4b5563" stroke-width="2" marker-end="url(#arrow)" /><rect x="1069.1" y="1930.1" width="81.8" height="24.9" rx="6" ry="6" fill="#ffffff" opacity="0.92" stroke="none" /><text x="1110.0" y="1946.1" fill="#111111" font-family="Arial, Helvetica, sans-serif" font-size="11" font-weight="400" text-anchor="middle"><tspan x="1110.0" dy="0">Sudah lock</tspan></text>
<path d="M 1285.0 1835.0 L 930.0 2095.0" fill="none" stroke="#4b5563" stroke-width="2" marker-end="url(#arrow)" />
<path d="M 1285.0 1965.0 L 930.0 2095.0" fill="none" stroke="#4b5563" stroke-width="2" marker-end="url(#arrow)" />
<path d="M 1285.0 1340.0 L 1490.0 1340.0 L 1490.0 1160.0 L 1070.0 1160.0 L 930.0 1160.0" fill="none" stroke="#4b5563" stroke-width="2" marker-end="url(#arrow)" /><rect x="1329.7" y="1147.6" width="145.6" height="24.9" rx="6" ry="6" fill="#ffffff" opacity="0.92" stroke="none" /><text x="1402.5" y="1163.6" fill="#111111" font-family="Arial, Helvetica, sans-serif" font-size="11" font-weight="400" text-anchor="middle"><tspan x="1402.5" dy="0">Perbaiki lalu ulangi</tspan></text>
<text x="52.0" y="42.8" fill="#111111" font-family="Arial, Helvetica, sans-serif" font-size="24" font-weight="700" text-anchor="start"><tspan x="52.0" dy="0">FLOWCHART ORDER / RESI SAMPAI SURAT JALAN</tspan></text>
<text x="52.0" y="68.6" fill="#666666" font-family="Arial, Helvetica, sans-serif" font-size="11" font-weight="400" text-anchor="start"><tspan x="52.0" dy="0">Halaman ini diubah jadi alur vertikal. Cabang edit, partial, dan lock finance ditaruh di samping agar panah tidak saling silang.</tspan></text>
<ellipse cx="930.0" cy="150.0" rx="110.0" ry="30.0" fill="#d5e8d4" stroke="#82b366" stroke-width="1.5" /><text x="930.0" y="153.9" fill="#111111" font-family="Arial, Helvetica, sans-serif" font-size="12" font-weight="700" text-anchor="middle"><tspan x="930.0" dy="0">Mulai oleh Owner / Operasional</tspan></text>
<polygon points="930.0,220.0 1025.0,285.0 930.0,350.0 835.0,285.0" fill="#fff2cc" stroke="#d6b656" stroke-width="1.5" /><text x="930.0" y="288.9" fill="#111111" font-family="Arial, Helvetica, sans-serif" font-size="12" font-weight="700" text-anchor="middle"><tspan x="930.0" dy="0">Master customer, pickup, recipient, produk, dan armada sudah siap?</tspan></text>
<rect x="470.0" y="245.0" width="220.0" height="80.0" rx="12" ry="12" fill="#dae8fc" stroke="#6c8ebf" stroke-width="1.5" /><text x="580.0" y="288.9" fill="#111111" font-family="Arial, Helvetica, sans-serif" font-size="12" font-weight="400" text-anchor="middle"><tspan x="580.0" dy="0">Lengkapi / perbaiki master dulu</tspan></text>
<rect x="810.0" y="420.0" width="240.0" height="80.0" rx="12" ry="12" fill="#f8cecc" stroke="#b85450" stroke-width="1.5" /><text x="930.0" y="463.9" fill="#111111" font-family="Arial, Helvetica, sans-serif" font-size="12" font-weight="700" text-anchor="middle"><tspan x="930.0" dy="0">Buat Order / Resi + item muatan</tspan></text>
<rect x="1160.0" y="470.0" width="240.0" height="90.0" rx="12" ry="12" fill="#d5e8d4" stroke="#82b366" stroke-width="1.5" /><text x="1280.0" y="510.8" fill="#111111" font-family="Arial, Helvetica, sans-serif" font-size="12" font-weight="400" text-anchor="middle"><tspan x="1280.0" dy="0">Edit order penuh masih boleh</tspan><tspan x="1280.0" dy="16.200000000000003">header + item + pengirim / penerima</tspan></text>
<polygon points="930.0,545.0 1025.0,615.0 930.0,685.0 835.0,615.0" fill="#fff2cc" stroke="#d6b656" stroke-width="1.5" /><text x="930.0" y="610.8" fill="#111111" font-family="Arial, Helvetica, sans-serif" font-size="12" font-weight="700" text-anchor="middle"><tspan x="930.0" dy="0">Order masih fleksibel?</tspan><tspan x="930.0" dy="16.200000000000003">Belum punya DO, progress, assign, atau hold blocker</tspan></text>
<rect x="1160.0" y="610.0" width="240.0" height="90.0" rx="12" ry="12" fill="#ffe6cc" stroke="#d79b00" stroke-width="1.5" /><text x="1280.0" y="650.8" fill="#111111" font-family="Arial, Helvetica, sans-serif" font-size="12" font-weight="400" text-anchor="middle"><tspan x="1280.0" dy="0">Edit massal diblok</tspan><tspan x="1280.0" dy="16.200000000000003">Tersisa revisi target / hold / aksi aman saja</tspan></text>
<polygon points="930.0,740.0 1025.0,805.0 930.0,870.0 835.0,805.0" fill="#fff2cc" stroke="#d6b656" stroke-width="1.5" /><text x="930.0" y="808.9" fill="#111111" font-family="Arial, Helvetica, sans-serif" font-size="12" font-weight="700" text-anchor="middle"><tspan x="930.0" dy="0">Perlu hold item atau revisi target?</tspan></text>
<rect x="1160.0" y="765.0" width="230.0" height="80.0" rx="12" ry="12" fill="#ffe6cc" stroke="#d79b00" stroke-width="1.5" /><text x="1275.0" y="808.9" fill="#111111" font-family="Arial, Helvetica, sans-serif" font-size="12" font-weight="400" text-anchor="middle"><tspan x="1275.0" dy="0">Set hold / release hold / revise target</tspan></text>
<polygon points="930.0,930.0 1025.0,995.0 930.0,1060.0 835.0,995.0" fill="#fff2cc" stroke="#d6b656" stroke-width="1.5" /><text x="930.0" y="998.9" fill="#111111" font-family="Arial, Helvetica, sans-serif" font-size="12" font-weight="700" text-anchor="middle"><tspan x="930.0" dy="0">Sudah siap dibuat DO?</tspan></text>
<rect x="470.0" y="955.0" width="250.0" height="90.0" rx="12" ry="12" fill="#f5f5f5" stroke="#666666" stroke-width="1.5" /><text x="595.0" y="1003.9" fill="#111111" font-family="Arial, Helvetica, sans-serif" font-size="12" font-weight="400" text-anchor="middle"><tspan x="595.0" dy="0">Order tetap open sambil tunggu data / keputusan operasional</tspan></text>
<rect x="790.0" y="1115.0" width="280.0" height="90.0" rx="12" ry="12" fill="#f8cecc" stroke="#b85450" stroke-width="1.5" /><text x="930.0" y="1163.9" fill="#111111" font-family="Arial, Helvetica, sans-serif" font-size="12" font-weight="700" text-anchor="middle"><tspan x="930.0" dy="0">Buat DO + isi driver, kendaraan, no SJ pengirim, dan route fee snapshot</tspan></text>
<polygon points="930.0,1270.0 1025.0,1335.0 930.0,1400.0 835.0,1335.0" fill="#fff2cc" stroke="#d6b656" stroke-width="1.5" /><text x="930.0" y="1338.9" fill="#111111" font-family="Arial, Helvetica, sans-serif" font-size="12" font-weight="700" text-anchor="middle"><tspan x="930.0" dy="0">Validasi create DO lolos?</tspan></text>
<rect x="1160.0" y="1295.0" width="250.0" height="90.0" rx="12" ry="12" fill="#dae8fc" stroke="#6c8ebf" stroke-width="1.5" /><text x="1285.0" y="1343.9" fill="#111111" font-family="Arial, Helvetica, sans-serif" font-size="12" font-weight="400" text-anchor="middle"><tspan x="1285.0" dy="0">Perbaiki data / master / alasan override lalu ulangi create DO</tspan></text>
<rect x="1435.0" y="1405.0" width="240.0" height="80.0" rx="12" ry="12" fill="#ffe6cc" stroke="#d79b00" stroke-width="1.5" /><text x="1555.0" y="1448.9" fill="#111111" font-family="Arial, Helvetica, sans-serif" font-size="12" font-weight="400" text-anchor="middle"><tspan x="1555.0" dy="0">Sisa item ditahan</tspan></text>
<polygon points="1255.0,1455.0 1345.0,1520.0 1255.0,1585.0 1165.0,1520.0" fill="#fff2cc" stroke="#d6b656" stroke-width="1.5" /><text x="1255.0" y="1523.9" fill="#111111" font-family="Arial, Helvetica, sans-serif" font-size="12" font-weight="700" text-anchor="middle"><tspan x="1255.0" dy="0">Hold sisa muatan?</tspan></text>
<polygon points="920.0,1465.0 1005.0,1530.0 920.0,1595.0 835.0,1530.0" fill="#fff2cc" stroke="#d6b656" stroke-width="1.5" /><text x="920.0" y="1533.9" fill="#111111" font-family="Arial, Helvetica, sans-serif" font-size="12" font-weight="700" text-anchor="middle"><tspan x="920.0" dy="0">Trip partial?</tspan></text>
<rect x="470.0" y="1485.0" width="220.0" height="80.0" rx="12" ry="12" fill="#d5e8d4" stroke="#82b366" stroke-width="1.5" /><text x="580.0" y="1528.9" fill="#111111" font-family="Arial, Helvetica, sans-serif" font-size="12" font-weight="400" text-anchor="middle"><tspan x="580.0" dy="0">Semua item terambil di 1 DO</tspan></text>
<rect x="1435.0" y="1515.0" width="240.0" height="80.0" rx="12" ry="12" fill="#dae8fc" stroke="#6c8ebf" stroke-width="1.5" /><text x="1555.0" y="1558.9" fill="#111111" font-family="Arial, Helvetica, sans-serif" font-size="12" font-weight="400" text-anchor="middle"><tspan x="1555.0" dy="0">Sisa order tetap bisa diproses lagi</tspan></text>
<polygon points="935.0,1665.0 1035.0,1730.0 935.0,1795.0 835.0,1730.0" fill="#fff2cc" stroke="#d6b656" stroke-width="1.5" /><text x="935.0" y="1733.9" fill="#111111" font-family="Arial, Helvetica, sans-serif" font-size="12" font-weight="700" text-anchor="middle"><tspan x="935.0" dy="0">Perlu koreksi DO setelah terbit?</tspan></text>
<rect x="1160.0" y="1790.0" width="250.0" height="90.0" rx="12" ry="12" fill="#d5e8d4" stroke="#82b366" stroke-width="1.5" /><text x="1285.0" y="1838.9" fill="#111111" font-family="Arial, Helvetica, sans-serif" font-size="12" font-weight="400" text-anchor="middle"><tspan x="1285.0" dy="0">Masih boleh ubah assign, ref, shipper, dan field aman lain sesuai guard</tspan></text>
<polygon points="935.0,1855.0 1035.0,1920.0 935.0,1985.0 835.0,1920.0" fill="#fff2cc" stroke="#d6b656" stroke-width="1.5" /><text x="935.0" y="1923.9" fill="#111111" font-family="Arial, Helvetica, sans-serif" font-size="12" font-weight="700" text-anchor="middle"><tspan x="935.0" dy="0">DO sudah terhubung ke voucher / finance lock?</tspan></text>
<rect x="1160.0" y="1920.0" width="250.0" height="90.0" rx="12" ry="12" fill="#f8cecc" stroke="#b85450" stroke-width="1.5" /><text x="1285.0" y="1960.8" fill="#111111" font-family="Arial, Helvetica, sans-serif" font-size="12" font-weight="400" text-anchor="middle"><tspan x="1285.0" dy="0">Field yang memengaruhi finance terkunci</tspan><tspan x="1285.0" dy="16.200000000000003">Tersisa update status / referensi aman</tspan></text>
<ellipse cx="930.0" cy="2095.0" rx="120.0" ry="35.0" fill="#d5e8d4" stroke="#82b366" stroke-width="1.5" /><text x="930.0" y="2090.8" fill="#111111" font-family="Arial, Helvetica, sans-serif" font-size="12" font-weight="700" text-anchor="middle"><tspan x="930.0" dy="0">Selesai</tspan><tspan x="930.0" dy="16.200000000000003">DO siap ke eksekusi trip</tspan></text>
</svg>