<svg xmlns="http://www.w3.org/2000/svg" width="2400" height="1300" viewBox="0 0 2400 1300">
<defs>
<marker id="arrow" viewBox="0 0 10 10" refX="9" refY="5" markerWidth="8" markerHeight="8" orient="auto-start-reverse">
<path d="M 0 0 L 10 5 L 0 10 z" fill="#4b5563" />
</marker>
</defs>
<rect x="0" y="0" width="2400" height="1300" fill="#ffffff" />
<path d="M 160.0 220.0 L 415.0 220.0" fill="none" stroke="#4b5563" stroke-width="2" marker-end="url(#arrow)" />
<path d="M 415.0 220.0 L 695.0 220.0" fill="none" stroke="#4b5563" stroke-width="2" marker-end="url(#arrow)" /><rect x="517.3" y="207.6" width="75.4" height="24.9" rx="6" ry="6" fill="#ffffff" opacity="0.92" stroke="none" /><text x="555.0" y="223.6" fill="#111111" font-family="Arial, Helvetica, sans-serif" font-size="11" font-weight="400" text-anchor="middle"><tspan x="555.0" dy="0">Tidak ada</tspan></text>
<path d="M 415.0 220.0 L 990.0 220.0" fill="none" stroke="#4b5563" stroke-width="2" marker-end="url(#arrow)" /><rect x="680.5" y="207.6" width="44.0" height="24.9" rx="6" ry="6" fill="#ffffff" opacity="0.92" stroke="none" /><text x="702.5" y="223.6" fill="#111111" font-family="Arial, Helvetica, sans-serif" font-size="11" font-weight="400" text-anchor="middle"><tspan x="702.5" dy="0">Ada</tspan></text>
<path d="M 990.0 220.0 L 1270.0 220.0" fill="none" stroke="#4b5563" stroke-width="2" marker-end="url(#arrow)" /><rect x="1085.9" y="207.6" width="88.2" height="24.9" rx="6" ry="6" fill="#ffffff" opacity="0.92" stroke="none" /><text x="1130.0" y="223.6" fill="#111111" font-family="Arial, Helvetica, sans-serif" font-size="11" font-weight="400" text-anchor="middle"><tspan x="1130.0" dy="0">Tidak valid</tspan></text>
<path d="M 990.0 220.0 L 1545.0 220.0" fill="none" stroke="#4b5563" stroke-width="2" marker-end="url(#arrow)" /><rect x="1242.5" y="207.6" width="49.9" height="24.9" rx="6" ry="6" fill="#ffffff" opacity="0.92" stroke="none" /><text x="1267.5" y="223.6" fill="#111111" font-family="Arial, Helvetica, sans-serif" font-size="11" font-weight="400" text-anchor="middle"><tspan x="1267.5" dy="0">Valid</tspan></text>
<path d="M 1545.0 220.0 L 1840.0 220.0" fill="none" stroke="#4b5563" stroke-width="2" marker-end="url(#arrow)" />
<path d="M 1270.0 220.0 L 990.0 220.0" fill="none" stroke="#4b5563" stroke-width="2" marker-end="url(#arrow)" /><rect x="1047.6" y="207.6" width="164.7" height="24.9" rx="6" ry="6" fill="#ffffff" opacity="0.92" stroke="none" /><text x="1130.0" y="223.6" fill="#111111" font-family="Arial, Helvetica, sans-serif" font-size="11" font-weight="400" text-anchor="middle"><tspan x="1130.0" dy="0">Perbaiki lalu coba lagi</tspan></text>
<path d="M 1840.0 220.0 L 965.0 520.0" fill="none" stroke="#4b5563" stroke-width="2" marker-end="url(#arrow)" />
<path d="M 965.0 520.0 L 1215.0 520.0" fill="none" stroke="#4b5563" stroke-width="2" marker-end="url(#arrow)" /><rect x="1068.0" y="507.6" width="44.0" height="24.9" rx="6" ry="6" fill="#ffffff" opacity="0.92" stroke="none" /><text x="1090.0" y="523.6" fill="#111111" font-family="Arial, Helvetica, sans-serif" font-size="11" font-weight="400" text-anchor="middle"><tspan x="1090.0" dy="0">Ya</tspan></text>
<path d="M 965.0 520.0 L 975.0 905.0" fill="none" stroke="#4b5563" stroke-width="2" marker-end="url(#arrow)" /><rect x="945.0" y="700.1" width="49.9" height="24.9" rx="6" ry="6" fill="#ffffff" opacity="0.92" stroke="none" /><text x="970.0" y="716.1" fill="#111111" font-family="Arial, Helvetica, sans-serif" font-size="11" font-weight="400" text-anchor="middle"><tspan x="970.0" dy="0">Tidak</tspan></text>
<path d="M 1215.0 520.0 L 1465.0 520.0" fill="none" stroke="#4b5563" stroke-width="2" marker-end="url(#arrow)" />
<path d="M 1465.0 520.0 L 1745.0 520.0" fill="none" stroke="#4b5563" stroke-width="2" marker-end="url(#arrow)" /><rect x="1583.0" y="507.6" width="44.0" height="24.9" rx="6" ry="6" fill="#ffffff" opacity="0.92" stroke="none" /><text x="1605.0" y="523.6" fill="#111111" font-family="Arial, Helvetica, sans-serif" font-size="11" font-weight="400" text-anchor="middle"><tspan x="1605.0" dy="0">Ya</tspan></text>
<path d="M 1465.0 520.0 L 1745.0 650.0" fill="none" stroke="#4b5563" stroke-width="2" marker-end="url(#arrow)" /><rect x="1580.0" y="572.6" width="49.9" height="24.9" rx="6" ry="6" fill="#ffffff" opacity="0.92" stroke="none" /><text x="1605.0" y="588.6" fill="#111111" font-family="Arial, Helvetica, sans-serif" font-size="11" font-weight="400" text-anchor="middle"><tspan x="1605.0" dy="0">Belum</tspan></text>
<path d="M 1745.0 650.0 L 1995.0 635.0" fill="none" stroke="#4b5563" stroke-width="2" marker-end="url(#arrow)" />
<path d="M 1995.0 635.0 L 2245.0 635.0" fill="none" stroke="#4b5563" stroke-width="2" marker-end="url(#arrow)" /><rect x="2098.0" y="622.6" width="44.0" height="24.9" rx="6" ry="6" fill="#ffffff" opacity="0.92" stroke="none" /><text x="2120.0" y="638.6" fill="#111111" font-family="Arial, Helvetica, sans-serif" font-size="11" font-weight="400" text-anchor="middle"><tspan x="2120.0" dy="0">Ya</tspan></text>
<path d="M 1995.0 635.0 L 975.0 905.0" fill="none" stroke="#4b5563" stroke-width="2" marker-end="url(#arrow)" /><rect x="1460.0" y="757.6" width="49.9" height="24.9" rx="6" ry="6" fill="#ffffff" opacity="0.92" stroke="none" /><text x="1485.0" y="773.6" fill="#111111" font-family="Arial, Helvetica, sans-serif" font-size="11" font-weight="400" text-anchor="middle"><tspan x="1485.0" dy="0">Tidak</tspan></text>
<path d="M 2245.0 635.0 L 1840.0 220.0" fill="none" stroke="#4b5563" stroke-width="2" marker-end="url(#arrow)" />
<path d="M 1745.0 520.0 L 2070.0 1180.0" fill="none" stroke="#4b5563" stroke-width="2" marker-end="url(#arrow)" /><rect x="1825.1" y="837.6" width="164.7" height="24.9" rx="6" ry="6" fill="#ffffff" opacity="0.92" stroke="none" /><text x="1907.5" y="853.6" fill="#111111" font-family="Arial, Helvetica, sans-serif" font-size="11" font-weight="400" text-anchor="middle"><tspan x="1907.5" dy="0">Rilis lock lalu selesai</tspan></text>
<path d="M 975.0 905.0 L 1255.0 905.0" fill="none" stroke="#4b5563" stroke-width="2" marker-end="url(#arrow)" /><rect x="1090.0" y="892.6" width="49.9" height="24.9" rx="6" ry="6" fill="#ffffff" opacity="0.92" stroke="none" /><text x="1115.0" y="908.6" fill="#111111" font-family="Arial, Helvetica, sans-serif" font-size="11" font-weight="400" text-anchor="middle"><tspan x="1115.0" dy="0">Belum</tspan></text>
<path d="M 975.0 905.0 L 1535.0 905.0" fill="none" stroke="#4b5563" stroke-width="2" marker-end="url(#arrow)" /><rect x="1230.0" y="892.6" width="49.9" height="24.9" rx="6" ry="6" fill="#ffffff" opacity="0.92" stroke="none" /><text x="1255.0" y="908.6" fill="#111111" font-family="Arial, Helvetica, sans-serif" font-size="11" font-weight="400" text-anchor="middle"><tspan x="1255.0" dy="0">Sudah</tspan></text>
<path d="M 1255.0 905.0 L 1840.0 220.0" fill="none" stroke="#4b5563" stroke-width="2" marker-end="url(#arrow)" />
<path d="M 1535.0 905.0 L 1800.0 905.0" fill="none" stroke="#4b5563" stroke-width="2" marker-end="url(#arrow)" />
<path d="M 1800.0 905.0 L 2070.0 905.0" fill="none" stroke="#4b5563" stroke-width="2" marker-end="url(#arrow)" /><rect x="1910.0" y="892.6" width="49.9" height="24.9" rx="6" ry="6" fill="#ffffff" opacity="0.92" stroke="none" /><text x="1935.0" y="908.6" fill="#111111" font-family="Arial, Helvetica, sans-serif" font-size="11" font-weight="400" text-anchor="middle"><tspan x="1935.0" dy="0">Tolak</tspan></text>
<path d="M 1800.0 905.0 L 2070.0 1045.0" fill="none" stroke="#4b5563" stroke-width="2" marker-end="url(#arrow)" /><rect x="1906.9" y="962.6" width="56.3" height="24.9" rx="6" ry="6" fill="#ffffff" opacity="0.92" stroke="none" /><text x="1935.0" y="978.6" fill="#111111" font-family="Arial, Helvetica, sans-serif" font-size="11" font-weight="400" text-anchor="middle"><tspan x="1935.0" dy="0">Setuju</tspan></text>
<path d="M 2070.0 905.0 L 1840.0 220.0" fill="none" stroke="#4b5563" stroke-width="2" marker-end="url(#arrow)" /><rect x="1901.3" y="550.1" width="107.3" height="24.9" rx="6" ry="6" fill="#ffffff" opacity="0.92" stroke="none" /><text x="1955.0" y="566.1" fill="#111111" font-family="Arial, Helvetica, sans-serif" font-size="11" font-weight="400" text-anchor="middle"><tspan x="1955.0" dy="0">Balik eksekusi</tspan></text>
<path d="M 2070.0 1045.0 L 2070.0 1180.0" fill="none" stroke="#4b5563" stroke-width="2" marker-end="url(#arrow)" />
<text x="52.0" y="42.8" fill="#111111" font-family="Arial, Helvetica, sans-serif" font-size="24" font-weight="700" text-anchor="start"><tspan x="52.0" dy="0">FLOWCHART EKSEKUSI DO DAN TRACKING DRIVER</tspan></text>
<text x="52.0" y="68.6" fill="#666666" font-family="Arial, Helvetica, sans-serif" font-size="11" font-weight="400" text-anchor="start"><tspan x="52.0" dy="0">Alur dari driver login sampai delivered approval. Patokan dari route driver tracking dan update status DO aktif.</tspan></text>
<polygon points="990.0,145.0 1100.0,220.0 990.0,295.0 880.0,220.0" fill="#fff2cc" stroke="#d6b656" stroke-width="1.5" /><text x="990.0" y="215.8" fill="#111111" font-family="Arial, Helvetica, sans-serif" font-size="12" font-weight="700" text-anchor="middle"><tspan x="990.0" dy="0">Start / resume valid?</tspan><tspan x="990.0" dy="16.200000000000003">Driver pemilik DO, GPS valid, DO tidak cancelled, lock tidak bentrok</tspan></text>
<polygon points="415.0,155.0 510.0,220.0 415.0,285.0 320.0,220.0" fill="#fff2cc" stroke="#d6b656" stroke-width="1.5" /><text x="415.0" y="223.9" fill="#111111" font-family="Arial, Helvetica, sans-serif" font-size="12" font-weight="700" text-anchor="middle"><tspan x="415.0" dy="0">Ada DO assigned / active untuk driver ini?</tspan></text>
<rect x="590.0" y="180.0" width="210.0" height="80.0" rx="12" ry="12" fill="#f5f5f5" stroke="#666666" stroke-width="1.5" /><text x="695.0" y="223.9" fill="#111111" font-family="Arial, Helvetica, sans-serif" font-size="12" font-weight="400" text-anchor="middle"><tspan x="695.0" dy="0">Tunggu assign baru dari admin / operasional</tspan></text>
<rect x="1180.0" y="180.0" width="180.0" height="80.0" rx="12" ry="12" fill="#f8cecc" stroke="#b85450" stroke-width="1.5" /><text x="1270.0" y="215.8" fill="#111111" font-family="Arial, Helvetica, sans-serif" font-size="12" font-weight="400" text-anchor="middle"><tspan x="1270.0" dy="0">Tolak request</tspan><tspan x="1270.0" dy="16.200000000000003">(409 / 400 sesuai guard)</tspan></text>
<rect x="1440.0" y="180.0" width="210.0" height="80.0" rx="12" ry="12" fill="#dae8fc" stroke="#6c8ebf" stroke-width="1.5" /><text x="1545.0" y="215.8" fill="#111111" font-family="Arial, Helvetica, sans-serif" font-size="12" font-weight="700" text-anchor="middle"><tspan x="1545.0" dy="0">Start / resume tracking</tspan><tspan x="1545.0" dy="16.200000000000003">+ lock driver ke DO aktif</tspan></text>
<rect x="1730.0" y="180.0" width="220.0" height="80.0" rx="12" ry="12" fill="#e1d5e7" stroke="#9673a6" stroke-width="1.5" /><text x="1840.0" y="215.8" fill="#111111" font-family="Arial, Helvetica, sans-serif" font-size="12" font-weight="400" text-anchor="middle"><tspan x="1840.0" dy="0">Heartbeat dan update status live</tspan><tspan x="1840.0" dy="16.200000000000003">ON_DELIVERY / ARRIVED</tspan></text>
<ellipse cx="160.0" cy="220.0" rx="90.0" ry="30.0" fill="#d5e8d4" stroke="#82b366" stroke-width="1.5" /><text x="160.0" y="223.9" fill="#111111" font-family="Arial, Helvetica, sans-serif" font-size="12" font-weight="700" text-anchor="middle"><tspan x="160.0" dy="0">Driver login dan buka DO aktif</tspan></text>
<polygon points="1465.0,445.0 1560.0,520.0 1465.0,595.0 1370.0,520.0" fill="#fff2cc" stroke="#d6b656" stroke-width="1.5" /><text x="1465.0" y="515.8" fill="#111111" font-family="Arial, Helvetica, sans-serif" font-size="12" font-weight="700" text-anchor="middle"><tspan x="1465.0" dy="0">DO sudah closed</tspan><tspan x="1465.0" dy="16.200000000000003">(DELIVERED / CANCELLED)?</tspan></text>
<polygon points="965.0,455.0 1050.0,520.0 965.0,585.0 880.0,520.0" fill="#fff2cc" stroke="#d6b656" stroke-width="1.5" /><text x="965.0" y="523.9" fill="#111111" font-family="Arial, Helvetica, sans-serif" font-size="12" font-weight="700" text-anchor="middle"><tspan x="965.0" dy="0">Pause diminta?</tspan></text>
<rect x="1130.0" y="480.0" width="170.0" height="80.0" rx="12" ry="12" fill="#ffe6cc" stroke="#d79b00" stroke-width="1.5" /><text x="1215.0" y="523.9" fill="#111111" font-family="Arial, Helvetica, sans-serif" font-size="12" font-weight="400" text-anchor="middle"><tspan x="1215.0" dy="0">Set tracking PAUSED</tspan></text>
<rect x="1640.0" y="480.0" width="210.0" height="80.0" rx="12" ry="12" fill="#d5e8d4" stroke="#82b366" stroke-width="1.5" /><text x="1745.0" y="523.9" fill="#111111" font-family="Arial, Helvetica, sans-serif" font-size="12" font-weight="400" text-anchor="middle"><tspan x="1745.0" dy="0">Release activeTrackingDeliveryOrderRef</tspan></text>
<polygon points="1995.0,570.0 2080.0,635.0 1995.0,700.0 1910.0,635.0" fill="#fff2cc" stroke="#d6b656" stroke-width="1.5" /><text x="1995.0" y="638.9" fill="#111111" font-family="Arial, Helvetica, sans-serif" font-size="12" font-weight="700" text-anchor="middle"><tspan x="1995.0" dy="0">Resume lagi?</tspan></text>
<rect x="2140.0" y="595.0" width="210.0" height="80.0" rx="12" ry="12" fill="#dae8fc" stroke="#6c8ebf" stroke-width="1.5" /><text x="2245.0" y="638.9" fill="#111111" font-family="Arial, Helvetica, sans-serif" font-size="12" font-weight="400" text-anchor="middle"><tspan x="2245.0" dy="0">Resume tracking dan lanjut heartbeat</tspan></text>
<rect x="1640.0" y="610.0" width="210.0" height="80.0" rx="12" ry="12" fill="#f5f5f5" stroke="#666666" stroke-width="1.5" /><text x="1745.0" y="653.9" fill="#111111" font-family="Arial, Helvetica, sans-serif" font-size="12" font-weight="400" text-anchor="middle"><tspan x="1745.0" dy="0">Tetap pause pada DO yang sama</tspan></text>
<polygon points="1800.0,830.0 1890.0,905.0 1800.0,980.0 1710.0,905.0" fill="#fff2cc" stroke="#d6b656" stroke-width="1.5" /><text x="1800.0" y="908.9" fill="#111111" font-family="Arial, Helvetica, sans-serif" font-size="12" font-weight="700" text-anchor="middle"><tspan x="1800.0" dy="0">Owner / Operasional approve?</tspan></text>
<polygon points="975.0,840.0 1070.0,905.0 975.0,970.0 880.0,905.0" fill="#fff2cc" stroke="#d6b656" stroke-width="1.5" /><text x="975.0" y="908.9" fill="#111111" font-family="Arial, Helvetica, sans-serif" font-size="12" font-weight="700" text-anchor="middle"><tspan x="975.0" dy="0">Driver mengajukan delivered + POD?</tspan></text>
<rect x="1150.0" y="865.0" width="210.0" height="80.0" rx="12" ry="12" fill="#f5f5f5" stroke="#666666" stroke-width="1.5" /><text x="1255.0" y="908.9" fill="#111111" font-family="Arial, Helvetica, sans-serif" font-size="12" font-weight="400" text-anchor="middle"><tspan x="1255.0" dy="0">Lanjut perjalanan / update status berikutnya</tspan></text>
<rect x="1440.0" y="865.0" width="190.0" height="80.0" rx="12" ry="12" fill="#ffe6cc" stroke="#d79b00" stroke-width="1.5" /><text x="1535.0" y="900.8" fill="#111111" font-family="Arial, Helvetica, sans-serif" font-size="12" font-weight="400" text-anchor="middle"><tspan x="1535.0" dy="0">Kirim delivered request</tspan><tspan x="1535.0" dy="16.200000000000003">+ data POD</tspan></text>
<rect x="1970.0" y="865.0" width="200.0" height="80.0" rx="12" ry="12" fill="#f8cecc" stroke="#b85450" stroke-width="1.5" /><text x="2070.0" y="900.8" fill="#111111" font-family="Arial, Helvetica, sans-serif" font-size="12" font-weight="400" text-anchor="middle"><tspan x="2070.0" dy="0">Reject request</tspan><tspan x="2070.0" dy="16.200000000000003">Driver kembali ke flow trip</tspan></text>
<rect x="1970.0" y="1005.0" width="200.0" height="80.0" rx="12" ry="12" fill="#d5e8d4" stroke="#82b366" stroke-width="1.5" /><text x="2070.0" y="1040.8" fill="#111111" font-family="Arial, Helvetica, sans-serif" font-size="12" font-weight="700" text-anchor="middle"><tspan x="2070.0" dy="0">Mark DELIVERED</tspan><tspan x="2070.0" dy="16.200000000000003">+ close tracking + siap ditagihkan</tspan></text>
<ellipse cx="2070.0" cy="1180.0" rx="60.0" ry="30.0" fill="#d5e8d4" stroke="#82b366" stroke-width="1.5" /><text x="2070.0" y="1183.9" fill="#111111" font-family="Arial, Helvetica, sans-serif" font-size="12" font-weight="700" text-anchor="middle"><tspan x="2070.0" dy="0">Selesai</tspan></text>
</svg>