<svg xmlns="http://www.w3.org/2000/svg" width="2100" height="1950" viewBox="0 0 2100 1950">
<defs>
<marker id="arrow" viewBox="0 0 10 10" refX="9" refY="5" markerWidth="8" markerHeight="8" orient="auto-start-reverse">
<path d="M 0 0 L 10 5 L 0 10 z" fill="#4b5563" />
</marker>
</defs>
<rect x="0" y="0" width="2100" height="1950" fill="#ffffff" />
<path d="M 490.0 210.0 L 490.0 350.0" fill="none" stroke="#4b5563" stroke-width="2" marker-end="url(#arrow)" />
<path d="M 490.0 350.0 L 220.0 350.0" fill="none" stroke="#4b5563" stroke-width="2" marker-end="url(#arrow)" /><rect x="330.1" y="337.6" width="49.9" height="24.9" rx="6" ry="6" fill="#ffffff" opacity="0.92" stroke="none" /><text x="355.0" y="353.6" fill="#111111" font-family="Arial, Helvetica, sans-serif" font-size="11" font-weight="400" text-anchor="middle"><tspan x="355.0" dy="0">Sudah</tspan></text>
<path d="M 490.0 350.0 L 490.0 525.0" fill="none" stroke="#4b5563" stroke-width="2" marker-end="url(#arrow)" /><rect x="465.1" y="425.1" width="49.9" height="24.9" rx="6" ry="6" fill="#ffffff" opacity="0.92" stroke="none" /><text x="490.0" y="441.1" fill="#111111" font-family="Arial, Helvetica, sans-serif" font-size="11" font-weight="400" text-anchor="middle"><tspan x="490.0" dy="0">Belum</tspan></text>
<path d="M 490.0 525.0 L 490.0 685.0" fill="none" stroke="#4b5563" stroke-width="2" marker-end="url(#arrow)" />
<path d="M 490.0 685.0 L 780.0 685.0" fill="none" stroke="#4b5563" stroke-width="2" marker-end="url(#arrow)" /><rect x="613.0" y="672.6" width="44.0" height="24.9" rx="6" ry="6" fill="#ffffff" opacity="0.92" stroke="none" /><text x="635.0" y="688.6" fill="#111111" font-family="Arial, Helvetica, sans-serif" font-size="11" font-weight="400" text-anchor="middle"><tspan x="635.0" dy="0">Ya</tspan></text>
<path d="M 490.0 685.0 L 490.0 865.0" fill="none" stroke="#4b5563" stroke-width="2" marker-end="url(#arrow)" /><rect x="465.1" y="762.6" width="49.9" height="24.9" rx="6" ry="6" fill="#ffffff" opacity="0.92" stroke="none" /><text x="490.0" y="778.6" fill="#111111" font-family="Arial, Helvetica, sans-serif" font-size="11" font-weight="400" text-anchor="middle"><tspan x="490.0" dy="0">Tidak</tspan></text>
<path d="M 780.0 685.0 L 490.0 865.0" fill="none" stroke="#4b5563" stroke-width="2" marker-end="url(#arrow)" />
<path d="M 490.0 865.0 L 780.0 865.0" fill="none" stroke="#4b5563" stroke-width="2" marker-end="url(#arrow)" /><rect x="613.0" y="852.6" width="44.0" height="24.9" rx="6" ry="6" fill="#ffffff" opacity="0.92" stroke="none" /><text x="635.0" y="868.6" fill="#111111" font-family="Arial, Helvetica, sans-serif" font-size="11" font-weight="400" text-anchor="middle"><tspan x="635.0" dy="0">Ya</tspan></text>
<path d="M 490.0 865.0 L 490.0 1030.0" fill="none" stroke="#4b5563" stroke-width="2" marker-end="url(#arrow)" /><rect x="465.1" y="935.1" width="49.9" height="24.9" rx="6" ry="6" fill="#ffffff" opacity="0.92" stroke="none" /><text x="490.0" y="951.1" fill="#111111" font-family="Arial, Helvetica, sans-serif" font-size="11" font-weight="400" text-anchor="middle"><tspan x="490.0" dy="0">Tidak</tspan></text>
<path d="M 780.0 865.0 L 490.0 1030.0" fill="none" stroke="#4b5563" stroke-width="2" marker-end="url(#arrow)" />
<path d="M 490.0 1030.0 L 490.0 1190.0" fill="none" stroke="#4b5563" stroke-width="2" marker-end="url(#arrow)" />
<path d="M 490.0 1190.0 L 230.0 1190.0" fill="none" stroke="#4b5563" stroke-width="2" marker-end="url(#arrow)" /><rect x="338.0" y="1177.6" width="44.0" height="24.9" rx="6" ry="6" fill="#ffffff" opacity="0.92" stroke="none" /><text x="360.0" y="1193.6" fill="#111111" font-family="Arial, Helvetica, sans-serif" font-size="11" font-weight="400" text-anchor="middle"><tspan x="360.0" dy="0">Ya</tspan></text>
<path d="M 490.0 1190.0 L 485.0 1390.0" fill="none" stroke="#4b5563" stroke-width="2" marker-end="url(#arrow)" /><rect x="462.6" y="1277.6" width="49.9" height="24.9" rx="6" ry="6" fill="#ffffff" opacity="0.92" stroke="none" /><text x="487.5" y="1293.6" fill="#111111" font-family="Arial, Helvetica, sans-serif" font-size="11" font-weight="400" text-anchor="middle"><tspan x="487.5" dy="0">Tidak</tspan></text>
<path d="M 485.0 1390.0 L 195.0 1540.0" fill="none" stroke="#4b5563" stroke-width="2" marker-end="url(#arrow)" /><rect x="318.0" y="1452.6" width="44.0" height="24.9" rx="6" ry="6" fill="#ffffff" opacity="0.92" stroke="none" /><text x="340.0" y="1468.6" fill="#111111" font-family="Arial, Helvetica, sans-serif" font-size="11" font-weight="400" text-anchor="middle"><tspan x="340.0" dy="0">&gt; 0</tspan></text>
<path d="M 485.0 1390.0 L 490.0 1540.0" fill="none" stroke="#4b5563" stroke-width="2" marker-end="url(#arrow)" /><rect x="465.5" y="1452.6" width="44.0" height="24.9" rx="6" ry="6" fill="#ffffff" opacity="0.92" stroke="none" /><text x="487.5" y="1468.6" fill="#111111" font-family="Arial, Helvetica, sans-serif" font-size="11" font-weight="400" text-anchor="middle"><tspan x="487.5" dy="0">= 0</tspan></text>
<path d="M 485.0 1390.0 L 780.0 1540.0" fill="none" stroke="#4b5563" stroke-width="2" marker-end="url(#arrow)" /><rect x="610.5" y="1452.6" width="44.0" height="24.9" rx="6" ry="6" fill="#ffffff" opacity="0.92" stroke="none" /><text x="632.5" y="1468.6" fill="#111111" font-family="Arial, Helvetica, sans-serif" font-size="11" font-weight="400" text-anchor="middle"><tspan x="632.5" dy="0">&lt; 0</tspan></text>
<path d="M 195.0 1540.0 L 490.0 1705.0" fill="none" stroke="#4b5563" stroke-width="2" marker-end="url(#arrow)" />
<path d="M 490.0 1540.0 L 490.0 1705.0" fill="none" stroke="#4b5563" stroke-width="2" marker-end="url(#arrow)" />
<path d="M 780.0 1540.0 L 490.0 1705.0" fill="none" stroke="#4b5563" stroke-width="2" marker-end="url(#arrow)" />
<path d="M 1460.0 210.0 L 1460.0 350.0" fill="none" stroke="#4b5563" stroke-width="2" marker-end="url(#arrow)" />
<path d="M 1460.0 350.0 L 1210.0 515.0" fill="none" stroke="#4b5563" stroke-width="2" marker-end="url(#arrow)" /><rect x="1313.0" y="420.1" width="44.0" height="24.9" rx="6" ry="6" fill="#ffffff" opacity="0.92" stroke="none" /><text x="1335.0" y="436.1" fill="#111111" font-family="Arial, Helvetica, sans-serif" font-size="11" font-weight="400" text-anchor="middle"><tspan x="1335.0" dy="0">DO</tspan></text>
<path d="M 1460.0 350.0 L 1520.0 515.0" fill="none" stroke="#4b5563" stroke-width="2" marker-end="url(#arrow)" /><rect x="1461.9" y="420.1" width="56.3" height="24.9" rx="6" ry="6" fill="#ffffff" opacity="0.92" stroke="none" /><text x="1490.0" y="436.1" fill="#111111" font-family="Arial, Helvetica, sans-serif" font-size="11" font-weight="400" text-anchor="middle"><tspan x="1490.0" dy="0">Manual</tspan></text>
<path d="M 1210.0 515.0 L 1440.0 690.0" fill="none" stroke="#4b5563" stroke-width="2" marker-end="url(#arrow)" />
<path d="M 1520.0 515.0 L 1440.0 690.0" fill="none" stroke="#4b5563" stroke-width="2" marker-end="url(#arrow)" />
<path d="M 1440.0 690.0 L 1460.0 850.0" fill="none" stroke="#4b5563" stroke-width="2" marker-end="url(#arrow)" />
<path d="M 1460.0 850.0 L 1200.0 850.0" fill="none" stroke="#4b5563" stroke-width="2" marker-end="url(#arrow)" /><rect x="1305.0" y="837.6" width="49.9" height="24.9" rx="6" ry="6" fill="#ffffff" opacity="0.92" stroke="none" /><text x="1330.0" y="853.6" fill="#111111" font-family="Arial, Helvetica, sans-serif" font-size="11" font-weight="400" text-anchor="middle"><tspan x="1330.0" dy="0">Belum</tspan></text>
<path d="M 1460.0 850.0 L 1460.0 1050.0" fill="none" stroke="#4b5563" stroke-width="2" marker-end="url(#arrow)" /><rect x="1435.0" y="937.6" width="49.9" height="24.9" rx="6" ry="6" fill="#ffffff" opacity="0.92" stroke="none" /><text x="1460.0" y="953.6" fill="#111111" font-family="Arial, Helvetica, sans-serif" font-size="11" font-weight="400" text-anchor="middle"><tspan x="1460.0" dy="0">Bayar</tspan></text>
<path d="M 1460.0 1050.0 L 1195.0 1055.0" fill="none" stroke="#4b5563" stroke-width="2" marker-end="url(#arrow)" /><rect x="1302.5" y="1040.1" width="49.9" height="24.9" rx="6" ry="6" fill="#ffffff" opacity="0.92" stroke="none" /><text x="1327.5" y="1056.1" fill="#111111" font-family="Arial, Helvetica, sans-serif" font-size="11" font-weight="400" text-anchor="middle"><tspan x="1327.5" dy="0">Tidak</tspan></text>
<path d="M 1460.0 1050.0 L 1530.0 1055.0" fill="none" stroke="#4b5563" stroke-width="2" marker-end="url(#arrow)" /><rect x="1470.0" y="1040.1" width="49.9" height="24.9" rx="6" ry="6" fill="#ffffff" opacity="0.92" stroke="none" /><text x="1495.0" y="1056.1" fill="#111111" font-family="Arial, Helvetica, sans-serif" font-size="11" font-weight="400" text-anchor="middle"><tspan x="1495.0" dy="0">Cukup</tspan></text>
<path d="M 1200.0 850.0 L 1445.0 1230.0" fill="none" stroke="#4b5563" stroke-width="2" marker-end="url(#arrow)" />
<path d="M 1195.0 1055.0 L 1445.0 1230.0" fill="none" stroke="#4b5563" stroke-width="2" marker-end="url(#arrow)" />
<path d="M 1530.0 1055.0 L 1445.0 1230.0" fill="none" stroke="#4b5563" stroke-width="2" marker-end="url(#arrow)" />
<path d="M 230.0 1190.0 L 90.0 1190.0 L 90.0 1030.0 L 380.0 1030.0 L 490.0 1030.0" fill="none" stroke="#4b5563" stroke-width="2" marker-end="url(#arrow)" /><rect x="83.2" y="1017.6" width="113.7" height="24.9" rx="6" ry="6" fill="#ffffff" opacity="0.92" stroke="none" /><text x="140.0" y="1033.6" fill="#111111" font-family="Arial, Helvetica, sans-serif" font-size="11" font-weight="400" text-anchor="middle"><tspan x="140.0" dy="0">Coba lagi nanti</tspan></text>
<text x="52.0" y="42.8" fill="#111111" font-family="Arial, Helvetica, sans-serif" font-size="24" font-weight="700" text-anchor="start"><tspan x="52.0" dy="0">FLOWCHART UANG JALAN TRIP DAN BORONGAN SUPIR</tspan></text>
<text x="52.0" y="68.6" fill="#666666" font-family="Arial, Helvetica, sans-serif" font-size="11" font-weight="400" text-anchor="start"><tspan x="52.0" dy="0">Dua panel dipertahankan, tapi masing-masing sudah dibuat top-down agar tetap kebaca saat ditempel ke Word.</tspan></text>
<rect x="40.0" y="110.0" width="930.0" height="1720.0" rx="12" ry="12" fill="#fafafa" stroke="#b3b3b3" stroke-width="1.5" stroke-dasharray="7 5" /><text x="505.0" y="973.9" fill="#111111" font-family="Arial, Helvetica, sans-serif" font-size="12" font-weight="400" text-anchor="middle"><tspan x="505.0" dy="0">A. UANG JALAN TRIP</tspan></text>
<rect x="1030.0" y="110.0" width="930.0" height="1720.0" rx="12" ry="12" fill="#fafafa" stroke="#b3b3b3" stroke-width="1.5" stroke-dasharray="7 5" /><text x="1495.0" y="973.9" fill="#111111" font-family="Arial, Helvetica, sans-serif" font-size="12" font-weight="400" text-anchor="middle"><tspan x="1495.0" dy="0">B. BORONGAN SUPIR</tspan></text>
<ellipse cx="490.0" cy="210.0" rx="110.0" ry="30.0" fill="#d5e8d4" stroke="#82b366" stroke-width="1.5" /><text x="490.0" y="213.9" fill="#111111" font-family="Arial, Helvetica, sans-serif" font-size="12" font-weight="700" text-anchor="middle"><tspan x="490.0" dy="0">Mulai dari DO eligible</tspan></text>
<ellipse cx="1460.0" cy="210.0" rx="130.0" ry="30.0" fill="#d5e8d4" stroke="#82b366" stroke-width="1.5" /><text x="1460.0" y="213.9" fill="#111111" font-family="Arial, Helvetica, sans-serif" font-size="12" font-weight="700" text-anchor="middle"><tspan x="1460.0" dy="0">Owner pilih DO delivered / row manual</tspan></text>
<polygon points="490.0,285.0 585.0,350.0 490.0,415.0 395.0,350.0" fill="#fff2cc" stroke="#d6b656" stroke-width="1.5" /><text x="490.0" y="353.9" fill="#111111" font-family="Arial, Helvetica, sans-serif" font-size="12" font-weight="700" text-anchor="middle"><tspan x="490.0" dy="0">DO sudah punya voucher?</tspan></text>
<polygon points="1460.0,285.0 1555.0,350.0 1460.0,415.0 1365.0,350.0" fill="#fff2cc" stroke="#d6b656" stroke-width="1.5" /><text x="1460.0" y="353.9" fill="#111111" font-family="Arial, Helvetica, sans-serif" font-size="12" font-weight="700" text-anchor="middle"><tspan x="1460.0" dy="0">Sumber row dari DO atau manual?</tspan></text>
<rect x="120.0" y="310.0" width="200.0" height="80.0" rx="12" ry="12" fill="#f8cecc" stroke="#b85450" stroke-width="1.5" /><text x="220.0" y="353.9" fill="#111111" font-family="Arial, Helvetica, sans-serif" font-size="12" font-weight="400" text-anchor="middle"><tspan x="220.0" dy="0">Tolak create voucher</tspan></text>
<rect x="1100.0" y="475.0" width="220.0" height="80.0" rx="12" ry="12" fill="#ead1dc" stroke="#c27ba0" stroke-width="1.5" /><text x="1210.0" y="510.8" fill="#111111" font-family="Arial, Helvetica, sans-serif" font-size="12" font-weight="400" text-anchor="middle"><tspan x="1210.0" dy="0">Ambil data DO valid</tspan><tspan x="1210.0" dy="16.200000000000003">dan cek belum bentrok</tspan></text>
<rect x="1410.0" y="475.0" width="220.0" height="80.0" rx="12" ry="12" fill="#ead1dc" stroke="#c27ba0" stroke-width="1.5" /><text x="1520.0" y="518.9" fill="#111111" font-family="Arial, Helvetica, sans-serif" font-size="12" font-weight="400" text-anchor="middle"><tspan x="1520.0" dy="0">Tambah row manual yang valid</tspan></text>
<rect x="370.0" y="480.0" width="240.0" height="90.0" rx="12" ry="12" fill="#ffe6cc" stroke="#d79b00" stroke-width="1.5" /><text x="490.0" y="520.8" fill="#111111" font-family="Arial, Helvetica, sans-serif" font-size="12" font-weight="700" text-anchor="middle"><tspan x="490.0" dy="0">Buat voucher dari DO</tspan><tspan x="490.0" dy="16.200000000000003">+ upah trip snapshot read-only</tspan></text>
<polygon points="490.0,620.0 580.0,685.0 490.0,750.0 400.0,685.0" fill="#fff2cc" stroke="#d6b656" stroke-width="1.5" /><text x="490.0" y="688.9" fill="#111111" font-family="Arial, Helvetica, sans-serif" font-size="12" font-weight="700" text-anchor="middle"><tspan x="490.0" dy="0">Perlu top up?</tspan></text>
<rect x="670.0" y="645.0" width="220.0" height="80.0" rx="12" ry="12" fill="#ffe6cc" stroke="#d79b00" stroke-width="1.5" /><text x="780.0" y="680.8" fill="#111111" font-family="Arial, Helvetica, sans-serif" font-size="12" font-weight="400" text-anchor="middle"><tspan x="780.0" dy="0">Top up dari rekening / kas</tspan><tspan x="780.0" dy="16.200000000000003">wajib saldo cukup</tspan></text>
<rect x="1320.0" y="650.0" width="240.0" height="80.0" rx="12" ry="12" fill="#ead1dc" stroke="#c27ba0" stroke-width="1.5" /><text x="1440.0" y="693.9" fill="#111111" font-family="Arial, Helvetica, sans-serif" font-size="12" font-weight="700" text-anchor="middle"><tspan x="1440.0" dy="0">Buat slip borongan</tspan></text>
<polygon points="1460.0,785.0 1555.0,850.0 1460.0,915.0 1365.0,850.0" fill="#fff2cc" stroke="#d6b656" stroke-width="1.5" /><text x="1460.0" y="853.9" fill="#111111" font-family="Arial, Helvetica, sans-serif" font-size="12" font-weight="700" text-anchor="middle"><tspan x="1460.0" dy="0">Bayar sekarang?</tspan></text>
<polygon points="490.0,800.0 580.0,865.0 490.0,930.0 400.0,865.0" fill="#fff2cc" stroke="#d6b656" stroke-width="1.5" /><text x="490.0" y="868.9" fill="#111111" font-family="Arial, Helvetica, sans-serif" font-size="12" font-weight="700" text-anchor="middle"><tspan x="490.0" dy="0">Ada biaya jalan?</tspan></text>
<rect x="1080.0" y="810.0" width="240.0" height="80.0" rx="12" ry="12" fill="#f5f5f5" stroke="#666666" stroke-width="1.5" /><text x="1200.0" y="845.8" fill="#111111" font-family="Arial, Helvetica, sans-serif" font-size="12" font-weight="400" text-anchor="middle"><tspan x="1200.0" dy="0">Tetap unpaid</tspan><tspan x="1200.0" dy="16.200000000000003">menunggu pembayaran owner</tspan></text>
<rect x="670.0" y="825.0" width="220.0" height="80.0" rx="12" ry="12" fill="#ffe6cc" stroke="#d79b00" stroke-width="1.5" /><text x="780.0" y="860.8" fill="#111111" font-family="Arial, Helvetica, sans-serif" font-size="12" font-weight="400" text-anchor="middle"><tspan x="780.0" dy="0">Tambah / hapus item biaya</tspan><tspan x="780.0" dy="16.200000000000003">selama voucher belum settle</tspan></text>
<polygon points="1460.0,980.0 1560.0,1050.0 1460.0,1120.0 1360.0,1050.0" fill="#fff2cc" stroke="#d6b656" stroke-width="1.5" /><text x="1460.0" y="1053.9" fill="#111111" font-family="Arial, Helvetica, sans-serif" font-size="12" font-weight="700" text-anchor="middle"><tspan x="1460.0" dy="0">Saldo rekening / kas cukup?</tspan></text>
<rect x="380.0" y="990.0" width="220.0" height="80.0" rx="12" ry="12" fill="#dae8fc" stroke="#6c8ebf" stroke-width="1.5" /><text x="490.0" y="1033.9" fill="#111111" font-family="Arial, Helvetica, sans-serif" font-size="12" font-weight="700" text-anchor="middle"><tspan x="490.0" dy="0">Proses settlement</tspan></text>
<rect x="1410.0" y="1010.0" width="240.0" height="90.0" rx="12" ry="12" fill="#dae8fc" stroke="#6c8ebf" stroke-width="1.5" /><text x="1530.0" y="1058.9" fill="#111111" font-family="Arial, Helvetica, sans-serif" font-size="12" font-weight="700" text-anchor="middle"><tspan x="1530.0" dy="0">Bayar borongan + mutasi ledger</tspan></text>
<rect x="1080.0" y="1015.0" width="230.0" height="80.0" rx="12" ry="12" fill="#f8cecc" stroke="#b85450" stroke-width="1.5" /><text x="1195.0" y="1050.8" fill="#111111" font-family="Arial, Helvetica, sans-serif" font-size="12" font-weight="400" text-anchor="middle"><tspan x="1195.0" dy="0">Tolak bayar</tspan><tspan x="1195.0" dy="16.200000000000003">overdraft tidak boleh</tspan></text>
<polygon points="490.0,1120.0 585.0,1190.0 490.0,1260.0 395.0,1190.0" fill="#fff2cc" stroke="#d6b656" stroke-width="1.5" /><text x="490.0" y="1193.9" fill="#111111" font-family="Arial, Helvetica, sans-serif" font-size="12" font-weight="700" text-anchor="middle"><tspan x="490.0" dy="0">DO bentrok borongan / lock lain?</tspan></text>
<rect x="120.0" y="1150.0" width="220.0" height="80.0" rx="12" ry="12" fill="#f8cecc" stroke="#b85450" stroke-width="1.5" /><text x="230.0" y="1193.9" fill="#111111" font-family="Arial, Helvetica, sans-serif" font-size="12" font-weight="400" text-anchor="middle"><tspan x="230.0" dy="0">Block settlement sampai bentrok selesai</tspan></text>
<ellipse cx="1445.0" cy="1230.0" rx="130.0" ry="35.0" fill="#d5e8d4" stroke="#82b366" stroke-width="1.5" /><text x="1445.0" y="1233.9" fill="#111111" font-family="Arial, Helvetica, sans-serif" font-size="12" font-weight="700" text-anchor="middle"><tspan x="1445.0" dy="0">Slip borongan PAID / UNPAID</tspan></text>
<polygon points="485.0,1320.0 575.0,1390.0 485.0,1460.0 395.0,1390.0" fill="#fff2cc" stroke="#d6b656" stroke-width="1.5" /><text x="485.0" y="1393.9" fill="#111111" font-family="Arial, Helvetica, sans-serif" font-size="12" font-weight="700" text-anchor="middle"><tspan x="485.0" dy="0">Net settlement?</tspan></text>
<rect x="90.0" y="1500.0" width="210.0" height="80.0" rx="12" ry="12" fill="#d5e8d4" stroke="#82b366" stroke-width="1.5" /><text x="195.0" y="1543.9" fill="#111111" font-family="Arial, Helvetica, sans-serif" font-size="12" font-weight="400" text-anchor="middle"><tspan x="195.0" dy="0">Perusahaan bayar driver</tspan></text>
<rect x="380.0" y="1500.0" width="220.0" height="80.0" rx="12" ry="12" fill="#f5f5f5" stroke="#666666" stroke-width="1.5" /><text x="490.0" y="1543.9" fill="#111111" font-family="Arial, Helvetica, sans-serif" font-size="12" font-weight="400" text-anchor="middle"><tspan x="490.0" dy="0">Tutup tanpa mutasi tambahan</tspan></text>
<rect x="670.0" y="1500.0" width="220.0" height="80.0" rx="12" ry="12" fill="#f8cecc" stroke="#b85450" stroke-width="1.5" /><text x="780.0" y="1543.9" fill="#111111" font-family="Arial, Helvetica, sans-serif" font-size="12" font-weight="400" text-anchor="middle"><tspan x="780.0" dy="0">Driver setor balik / repair issue</tspan></text>
<ellipse cx="490.0" cy="1705.0" rx="130.0" ry="35.0" fill="#d5e8d4" stroke="#82b366" stroke-width="1.5" /><text x="490.0" y="1700.8" fill="#111111" font-family="Arial, Helvetica, sans-serif" font-size="12" font-weight="700" text-anchor="middle"><tspan x="490.0" dy="0">Voucher settled</tspan><tspan x="490.0" dy="16.200000000000003">Top up / item / edit finansial terkunci</tspan></text>
</svg>