<svg xmlns="http://www.w3.org/2000/svg" width="1950" height="2200" viewBox="0 0 1950 2200">
<defs>
<marker id="arrow" viewBox="0 0 10 10" refX="9" refY="5" markerWidth="8" markerHeight="8" orient="auto-start-reverse">
<path d="M 0 0 L 10 5 L 0 10 z" fill="#4b5563" />
</marker>
</defs>
<rect x="0" y="0" width="1950" height="2200" fill="#ffffff" />
<path d="M 940.0 150.0 L 940.0 285.0" fill="none" stroke="#4b5563" stroke-width="2" marker-end="url(#arrow)" />
<path d="M 940.0 285.0 L 585.0 285.0" fill="none" stroke="#4b5563" stroke-width="2" marker-end="url(#arrow)" /><rect x="737.5" y="272.6" width="49.9" height="24.9" rx="6" ry="6" fill="#ffffff" opacity="0.92" stroke="none" /><text x="762.5" y="288.6" fill="#111111" font-family="Arial, Helvetica, sans-serif" font-size="11" font-weight="400" text-anchor="middle"><tspan x="762.5" dy="0">Tidak</tspan></text>
<path d="M 940.0 285.0 L 940.0 460.0" fill="none" stroke="#4b5563" stroke-width="2" marker-end="url(#arrow)" /><rect x="918.0" y="360.1" width="44.0" height="24.9" rx="6" ry="6" fill="#ffffff" opacity="0.92" stroke="none" /><text x="940.0" y="376.1" fill="#111111" font-family="Arial, Helvetica, sans-serif" font-size="11" font-weight="400" text-anchor="middle"><tspan x="940.0" dy="0">Ya</tspan></text>
<path d="M 585.0 285.0 L 940.0 460.0" fill="none" stroke="#4b5563" stroke-width="2" marker-end="url(#arrow)" /><rect x="712.0" y="360.1" width="100.9" height="24.9" rx="6" ry="6" fill="#ffffff" opacity="0.92" stroke="none" /><text x="762.5" y="376.1" fill="#111111" font-family="Arial, Helvetica, sans-serif" font-size="11" font-weight="400" text-anchor="middle"><tspan x="762.5" dy="0">Setelah beres</tspan></text>
<path d="M 940.0 460.0 L 940.0 610.0" fill="none" stroke="#4b5563" stroke-width="2" marker-end="url(#arrow)" />
<path d="M 940.0 610.0 L 1285.0 610.0" fill="none" stroke="#4b5563" stroke-width="2" marker-end="url(#arrow)" /><rect x="1090.5" y="597.6" width="44.0" height="24.9" rx="6" ry="6" fill="#ffffff" opacity="0.92" stroke="none" /><text x="1112.5" y="613.6" fill="#111111" font-family="Arial, Helvetica, sans-serif" font-size="11" font-weight="400" text-anchor="middle"><tspan x="1112.5" dy="0">Ya</tspan></text>
<path d="M 940.0 610.0 L 940.0 790.0" fill="none" stroke="#4b5563" stroke-width="2" marker-end="url(#arrow)" /><rect x="915.0" y="687.6" width="49.9" height="24.9" rx="6" ry="6" fill="#ffffff" opacity="0.92" stroke="none" /><text x="940.0" y="703.6" fill="#111111" font-family="Arial, Helvetica, sans-serif" font-size="11" font-weight="400" text-anchor="middle"><tspan x="940.0" dy="0">Tidak</tspan></text>
<path d="M 1285.0 610.0 L 940.0 790.0" fill="none" stroke="#4b5563" stroke-width="2" marker-end="url(#arrow)" />
<path d="M 940.0 790.0 L 940.0 940.0" fill="none" stroke="#4b5563" stroke-width="2" marker-end="url(#arrow)" />
<path d="M 940.0 940.0 L 1265.0 850.0" fill="none" stroke="#4b5563" stroke-width="2" marker-end="url(#arrow)" /><rect x="1071.2" y="882.6" width="62.7" height="24.9" rx="6" ry="6" fill="#ffffff" opacity="0.92" stroke="none" /><text x="1102.5" y="898.6" fill="#111111" font-family="Arial, Helvetica, sans-serif" font-size="11" font-weight="400" text-anchor="middle"><tspan x="1102.5" dy="0">Payment</tspan></text>
<path d="M 940.0 940.0 L 1275.0 965.0" fill="none" stroke="#4b5563" stroke-width="2" marker-end="url(#arrow)" /><rect x="1076.2" y="940.1" width="62.7" height="24.9" rx="6" ry="6" fill="#ffffff" opacity="0.92" stroke="none" /><text x="1107.5" y="956.1" fill="#111111" font-family="Arial, Helvetica, sans-serif" font-size="11" font-weight="400" text-anchor="middle"><tspan x="1107.5" dy="0">Receipt</tspan></text>
<path d="M 1265.0 850.0 L 940.0 1125.0" fill="none" stroke="#4b5563" stroke-width="2" marker-end="url(#arrow)" />
<path d="M 1275.0 965.0 L 940.0 1125.0" fill="none" stroke="#4b5563" stroke-width="2" marker-end="url(#arrow)" />
<path d="M 940.0 1125.0 L 940.0 1280.0" fill="none" stroke="#4b5563" stroke-width="2" marker-end="url(#arrow)" />
<path d="M 940.0 1280.0 L 595.0 1280.0" fill="none" stroke="#4b5563" stroke-width="2" marker-end="url(#arrow)" /><rect x="739.4" y="1267.6" width="56.3" height="24.9" rx="6" ry="6" fill="#ffffff" opacity="0.92" stroke="none" /><text x="767.5" y="1283.6" fill="#111111" font-family="Arial, Helvetica, sans-serif" font-size="11" font-weight="400" text-anchor="middle"><tspan x="767.5" dy="0">Kurang</tspan></text>
<path d="M 940.0 1280.0 L 940.0 1435.0" fill="none" stroke="#4b5563" stroke-width="2" marker-end="url(#arrow)" /><rect x="918.0" y="1345.1" width="44.0" height="24.9" rx="6" ry="6" fill="#ffffff" opacity="0.92" stroke="none" /><text x="940.0" y="1361.1" fill="#111111" font-family="Arial, Helvetica, sans-serif" font-size="11" font-weight="400" text-anchor="middle"><tspan x="940.0" dy="0">Pas</tspan></text>
<path d="M 940.0 1280.0 L 1270.0 1280.0" fill="none" stroke="#4b5563" stroke-width="2" marker-end="url(#arrow)" /><rect x="1080.0" y="1267.6" width="49.9" height="24.9" rx="6" ry="6" fill="#ffffff" opacity="0.92" stroke="none" /><text x="1105.0" y="1283.6" fill="#111111" font-family="Arial, Helvetica, sans-serif" font-size="11" font-weight="400" text-anchor="middle"><tspan x="1105.0" dy="0">Lebih</tspan></text>
<path d="M 1270.0 1280.0 L 1265.0 1450.0" fill="none" stroke="#4b5563" stroke-width="2" marker-end="url(#arrow)" />
<path d="M 1265.0 1450.0 L 590.0 1555.0" fill="none" stroke="#4b5563" stroke-width="2" marker-end="url(#arrow)" /><rect x="880.2" y="1490.1" width="94.6" height="24.9" rx="6" ry="6" fill="#ffffff" opacity="0.92" stroke="none" /><text x="927.5" y="1506.1" fill="#111111" font-family="Arial, Helvetica, sans-serif" font-size="11" font-weight="400" text-anchor="middle"><tspan x="927.5" dy="0">Receipt sisa</tspan></text>
<path d="M 1265.0 1450.0 L 890.0 1555.0" fill="none" stroke="#4b5563" stroke-width="2" marker-end="url(#arrow)" /><rect x="1007.9" y="1490.1" width="139.2" height="24.9" rx="6" ry="6" fill="#ffffff" opacity="0.92" stroke="none" /><text x="1077.5" y="1506.1" fill="#111111" font-family="Arial, Helvetica, sans-serif" font-size="11" font-weight="400" text-anchor="middle"><tspan x="1077.5" dy="0">Claim sesudah bayar</tspan></text>
<path d="M 590.0 1555.0 L 1245.0 1565.0" fill="none" stroke="#4b5563" stroke-width="2" marker-end="url(#arrow)" />
<path d="M 890.0 1555.0 L 1245.0 1565.0" fill="none" stroke="#4b5563" stroke-width="2" marker-end="url(#arrow)" />
<path d="M 1245.0 1565.0 L 1235.0 1780.0" fill="none" stroke="#4b5563" stroke-width="2" marker-end="url(#arrow)" />
<path d="M 1235.0 1780.0 L 580.0 1780.0" fill="none" stroke="#4b5563" stroke-width="2" marker-end="url(#arrow)" /><rect x="882.5" y="1767.6" width="49.9" height="24.9" rx="6" ry="6" fill="#ffffff" opacity="0.92" stroke="none" /><text x="907.5" y="1783.6" fill="#111111" font-family="Arial, Helvetica, sans-serif" font-size="11" font-weight="400" text-anchor="middle"><tspan x="907.5" dy="0">Belum</tspan></text>
<path d="M 1235.0 1780.0 L 1240.0 1970.0" fill="none" stroke="#4b5563" stroke-width="2" marker-end="url(#arrow)" /><rect x="1209.4" y="1862.6" width="56.3" height="24.9" rx="6" ry="6" fill="#ffffff" opacity="0.92" stroke="none" /><text x="1237.5" y="1878.6" fill="#111111" font-family="Arial, Helvetica, sans-serif" font-size="11" font-weight="400" text-anchor="middle"><tspan x="1237.5" dy="0">Refund</tspan></text>
<path d="M 1240.0 1970.0 L 895.0 1970.0" fill="none" stroke="#4b5563" stroke-width="2" marker-end="url(#arrow)" /><rect x="1023.4" y="1957.6" width="88.2" height="24.9" rx="6" ry="6" fill="#ffffff" opacity="0.92" stroke="none" /><text x="1067.5" y="1973.6" fill="#111111" font-family="Arial, Helvetica, sans-serif" font-size="11" font-weight="400" text-anchor="middle"><tspan x="1067.5" dy="0">Tidak cukup</tspan></text>
<path d="M 1240.0 1970.0 L 1520.0 1975.0" fill="none" stroke="#4b5563" stroke-width="2" marker-end="url(#arrow)" /><rect x="1355.0" y="1960.1" width="49.9" height="24.9" rx="6" ry="6" fill="#ffffff" opacity="0.92" stroke="none" /><text x="1380.0" y="1976.1" fill="#111111" font-family="Arial, Helvetica, sans-serif" font-size="11" font-weight="400" text-anchor="middle"><tspan x="1380.0" dy="0">Cukup</tspan></text>
<path d="M 595.0 1280.0 L 1240.0 2140.0" fill="none" stroke="#4b5563" stroke-width="2" marker-end="url(#arrow)" />
<path d="M 940.0 1435.0 L 1240.0 2140.0" fill="none" stroke="#4b5563" stroke-width="2" marker-end="url(#arrow)" />
<path d="M 580.0 1780.0 L 1240.0 2140.0" fill="none" stroke="#4b5563" stroke-width="2" marker-end="url(#arrow)" />
<path d="M 895.0 1970.0 L 1240.0 2140.0" fill="none" stroke="#4b5563" stroke-width="2" marker-end="url(#arrow)" />
<path d="M 1520.0 1975.0 L 1240.0 2140.0" fill="none" stroke="#4b5563" stroke-width="2" marker-end="url(#arrow)" />
<text x="52.0" y="42.8" fill="#111111" font-family="Arial, Helvetica, sans-serif" font-size="24" font-weight="700" text-anchor="start"><tspan x="52.0" dy="0">FLOWCHART NOTA, KLAIM, PAYMENT, RECEIPT, KELEBIHAN BAYAR, REFUND</tspan></text>
<text x="52.0" y="68.6" fill="#666666" font-family="Arial, Helvetica, sans-serif" font-size="11" font-weight="400" text-anchor="start"><tspan x="52.0" dy="0">Halaman ini dibuat vertikal dari create nota sampai refund. Sumber kelebihan bayar dan pilihan input payment dipisah ke samping agar cabang tetap jelas.</tspan></text>
<ellipse cx="940.0" cy="150.0" rx="90.0" ry="30.0" fill="#d5e8d4" stroke="#82b366" stroke-width="1.5" /><text x="940.0" y="153.9" fill="#111111" font-family="Arial, Helvetica, sans-serif" font-size="12" font-weight="700" text-anchor="middle"><tspan x="940.0" dy="0">Mulai dari DO delivered</tspan></text>
<polygon points="940.0,220.0 1040.0,285.0 940.0,350.0 840.0,285.0" fill="#fff2cc" stroke="#d6b656" stroke-width="1.5" /><text x="940.0" y="280.8" fill="#111111" font-family="Arial, Helvetica, sans-serif" font-size="12" font-weight="700" text-anchor="middle"><tspan x="940.0" dy="0">DO valid untuk ditagihkan?</tspan><tspan x="940.0" dy="16.200000000000003">Belum pernah masuk nota, customer konsisten</tspan></text>
<rect x="470.0" y="245.0" width="230.0" height="80.0" rx="12" ry="12" fill="#f8cecc" stroke="#b85450" stroke-width="1.5" /><text x="585.0" y="288.9" fill="#111111" font-family="Arial, Helvetica, sans-serif" font-size="12" font-weight="400" text-anchor="middle"><tspan x="585.0" dy="0">Perbaiki data DO / customer / billing dulu</tspan></text>
<rect x="830.0" y="420.0" width="220.0" height="80.0" rx="12" ry="12" fill="#dae8fc" stroke="#6c8ebf" stroke-width="1.5" /><text x="940.0" y="455.8" fill="#111111" font-family="Arial, Helvetica, sans-serif" font-size="12" font-weight="700" text-anchor="middle"><tspan x="940.0" dy="0">Buat Nota</tspan><tspan x="940.0" dy="16.200000000000003">+ hitung tagihan awal</tspan></text>
<polygon points="940.0,545.0 1030.0,610.0 940.0,675.0 850.0,610.0" fill="#fff2cc" stroke="#d6b656" stroke-width="1.5" /><text x="940.0" y="613.9" fill="#111111" font-family="Arial, Helvetica, sans-serif" font-size="12" font-weight="700" text-anchor="middle"><tspan x="940.0" dy="0">Ada claim / potongan?</tspan></text>
<rect x="1160.0" y="565.0" width="250.0" height="90.0" rx="12" ry="12" fill="#ffe6cc" stroke="#d79b00" stroke-width="1.5" /><text x="1285.0" y="605.8" fill="#111111" font-family="Arial, Helvetica, sans-serif" font-size="12" font-weight="400" text-anchor="middle"><tspan x="1285.0" dy="0">Create / edit / void / hapus klaim aktif</tspan><tspan x="1285.0" dy="16.200000000000003">boleh sebelum atau sesudah pembayaran</tspan></text>
<rect x="830.0" y="750.0" width="220.0" height="80.0" rx="12" ry="12" fill="#d5e8d4" stroke="#82b366" stroke-width="1.5" /><text x="940.0" y="793.9" fill="#111111" font-family="Arial, Helvetica, sans-serif" font-size="12" font-weight="400" text-anchor="middle"><tspan x="940.0" dy="0">Tagihan Final = Tagihan Awal - Potongan</tspan></text>
<rect x="1160.0" y="810.0" width="210.0" height="80.0" rx="12" ry="12" fill="#dae8fc" stroke="#6c8ebf" stroke-width="1.5" /><text x="1265.0" y="853.9" fill="#111111" font-family="Arial, Helvetica, sans-serif" font-size="12" font-weight="400" text-anchor="middle"><tspan x="1265.0" dy="0">Payment langsung ke 1 nota</tspan></text>
<polygon points="940.0,875.0 1030.0,940.0 940.0,1005.0 850.0,940.0" fill="#fff2cc" stroke="#d6b656" stroke-width="1.5" /><text x="940.0" y="943.9" fill="#111111" font-family="Arial, Helvetica, sans-serif" font-size="12" font-weight="700" text-anchor="middle"><tspan x="940.0" dy="0">Input uang masuk via?</tspan></text>
<rect x="1160.0" y="920.0" width="230.0" height="90.0" rx="12" ry="12" fill="#dae8fc" stroke="#6c8ebf" stroke-width="1.5" /><text x="1275.0" y="960.8" fill="#111111" font-family="Arial, Helvetica, sans-serif" font-size="12" font-weight="400" text-anchor="middle"><tspan x="1275.0" dy="0">Customer receipt</tspan><tspan x="1275.0" dy="16.200000000000003">alokasi ke 1 atau banyak nota</tspan></text>
<rect x="830.0" y="1085.0" width="220.0" height="80.0" rx="12" ry="12" fill="#d5e8d4" stroke="#82b366" stroke-width="1.5" /><text x="940.0" y="1128.9" fill="#111111" font-family="Arial, Helvetica, sans-serif" font-size="12" font-weight="700" text-anchor="middle"><tspan x="940.0" dy="0">Total paid / allocated updated</tspan></text>
<polygon points="940.0,1215.0 1045.0,1280.0 940.0,1345.0 835.0,1280.0" fill="#fff2cc" stroke="#d6b656" stroke-width="1.5" /><text x="940.0" y="1283.9" fill="#111111" font-family="Arial, Helvetica, sans-serif" font-size="12" font-weight="700" text-anchor="middle"><tspan x="940.0" dy="0">Bandingkan Total Dibayar vs Tagihan Final</tspan></text>
<rect x="470.0" y="1240.0" width="250.0" height="80.0" rx="12" ry="12" fill="#f8cecc" stroke="#b85450" stroke-width="1.5" /><text x="595.0" y="1283.9" fill="#111111" font-family="Arial, Helvetica, sans-serif" font-size="12" font-weight="400" text-anchor="middle"><tspan x="595.0" dy="0">Catat sisa piutang nota</tspan></text>
<rect x="1160.0" y="1240.0" width="220.0" height="80.0" rx="12" ry="12" fill="#ffe6cc" stroke="#d79b00" stroke-width="1.5" /><text x="1270.0" y="1283.9" fill="#111111" font-family="Arial, Helvetica, sans-serif" font-size="12" font-weight="400" text-anchor="middle"><tspan x="1270.0" dy="0">Buat kasus kelebihan bayar</tspan></text>
<polygon points="1265.0,1385.0 1365.0,1450.0 1265.0,1515.0 1165.0,1450.0" fill="#fff2cc" stroke="#d6b656" stroke-width="1.5" /><text x="1265.0" y="1453.9" fill="#111111" font-family="Arial, Helvetica, sans-serif" font-size="12" font-weight="700" text-anchor="middle"><tspan x="1265.0" dy="0">Sumber kelebihan bayar?</tspan></text>
<rect x="835.0" y="1395.0" width="210.0" height="80.0" rx="12" ry="12" fill="#d5e8d4" stroke="#82b366" stroke-width="1.5" /><text x="940.0" y="1438.9" fill="#111111" font-family="Arial, Helvetica, sans-serif" font-size="12" font-weight="400" text-anchor="middle"><tspan x="940.0" dy="0">Tutup nota sebagai lunas</tspan></text>
<rect x="470.0" y="1510.0" width="240.0" height="90.0" rx="12" ry="12" fill="#fff2cc" stroke="#d6b656" stroke-width="1.5" /><text x="590.0" y="1550.8" fill="#111111" font-family="Arial, Helvetica, sans-serif" font-size="12" font-weight="400" text-anchor="middle"><tspan x="590.0" dy="0">Receipt remainder</tspan><tspan x="590.0" dy="16.200000000000003">uang masuk lebih besar dari alokasi</tspan></text>
<rect x="780.0" y="1510.0" width="220.0" height="90.0" rx="12" ry="12" fill="#fff2cc" stroke="#d6b656" stroke-width="1.5" /><text x="890.0" y="1550.8" fill="#111111" font-family="Arial, Helvetica, sans-serif" font-size="12" font-weight="400" text-anchor="middle"><tspan x="890.0" dy="0">Invoice overpaid</tspan><tspan x="890.0" dy="16.200000000000003">claim turun setelah payment</tspan></text>
<rect x="1115.0" y="1520.0" width="260.0" height="90.0" rx="12" ry="12" fill="#f8cecc" stroke="#b85450" stroke-width="1.5" /><text x="1245.0" y="1560.8" fill="#111111" font-family="Arial, Helvetica, sans-serif" font-size="12" font-weight="700" text-anchor="middle"><tspan x="1245.0" dy="0">Catat kasus kelebihan bayar</tspan><tspan x="1245.0" dy="16.200000000000003">+ tanggal deteksi + tindak lanjut</tspan></text>
<polygon points="1235.0,1715.0 1330.0,1780.0 1235.0,1845.0 1140.0,1780.0" fill="#fff2cc" stroke="#d6b656" stroke-width="1.5" /><text x="1235.0" y="1783.9" fill="#111111" font-family="Arial, Helvetica, sans-serif" font-size="12" font-weight="700" text-anchor="middle"><tspan x="1235.0" dy="0">Refund sekarang?</tspan></text>
<rect x="470.0" y="1740.0" width="220.0" height="80.0" rx="12" ry="12" fill="#f5f5f5" stroke="#666666" stroke-width="1.5" /><text x="580.0" y="1783.9" fill="#111111" font-family="Arial, Helvetica, sans-serif" font-size="12" font-weight="400" text-anchor="middle"><tspan x="580.0" dy="0">Biarkan kasus tetap terbuka</tspan></text>
<polygon points="1240.0,1900.0 1340.0,1970.0 1240.0,2040.0 1140.0,1970.0" fill="#fff2cc" stroke="#d6b656" stroke-width="1.5" /><text x="1240.0" y="1973.9" fill="#111111" font-family="Arial, Helvetica, sans-serif" font-size="12" font-weight="700" text-anchor="middle"><tspan x="1240.0" dy="0">Saldo rekening / kas cukup?</tspan></text>
<rect x="780.0" y="1930.0" width="230.0" height="80.0" rx="12" ry="12" fill="#f8cecc" stroke="#b85450" stroke-width="1.5" /><text x="895.0" y="1973.9" fill="#111111" font-family="Arial, Helvetica, sans-serif" font-size="12" font-weight="400" text-anchor="middle"><tspan x="895.0" dy="0">Tahan refund sampai saldo cukup</tspan></text>
<rect x="1380.0" y="1930.0" width="280.0" height="90.0" rx="12" ry="12" fill="#dae8fc" stroke="#6c8ebf" stroke-width="1.5" /><text x="1520.0" y="1978.9" fill="#111111" font-family="Arial, Helvetica, sans-serif" font-size="12" font-weight="700" text-anchor="middle"><tspan x="1520.0" dy="0">Proses refund + audit log + ledger outflow</tspan></text>
<ellipse cx="1240.0" cy="2140.0" rx="120.0" ry="35.0" fill="#d5e8d4" stroke="#82b366" stroke-width="1.5" /><text x="1240.0" y="2135.8" fill="#111111" font-family="Arial, Helvetica, sans-serif" font-size="12" font-weight="700" text-anchor="middle"><tspan x="1240.0" dy="0">Selesai</tspan><tspan x="1240.0" dy="16.200000000000003">List nota, queue overpayment, bank detail, dan reports ikut berubah</tspan></text>
</svg>