<svg xmlns="http://www.w3.org/2000/svg" width="1800" height="1900" viewBox="0 0 1800 1900">
<defs>
<marker id="arrow" viewBox="0 0 10 10" refX="9" refY="5" markerWidth="8" markerHeight="8" orient="auto-start-reverse">
<path d="M 0 0 L 10 5 L 0 10 z" fill="#4b5563" />
</marker>
</defs>
<rect x="0" y="0" width="1800" height="1900" fill="#ffffff" />
<path d="M 900.0 150.0 L 900.0 330.0" fill="none" stroke="#4b5563" stroke-width="2" marker-end="url(#arrow)" />
<path d="M 900.0 330.0 L 590.0 330.0" fill="none" stroke="#4b5563" stroke-width="2" marker-end="url(#arrow)" /><rect x="720.0" y="317.6" width="49.9" height="24.9" rx="6" ry="6" fill="#ffffff" opacity="0.92" stroke="none" /><text x="745.0" y="333.6" fill="#111111" font-family="Arial, Helvetica, sans-serif" font-size="11" font-weight="400" text-anchor="middle"><tspan x="745.0" dy="0">Tidak</tspan></text>
<path d="M 900.0 330.0 L 920.0 540.0" fill="none" stroke="#4b5563" stroke-width="2" marker-end="url(#arrow)" /><rect x="885.0" y="422.6" width="49.9" height="24.9" rx="6" ry="6" fill="#ffffff" opacity="0.92" stroke="none" /><text x="910.0" y="438.6" fill="#111111" font-family="Arial, Helvetica, sans-serif" font-size="11" font-weight="400" text-anchor="middle"><tspan x="910.0" dy="0">Valid</tspan></text>
<path d="M 920.0 540.0 L 920.0 745.0" fill="none" stroke="#4b5563" stroke-width="2" marker-end="url(#arrow)" /><rect x="898.0" y="630.1" width="44.0" height="24.9" rx="6" ry="6" fill="#ffffff" opacity="0.92" stroke="none" /><text x="920.0" y="646.1" fill="#111111" font-family="Arial, Helvetica, sans-serif" font-size="11" font-weight="400" text-anchor="middle"><tspan x="920.0" dy="0">Ya</tspan></text>
<path d="M 920.0 540.0 L 920.0 970.0" fill="none" stroke="#4b5563" stroke-width="2" marker-end="url(#arrow)" /><rect x="895.0" y="742.6" width="49.9" height="24.9" rx="6" ry="6" fill="#ffffff" opacity="0.92" stroke="none" /><text x="920.0" y="758.6" fill="#111111" font-family="Arial, Helvetica, sans-serif" font-size="11" font-weight="400" text-anchor="middle"><tspan x="920.0" dy="0">Tidak</tspan></text>
<path d="M 920.0 745.0 L 600.0 745.0" fill="none" stroke="#4b5563" stroke-width="2" marker-end="url(#arrow)" /><rect x="715.9" y="732.6" width="88.2" height="24.9" rx="6" ry="6" fill="#ffffff" opacity="0.92" stroke="none" /><text x="760.0" y="748.6" fill="#111111" font-family="Arial, Helvetica, sans-serif" font-size="11" font-weight="400" text-anchor="middle"><tspan x="760.0" dy="0">Tidak cukup</tspan></text>
<path d="M 920.0 745.0 L 920.0 970.0" fill="none" stroke="#4b5563" stroke-width="2" marker-end="url(#arrow)" /><rect x="895.0" y="845.1" width="49.9" height="24.9" rx="6" ry="6" fill="#ffffff" opacity="0.92" stroke="none" /><text x="920.0" y="861.1" fill="#111111" font-family="Arial, Helvetica, sans-serif" font-size="11" font-weight="400" text-anchor="middle"><tspan x="920.0" dy="0">Cukup</tspan></text>
<path d="M 920.0 970.0 L 580.0 975.0" fill="none" stroke="#4b5563" stroke-width="2" marker-end="url(#arrow)" /><rect x="696.3" y="960.1" width="107.3" height="24.9" rx="6" ry="6" fill="#ffffff" opacity="0.92" stroke="none" /><text x="750.0" y="976.1" fill="#111111" font-family="Arial, Helvetica, sans-serif" font-size="11" font-weight="400" text-anchor="middle"><tspan x="750.0" dy="0">Bukan transfer</tspan></text>
<path d="M 920.0 970.0 L 1240.0 975.0" fill="none" stroke="#4b5563" stroke-width="2" marker-end="url(#arrow)" /><rect x="1058.0" y="960.1" width="44.0" height="24.9" rx="6" ry="6" fill="#ffffff" opacity="0.92" stroke="none" /><text x="1080.0" y="976.1" fill="#111111" font-family="Arial, Helvetica, sans-serif" font-size="11" font-weight="400" text-anchor="middle"><tspan x="1080.0" dy="0">Ya</tspan></text>
<path d="M 580.0 975.0 L 915.0 1185.0" fill="none" stroke="#4b5563" stroke-width="2" marker-end="url(#arrow)" />
<path d="M 1240.0 975.0 L 915.0 1185.0" fill="none" stroke="#4b5563" stroke-width="2" marker-end="url(#arrow)" />
<path d="M 915.0 1185.0 L 915.0 1370.0" fill="none" stroke="#4b5563" stroke-width="2" marker-end="url(#arrow)" />
<path d="M 915.0 1370.0 L 915.0 1530.0" fill="none" stroke="#4b5563" stroke-width="2" marker-end="url(#arrow)" />
<path d="M 590.0 330.0 L 915.0 1530.0" fill="none" stroke="#4b5563" stroke-width="2" marker-end="url(#arrow)" />
<path d="M 600.0 745.0 L 915.0 1530.0" fill="none" stroke="#4b5563" stroke-width="2" marker-end="url(#arrow)" />
<text x="52.0" y="42.8" fill="#111111" font-family="Arial, Helvetica, sans-serif" font-size="24" font-weight="700" text-anchor="start"><tspan x="52.0" dy="0">FLOWCHART LEDGER REKENING / KAS DAN CASHFLOW</tspan></text>
<text x="52.0" y="68.6" fill="#666666" font-family="Arial, Helvetica, sans-serif" font-size="11" font-weight="400" text-anchor="start"><tspan x="52.0" dy="0">Semua mutasi uang masuk / keluar berujung ke bank transaction. Saldo akun diturunkan dari ledger, bukan percaya snapshot mentah.</tspan></text>
<ellipse cx="900.0" cy="150.0" rx="140.0" ry="30.0" fill="#d5e8d4" stroke="#82b366" stroke-width="1.5" /><text x="900.0" y="153.9" fill="#111111" font-family="Arial, Helvetica, sans-serif" font-size="12" font-weight="700" text-anchor="middle"><tspan x="900.0" dy="0">Mulai dari transaksi finance / operasional</tspan></text>
<rect x="100.0" y="190.0" width="300.0" height="180.0" rx="12" ry="12" fill="#fff7e6" stroke="#999999" stroke-width="1.5" stroke-dasharray="7 5" /><text x="250.0" y="235.3" fill="#111111" font-family="Arial, Helvetica, sans-serif" font-size="12" font-weight="400" text-anchor="middle"><tspan x="250.0" dy="0">Sumber mutasi bisa berasal dari:</tspan><tspan x="250.0" dy="16.200000000000003">Receipt / Payment</tspan><tspan x="250.0" dy="16.200000000000003">Expense</tspan><tspan x="250.0" dy="16.200000000000003">Transfer antar rekening</tspan><tspan x="250.0" dy="16.200000000000003">Voucher / Top Up / Settlement</tspan><tspan x="250.0" dy="16.200000000000003">Borongan payment</tspan><tspan x="250.0" dy="16.200000000000003">Refund overpayment</tspan></text>
<polygon points="900.0,265.0 990.0,330.0 900.0,395.0 810.0,330.0" fill="#fff2cc" stroke="#d6b656" stroke-width="1.5" /><text x="900.0" y="333.9" fill="#111111" font-family="Arial, Helvetica, sans-serif" font-size="12" font-weight="700" text-anchor="middle"><tspan x="900.0" dy="0">Role boleh aksi dan source doc valid?</tspan></text>
<rect x="500.0" y="290.0" width="180.0" height="80.0" rx="12" ry="12" fill="#f8cecc" stroke="#b85450" stroke-width="1.5" /><text x="590.0" y="333.9" fill="#111111" font-family="Arial, Helvetica, sans-serif" font-size="12" font-weight="400" text-anchor="middle"><tspan x="590.0" dy="0">Reject / 404 / 403</tspan></text>
<polygon points="920.0,470.0 1030.0,540.0 920.0,610.0 810.0,540.0" fill="#fff2cc" stroke="#d6b656" stroke-width="1.5" /><text x="920.0" y="543.9" fill="#111111" font-family="Arial, Helvetica, sans-serif" font-size="12" font-weight="700" text-anchor="middle"><tspan x="920.0" dy="0">Mutasi mengurangi saldo akun sumber?</tspan></text>
<polygon points="920.0,675.0 1025.0,745.0 920.0,815.0 815.0,745.0" fill="#fff2cc" stroke="#d6b656" stroke-width="1.5" /><text x="920.0" y="748.9" fill="#111111" font-family="Arial, Helvetica, sans-serif" font-size="12" font-weight="700" text-anchor="middle"><tspan x="920.0" dy="0">Saldo akun sumber cukup?</tspan></text>
<rect x="500.0" y="705.0" width="200.0" height="80.0" rx="12" ry="12" fill="#f8cecc" stroke="#b85450" stroke-width="1.5" /><text x="600.0" y="748.9" fill="#111111" font-family="Arial, Helvetica, sans-serif" font-size="12" font-weight="400" text-anchor="middle"><tspan x="600.0" dy="0">Block overdraft</tspan></text>
<polygon points="920.0,900.0 1030.0,970.0 920.0,1040.0 810.0,970.0" fill="#fff2cc" stroke="#d6b656" stroke-width="1.5" /><text x="920.0" y="973.9" fill="#111111" font-family="Arial, Helvetica, sans-serif" font-size="12" font-weight="700" text-anchor="middle"><tspan x="920.0" dy="0">Transfer internal antar akun?</tspan></text>
<rect x="1120.0" y="925.0" width="240.0" height="100.0" rx="12" ry="12" fill="#dae8fc" stroke="#6c8ebf" stroke-width="1.5" /><text x="1240.0" y="970.8" fill="#111111" font-family="Arial, Helvetica, sans-serif" font-size="12" font-weight="700" text-anchor="middle"><tspan x="1240.0" dy="0">Buat debit + credit pair</tspan><tspan x="1240.0" dy="16.200000000000003">pakai transfer id unik</tspan></text>
<rect x="470.0" y="930.0" width="220.0" height="90.0" rx="12" ry="12" fill="#dae8fc" stroke="#6c8ebf" stroke-width="1.5" /><text x="580.0" y="970.8" fill="#111111" font-family="Arial, Helvetica, sans-serif" font-size="12" font-weight="400" text-anchor="middle"><tspan x="580.0" dy="0">Buat 1 bank transaction</tspan><tspan x="580.0" dy="16.200000000000003">sesuai source doc</tspan></text>
<rect x="780.0" y="1140.0" width="270.0" height="90.0" rx="12" ry="12" fill="#d5e8d4" stroke="#82b366" stroke-width="1.5" /><text x="915.0" y="1188.9" fill="#111111" font-family="Arial, Helvetica, sans-serif" font-size="12" font-weight="700" text-anchor="middle"><tspan x="915.0" dy="0">Hitung ulang saldo akun dari ledger</tspan></text>
<rect x="740.0" y="1320.0" width="350.0" height="100.0" rx="12" ry="12" fill="#e1d5e7" stroke="#9673a6" stroke-width="1.5" /><text x="915.0" y="1373.9" fill="#111111" font-family="Arial, Helvetica, sans-serif" font-size="12" font-weight="400" text-anchor="middle"><tspan x="915.0" dy="0">Propagasikan ke detail rekening, arus kas, dashboard, laporan, dan audit</tspan></text>
<ellipse cx="915.0" cy="1530.0" rx="70.0" ry="30.0" fill="#d5e8d4" stroke="#82b366" stroke-width="1.5" /><text x="915.0" y="1533.9" fill="#111111" font-family="Arial, Helvetica, sans-serif" font-size="12" font-weight="700" text-anchor="middle"><tspan x="915.0" dy="0">Selesai</tspan></text>
</svg>