<svg xmlns="http://www.w3.org/2000/svg" width="2100" height="1900" viewBox="0 0 2100 1900">
<defs>
<marker id="arrow" viewBox="0 0 10 10" refX="9" refY="5" markerWidth="8" markerHeight="8" orient="auto-start-reverse">
<path d="M 0 0 L 10 5 L 0 10 z" fill="#4b5563" />
</marker>
</defs>
<rect x="0" y="0" width="2100" height="1900" fill="#ffffff" />
<path d="M 345.0 210.0 L 345.0 350.0" fill="none" stroke="#4b5563" stroke-width="2" marker-end="url(#arrow)" />
<path d="M 345.0 350.0 L 195.0 355.0" fill="none" stroke="#4b5563" stroke-width="2" marker-end="url(#arrow)" /><rect x="245.1" y="340.1" width="49.9" height="24.9" rx="6" ry="6" fill="#ffffff" opacity="0.92" stroke="none" /><text x="270.0" y="356.1" fill="#111111" font-family="Arial, Helvetica, sans-serif" font-size="11" font-weight="400" text-anchor="middle"><tspan x="270.0" dy="0">Tidak</tspan></text>
<path d="M 345.0 350.0 L 345.0 535.0" fill="none" stroke="#4b5563" stroke-width="2" marker-end="url(#arrow)" /><rect x="320.1" y="430.1" width="49.9" height="24.9" rx="6" ry="6" fill="#ffffff" opacity="0.92" stroke="none" /><text x="345.0" y="446.1" fill="#111111" font-family="Arial, Helvetica, sans-serif" font-size="11" font-weight="400" text-anchor="middle"><tspan x="345.0" dy="0">Aktif</tspan></text>
<path d="M 345.0 535.0 L 200.0 540.0" fill="none" stroke="#4b5563" stroke-width="2" marker-end="url(#arrow)" /><rect x="247.6" y="525.1" width="49.9" height="24.9" rx="6" ry="6" fill="#ffffff" opacity="0.92" stroke="none" /><text x="272.5" y="541.1" fill="#111111" font-family="Arial, Helvetica, sans-serif" font-size="11" font-weight="400" text-anchor="middle"><tspan x="272.5" dy="0">Tidak</tspan></text>
<path d="M 345.0 535.0 L 345.0 725.0" fill="none" stroke="#4b5563" stroke-width="2" marker-end="url(#arrow)" /><rect x="320.1" y="617.6" width="49.9" height="24.9" rx="6" ry="6" fill="#ffffff" opacity="0.92" stroke="none" /><text x="345.0" y="633.6" fill="#111111" font-family="Arial, Helvetica, sans-serif" font-size="11" font-weight="400" text-anchor="middle"><tspan x="345.0" dy="0">Aktif</tspan></text>
<path d="M 195.0 355.0 L 345.0 725.0" fill="none" stroke="#4b5563" stroke-width="2" marker-end="url(#arrow)" /><rect x="219.5" y="527.6" width="100.9" height="24.9" rx="6" ry="6" fill="#ffffff" opacity="0.92" stroke="none" /><text x="270.0" y="543.6" fill="#111111" font-family="Arial, Helvetica, sans-serif" font-size="11" font-weight="400" text-anchor="middle"><tspan x="270.0" dy="0">Setelah beres</tspan></text>
<path d="M 200.0 540.0 L 345.0 725.0" fill="none" stroke="#4b5563" stroke-width="2" marker-end="url(#arrow)" /><rect x="222.0" y="620.1" width="100.9" height="24.9" rx="6" ry="6" fill="#ffffff" opacity="0.92" stroke="none" /><text x="272.5" y="636.1" fill="#111111" font-family="Arial, Helvetica, sans-serif" font-size="11" font-weight="400" text-anchor="middle"><tspan x="272.5" dy="0">Setelah beres</tspan></text>
<path d="M 345.0 725.0 L 345.0 865.0" fill="none" stroke="#4b5563" stroke-width="2" marker-end="url(#arrow)" />
<path d="M 1035.0 210.0 L 1035.0 335.0" fill="none" stroke="#4b5563" stroke-width="2" marker-end="url(#arrow)" />
<path d="M 1035.0 335.0 L 1035.0 475.0" fill="none" stroke="#4b5563" stroke-width="2" marker-end="url(#arrow)" />
<path d="M 1035.0 475.0 L 1035.0 630.0" fill="none" stroke="#4b5563" stroke-width="2" marker-end="url(#arrow)" />
<path d="M 1035.0 630.0 L 1035.0 775.0" fill="none" stroke="#4b5563" stroke-width="2" marker-end="url(#arrow)" /><rect x="1013.0" y="690.1" width="44.0" height="24.9" rx="6" ry="6" fill="#ffffff" opacity="0.92" stroke="none" /><text x="1035.0" y="706.1" fill="#111111" font-family="Arial, Helvetica, sans-serif" font-size="11" font-weight="400" text-anchor="middle"><tspan x="1035.0" dy="0">Ya</tspan></text>
<path d="M 1035.0 630.0 L 1035.0 960.0" fill="none" stroke="#4b5563" stroke-width="2" marker-end="url(#arrow)" /><rect x="1010.0" y="782.6" width="49.9" height="24.9" rx="6" ry="6" fill="#ffffff" opacity="0.92" stroke="none" /><text x="1035.0" y="798.6" fill="#111111" font-family="Arial, Helvetica, sans-serif" font-size="11" font-weight="400" text-anchor="middle"><tspan x="1035.0" dy="0">Tidak</tspan></text>
<path d="M 1035.0 775.0 L 1035.0 960.0" fill="none" stroke="#4b5563" stroke-width="2" marker-end="url(#arrow)" />
<path d="M 1035.0 960.0 L 1035.0 1095.0" fill="none" stroke="#4b5563" stroke-width="2" marker-end="url(#arrow)" />
<path d="M 1035.0 1095.0 L 870.0 1100.0" fill="none" stroke="#4b5563" stroke-width="2" marker-end="url(#arrow)" /><rect x="927.5" y="1085.1" width="49.9" height="24.9" rx="6" ry="6" fill="#ffffff" opacity="0.92" stroke="none" /><text x="952.5" y="1101.1" fill="#111111" font-family="Arial, Helvetica, sans-serif" font-size="11" font-weight="400" text-anchor="middle"><tspan x="952.5" dy="0">Tidak</tspan></text>
<path d="M 1035.0 1095.0 L 1035.0 1255.0" fill="none" stroke="#4b5563" stroke-width="2" marker-end="url(#arrow)" /><rect x="1010.0" y="1162.6" width="49.9" height="24.9" rx="6" ry="6" fill="#ffffff" opacity="0.92" stroke="none" /><text x="1035.0" y="1178.6" fill="#111111" font-family="Arial, Helvetica, sans-serif" font-size="11" font-weight="400" text-anchor="middle"><tspan x="1035.0" dy="0">Valid</tspan></text>
<path d="M 1035.0 1255.0 L 1035.0 1405.0" fill="none" stroke="#4b5563" stroke-width="2" marker-end="url(#arrow)" />
<path d="M 1035.0 1405.0 L 875.0 1410.0" fill="none" stroke="#4b5563" stroke-width="2" marker-end="url(#arrow)" /><rect x="933.0" y="1395.1" width="44.0" height="24.9" rx="6" ry="6" fill="#ffffff" opacity="0.92" stroke="none" /><text x="955.0" y="1411.1" fill="#111111" font-family="Arial, Helvetica, sans-serif" font-size="11" font-weight="400" text-anchor="middle"><tspan x="955.0" dy="0">Ya</tspan></text>
<path d="M 1035.0 1405.0 L 1170.0 1410.0" fill="none" stroke="#4b5563" stroke-width="2" marker-end="url(#arrow)" /><rect x="1077.5" y="1395.1" width="49.9" height="24.9" rx="6" ry="6" fill="#ffffff" opacity="0.92" stroke="none" /><text x="1102.5" y="1411.1" fill="#111111" font-family="Arial, Helvetica, sans-serif" font-size="11" font-weight="400" text-anchor="middle"><tspan x="1102.5" dy="0">Tidak</tspan></text>
<path d="M 875.0 1410.0 L 1170.0 1410.0" fill="none" stroke="#4b5563" stroke-width="2" marker-end="url(#arrow)" />
<path d="M 1740.0 210.0 L 1740.0 350.0" fill="none" stroke="#4b5563" stroke-width="2" marker-end="url(#arrow)" />
<path d="M 1740.0 350.0 L 1580.0 510.0" fill="none" stroke="#4b5563" stroke-width="2" marker-end="url(#arrow)" /><rect x="1635.0" y="417.6" width="49.9" height="24.9" rx="6" ry="6" fill="#ffffff" opacity="0.92" stroke="none" /><text x="1660.0" y="433.6" fill="#111111" font-family="Arial, Helvetica, sans-serif" font-size="11" font-weight="400" text-anchor="middle"><tspan x="1660.0" dy="0">Belum</tspan></text>
<path d="M 1740.0 350.0 L 1890.0 510.0" fill="none" stroke="#4b5563" stroke-width="2" marker-end="url(#arrow)" /><rect x="1786.9" y="417.6" width="56.3" height="24.9" rx="6" ry="6" fill="#ffffff" opacity="0.92" stroke="none" /><text x="1815.0" y="433.6" fill="#111111" font-family="Arial, Helvetica, sans-serif" font-size="11" font-weight="400" text-anchor="middle"><tspan x="1815.0" dy="0">Pasang</tspan></text>
<path d="M 1580.0 510.0 L 1750.0 715.0" fill="none" stroke="#4b5563" stroke-width="2" marker-end="url(#arrow)" />
<path d="M 1890.0 510.0 L 1750.0 715.0" fill="none" stroke="#4b5563" stroke-width="2" marker-end="url(#arrow)" />
<path d="M 1750.0 715.0 L 1750.0 865.0" fill="none" stroke="#4b5563" stroke-width="2" marker-end="url(#arrow)" /><rect x="1728.0" y="777.6" width="44.0" height="24.9" rx="6" ry="6" fill="#ffffff" opacity="0.92" stroke="none" /><text x="1750.0" y="793.6" fill="#111111" font-family="Arial, Helvetica, sans-serif" font-size="11" font-weight="400" text-anchor="middle"><tspan x="1750.0" dy="0">Ya</tspan></text>
<path d="M 1750.0 715.0 L 1750.0 1015.0" fill="none" stroke="#4b5563" stroke-width="2" marker-end="url(#arrow)" /><rect x="1725.0" y="852.6" width="49.9" height="24.9" rx="6" ry="6" fill="#ffffff" opacity="0.92" stroke="none" /><text x="1750.0" y="868.6" fill="#111111" font-family="Arial, Helvetica, sans-serif" font-size="11" font-weight="400" text-anchor="middle"><tspan x="1750.0" dy="0">Tidak</tspan></text>
<path d="M 1750.0 865.0 L 1750.0 1015.0" fill="none" stroke="#4b5563" stroke-width="2" marker-end="url(#arrow)" />
<path d="M 870.0 1100.0 L 720.0 1100.0 L 720.0 960.0 L 940.0 960.0 L 1035.0 960.0" fill="none" stroke="#4b5563" stroke-width="2" marker-end="url(#arrow)" /><rect x="659.7" y="947.6" width="145.6" height="24.9" rx="6" ry="6" fill="#ffffff" opacity="0.92" stroke="none" /><text x="732.5" y="963.6" fill="#111111" font-family="Arial, Helvetica, sans-serif" font-size="11" font-weight="400" text-anchor="middle"><tspan x="732.5" dy="0">Perbaiki lalu ulangi</tspan></text>
<text x="52.0" y="42.8" fill="#111111" font-family="Arial, Helvetica, sans-serif" font-size="24" font-weight="700" text-anchor="start"><tspan x="52.0" dy="0">FLOWCHART ARMADA, DRIVER, MAINTENANCE, INSIDEN, DAN BAN</tspan></text>
<text x="52.0" y="68.6" fill="#666666" font-family="Arial, Helvetica, sans-serif" font-size="11" font-weight="400" text-anchor="start"><tspan x="52.0" dy="0">Tiga panel tetap dipisah, tetapi tiap panel sekarang top-down agar pola visualnya konsisten dengan flow utama dan finance.</tspan></text>
<rect x="40.0" y="110.0" width="620.0" height="1600.0" rx="12" ry="12" fill="#fafafa" stroke="#b3b3b3" stroke-width="1.5" stroke-dasharray="7 5" /><text x="350.0" y="913.9" fill="#111111" font-family="Arial, Helvetica, sans-serif" font-size="12" font-weight="400" text-anchor="middle"><tspan x="350.0" dy="0">A. KESIAPAN DRIVER DAN KENDARAAN</tspan></text>
<rect x="740.0" y="110.0" width="620.0" height="1600.0" rx="12" ry="12" fill="#fafafa" stroke="#b3b3b3" stroke-width="1.5" stroke-dasharray="7 5" /><text x="1050.0" y="913.9" fill="#111111" font-family="Arial, Helvetica, sans-serif" font-size="12" font-weight="400" text-anchor="middle"><tspan x="1050.0" dy="0">B. MAINTENANCE DAN INSIDEN</tspan></text>
<rect x="1440.0" y="110.0" width="620.0" height="1600.0" rx="12" ry="12" fill="#fafafa" stroke="#b3b3b3" stroke-width="1.5" stroke-dasharray="7 5" /><text x="1750.0" y="913.9" fill="#111111" font-family="Arial, Helvetica, sans-serif" font-size="12" font-weight="400" text-anchor="middle"><tspan x="1750.0" dy="0">C. BAN DAN HISTORI UNIT</tspan></text>
<ellipse cx="345.0" cy="210.0" rx="100.0" ry="30.0" fill="#d5e8d4" stroke="#82b366" stroke-width="1.5" /><text x="345.0" y="213.9" fill="#111111" font-family="Arial, Helvetica, sans-serif" font-size="12" font-weight="700" text-anchor="middle"><tspan x="345.0" dy="0">Mulai setup trip</tspan></text>
<ellipse cx="1035.0" cy="210.0" rx="110.0" ry="30.0" fill="#d5e8d4" stroke="#82b366" stroke-width="1.5" /><text x="1035.0" y="213.9" fill="#111111" font-family="Arial, Helvetica, sans-serif" font-size="12" font-weight="700" text-anchor="middle"><tspan x="1035.0" dy="0">Buat maintenance</tspan></text>
<ellipse cx="1740.0" cy="210.0" rx="110.0" ry="30.0" fill="#d5e8d4" stroke="#82b366" stroke-width="1.5" /><text x="1740.0" y="213.9" fill="#111111" font-family="Arial, Helvetica, sans-serif" font-size="12" font-weight="700" text-anchor="middle"><tspan x="1740.0" dy="0">Register ban</tspan></text>
<polygon points="345.0,285.0 430.0,350.0 345.0,415.0 260.0,350.0" fill="#fff2cc" stroke="#d6b656" stroke-width="1.5" /><text x="345.0" y="353.9" fill="#111111" font-family="Arial, Helvetica, sans-serif" font-size="12" font-weight="700" text-anchor="middle"><tspan x="345.0" dy="0">Kendaraan aktif?</tspan></text>
<polygon points="1740.0,285.0 1835.0,350.0 1740.0,415.0 1645.0,350.0" fill="#fff2cc" stroke="#d6b656" stroke-width="1.5" /><text x="1740.0" y="353.9" fill="#111111" font-family="Arial, Helvetica, sans-serif" font-size="12" font-weight="700" text-anchor="middle"><tspan x="1740.0" dy="0">Ban dipasang ke unit?</tspan></text>
<rect x="905.0" y="290.0" width="260.0" height="90.0" rx="12" ry="12" fill="#fff2cc" stroke="#d6b656" stroke-width="1.5" /><text x="1035.0" y="330.8" fill="#111111" font-family="Arial, Helvetica, sans-serif" font-size="12" font-weight="400" text-anchor="middle"><tspan x="1035.0" dy="0">Tentukan basis jadwal maintenance</tspan><tspan x="1035.0" dy="16.200000000000003">date atau odometer</tspan></text>
<rect x="90.0" y="315.0" width="210.0" height="80.0" rx="12" ry="12" fill="#f8cecc" stroke="#b85450" stroke-width="1.5" /><text x="195.0" y="358.9" fill="#111111" font-family="Arial, Helvetica, sans-serif" font-size="12" font-weight="400" text-anchor="middle"><tspan x="195.0" dy="0">Aktifkan / perbaiki master unit dulu</tspan></text>
<rect x="940.0" y="435.0" width="190.0" height="80.0" rx="12" ry="12" fill="#d5e8d4" stroke="#82b366" stroke-width="1.5" /><text x="1035.0" y="478.9" fill="#111111" font-family="Arial, Helvetica, sans-serif" font-size="12" font-weight="400" text-anchor="middle"><tspan x="1035.0" dy="0">Kerjakan maintenance</tspan></text>
<polygon points="345.0,470.0 430.0,535.0 345.0,600.0 260.0,535.0" fill="#fff2cc" stroke="#d6b656" stroke-width="1.5" /><text x="345.0" y="538.9" fill="#111111" font-family="Arial, Helvetica, sans-serif" font-size="12" font-weight="700" text-anchor="middle"><tspan x="345.0" dy="0">Driver aktif?</tspan></text>
<rect x="1480.0" y="470.0" width="200.0" height="80.0" rx="12" ry="12" fill="#f5f5f5" stroke="#666666" stroke-width="1.5" /><text x="1580.0" y="513.9" fill="#111111" font-family="Arial, Helvetica, sans-serif" font-size="12" font-weight="400" text-anchor="middle"><tspan x="1580.0" dy="0">Masuk stok ban</tspan></text>
<rect x="1780.0" y="470.0" width="220.0" height="80.0" rx="12" ry="12" fill="#d5e8d4" stroke="#82b366" stroke-width="1.5" /><text x="1890.0" y="513.9" fill="#111111" font-family="Arial, Helvetica, sans-serif" font-size="12" font-weight="400" text-anchor="middle"><tspan x="1890.0" dy="0">Catat posisi ban di kendaraan</tspan></text>
<rect x="90.0" y="500.0" width="220.0" height="80.0" rx="12" ry="12" fill="#f8cecc" stroke="#b85450" stroke-width="1.5" /><text x="200.0" y="543.9" fill="#111111" font-family="Arial, Helvetica, sans-serif" font-size="12" font-weight="400" text-anchor="middle"><tspan x="200.0" dy="0">Aktifkan / perbaiki master driver dulu</tspan></text>
<polygon points="1035.0,565.0 1125.0,630.0 1035.0,695.0 945.0,630.0" fill="#fff2cc" stroke="#d6b656" stroke-width="1.5" /><text x="1035.0" y="633.9" fill="#111111" font-family="Arial, Helvetica, sans-serif" font-size="12" font-weight="700" text-anchor="middle"><tspan x="1035.0" dy="0">Perlu expense?</tspan></text>
<polygon points="1750.0,650.0 1855.0,715.0 1750.0,780.0 1645.0,715.0" fill="#fff2cc" stroke="#d6b656" stroke-width="1.5" /><text x="1750.0" y="718.9" fill="#111111" font-family="Arial, Helvetica, sans-serif" font-size="12" font-weight="700" text-anchor="middle"><tspan x="1750.0" dy="0">Ada event pindah / scrap / rusak?</tspan></text>
<rect x="230.0" y="685.0" width="230.0" height="80.0" rx="12" ry="12" fill="#d5e8d4" stroke="#82b366" stroke-width="1.5" /><text x="345.0" y="728.9" fill="#111111" font-family="Arial, Helvetica, sans-serif" font-size="12" font-weight="400" text-anchor="middle"><tspan x="345.0" dy="0">Resource boleh dipakai di DO</tspan></text>
<rect x="900.0" y="735.0" width="270.0" height="80.0" rx="12" ry="12" fill="#ffe6cc" stroke="#d79b00" stroke-width="1.5" /><text x="1035.0" y="778.9" fill="#111111" font-family="Arial, Helvetica, sans-serif" font-size="12" font-weight="400" text-anchor="middle"><tspan x="1035.0" dy="0">Buat expense terkait maintenance</tspan></text>
<rect x="210.0" y="825.0" width="270.0" height="80.0" rx="12" ry="12" fill="#dae8fc" stroke="#6c8ebf" stroke-width="1.5" /><text x="345.0" y="868.9" fill="#111111" font-family="Arial, Helvetica, sans-serif" font-size="12" font-weight="400" text-anchor="middle"><tspan x="345.0" dy="0">Buka histori driver / kendaraan / trip terkait</tspan></text>
<rect x="1625.0" y="825.0" width="250.0" height="80.0" rx="12" ry="12" fill="#dae8fc" stroke="#6c8ebf" stroke-width="1.5" /><text x="1750.0" y="868.9" fill="#111111" font-family="Arial, Helvetica, sans-serif" font-size="12" font-weight="400" text-anchor="middle"><tspan x="1750.0" dy="0">Update histori ban dan posisi</tspan></text>
<ellipse cx="1035.0" cy="960.0" rx="95.0" ry="30.0" fill="#d5e8d4" stroke="#82b366" stroke-width="1.5" /><text x="1035.0" y="963.9" fill="#111111" font-family="Arial, Helvetica, sans-serif" font-size="12" font-weight="700" text-anchor="middle"><tspan x="1035.0" dy="0">Buat incident</tspan></text>
<ellipse cx="1750.0" cy="1015.0" rx="155.0" ry="35.0" fill="#d5e8d4" stroke="#82b366" stroke-width="1.5" /><text x="1750.0" y="1018.9" fill="#111111" font-family="Arial, Helvetica, sans-serif" font-size="12" font-weight="700" text-anchor="middle"><tspan x="1750.0" dy="0">Histori unit, ban, maintenance, incident tetap konsisten</tspan></text>
<polygon points="1035.0,1030.0 1130.0,1095.0 1035.0,1160.0 940.0,1095.0" fill="#fff2cc" stroke="#d6b656" stroke-width="1.5" /><text x="1035.0" y="1098.9" fill="#111111" font-family="Arial, Helvetica, sans-serif" font-size="12" font-weight="700" text-anchor="middle"><tspan x="1035.0" dy="0">Driver &amp; kendaraan valid?</tspan></text>
<rect x="760.0" y="1060.0" width="220.0" height="80.0" rx="12" ry="12" fill="#f8cecc" stroke="#b85450" stroke-width="1.5" /><text x="870.0" y="1103.9" fill="#111111" font-family="Arial, Helvetica, sans-serif" font-size="12" font-weight="400" text-anchor="middle"><tspan x="870.0" dy="0">Tolak incident sampai master valid</tspan></text>
<rect x="940.0" y="1215.0" width="190.0" height="80.0" rx="12" ry="12" fill="#f8cecc" stroke="#b85450" stroke-width="1.5" /><text x="1035.0" y="1258.9" fill="#111111" font-family="Arial, Helvetica, sans-serif" font-size="12" font-weight="400" text-anchor="middle"><tspan x="1035.0" dy="0">Incident open</tspan></text>
<polygon points="1035.0,1340.0 1135.0,1405.0 1035.0,1470.0 935.0,1405.0" fill="#fff2cc" stroke="#d6b656" stroke-width="1.5" /><text x="1035.0" y="1408.9" fill="#111111" font-family="Arial, Helvetica, sans-serif" font-size="12" font-weight="700" text-anchor="middle"><tspan x="1035.0" dy="0">Perlu expense / perbaikan?</tspan></text>
<rect x="760.0" y="1370.0" width="230.0" height="80.0" rx="12" ry="12" fill="#ffe6cc" stroke="#d79b00" stroke-width="1.5" /><text x="875.0" y="1413.9" fill="#111111" font-family="Arial, Helvetica, sans-serif" font-size="12" font-weight="400" text-anchor="middle"><tspan x="875.0" dy="0">Buat expense terkait incident</tspan></text>
<rect x="1070.0" y="1370.0" width="200.0" height="80.0" rx="12" ry="12" fill="#d5e8d4" stroke="#82b366" stroke-width="1.5" /><text x="1170.0" y="1413.9" fill="#111111" font-family="Arial, Helvetica, sans-serif" font-size="12" font-weight="400" text-anchor="middle"><tspan x="1170.0" dy="0">Resolve incident</tspan></text>
</svg>