<svg xmlns="http://www.w3.org/2000/svg" width="2600" height="1500" viewBox="0 0 2600 1500">
<defs>
<marker id="arrow" viewBox="0 0 10 10" refX="9" refY="5" markerWidth="8" markerHeight="8" orient="auto-start-reverse">
<path d="M 0 0 L 10 5 L 0 10 z" fill="#4b5563" />
</marker>
</defs>
<rect x="0" y="0" width="2600" height="1500" fill="#ffffff" />
<path d="M 230.0 230.0 L 740.0 230.0" fill="none" stroke="#4b5563" stroke-width="2" marker-end="url(#arrow)" /><rect x="421.8" y="217.6" width="126.5" height="24.9" rx="6" ry="6" fill="#ffffff" opacity="0.92" stroke="none" /><text x="485.0" y="233.6" fill="#111111" font-family="Arial, Helvetica, sans-serif" font-size="11" font-weight="400" text-anchor="middle"><tspan x="485.0" dy="0">brief operasional</tspan></text>
<path d="M 740.0 230.0 L 1295.0 250.0" fill="none" stroke="#4b5563" stroke-width="2" marker-end="url(#arrow)" /><rect x="963.8" y="227.6" width="107.3" height="24.9" rx="6" ry="6" fill="#ffffff" opacity="0.92" stroke="none" /><text x="1017.5" y="243.6" fill="#111111" font-family="Arial, Helvetica, sans-serif" font-size="11" font-weight="400" text-anchor="middle"><tspan x="1017.5" dy="0">butuh resource</tspan></text>
<path d="M 1295.0 250.0 L 745.0 400.0" fill="none" stroke="#4b5563" stroke-width="2" marker-end="url(#arrow)" /><rect x="969.5" y="312.6" width="100.9" height="24.9" rx="6" ry="6" fill="#ffffff" opacity="0.92" stroke="none" /><text x="1020.0" y="328.6" fill="#111111" font-family="Arial, Helvetica, sans-serif" font-size="11" font-weight="400" text-anchor="middle"><tspan x="1020.0" dy="0">resource siap</tspan></text>
<path d="M 745.0 400.0 L 1795.0 350.0" fill="none" stroke="#4b5563" stroke-width="2" marker-end="url(#arrow)" /><rect x="1232.3" y="362.6" width="75.4" height="24.9" rx="6" ry="6" fill="#ffffff" opacity="0.92" stroke="none" /><text x="1270.0" y="378.6" fill="#111111" font-family="Arial, Helvetica, sans-serif" font-size="11" font-weight="400" text-anchor="middle"><tspan x="1270.0" dy="0">DO terbit</tspan></text>
<path d="M 1795.0 350.0 L 1795.0 580.0" fill="none" stroke="#4b5563" stroke-width="2" marker-end="url(#arrow)" />
<path d="M 1795.0 580.0 L 2255.0 270.0" fill="none" stroke="#4b5563" stroke-width="2" marker-end="url(#arrow)" /><rect x="1977.7" y="412.6" width="94.6" height="24.9" rx="6" ry="6" fill="#ffffff" opacity="0.92" stroke="none" /><text x="2025.0" y="428.6" fill="#111111" font-family="Arial, Helvetica, sans-serif" font-size="11" font-weight="400" text-anchor="middle"><tspan x="2025.0" dy="0">DO delivered</tspan></text>
<path d="M 2255.0 270.0 L 2255.0 545.0" fill="none" stroke="#4b5563" stroke-width="2" marker-end="url(#arrow)" /><rect x="2185.4" y="395.1" width="139.2" height="24.9" rx="6" ry="6" fill="#ffffff" opacity="0.92" stroke="none" /><text x="2255.0" y="411.1" fill="#111111" font-family="Arial, Helvetica, sans-serif" font-size="11" font-weight="400" text-anchor="middle"><tspan x="2255.0" dy="0">uang masuk / keluar</tspan></text>
<path d="M 745.0 400.0 L 760.0 605.0" fill="none" stroke="#4b5563" stroke-width="2" marker-end="url(#arrow)" /><rect x="698.8" y="490.1" width="107.3" height="24.9" rx="6" ry="6" fill="#ffffff" opacity="0.92" stroke="none" /><text x="752.5" y="506.1" fill="#111111" font-family="Arial, Helvetica, sans-serif" font-size="11" font-weight="400" text-anchor="middle"><tspan x="752.5" dy="0">bila perlu bon</tspan></text>
<path d="M 760.0 605.0 L 2255.0 545.0" fill="none" stroke="#4b5563" stroke-width="2" marker-end="url(#arrow)" /><rect x="1463.4" y="562.6" width="88.2" height="24.9" rx="6" ry="6" fill="#ffffff" opacity="0.92" stroke="none" /><text x="1507.5" y="578.6" fill="#111111" font-family="Arial, Helvetica, sans-serif" font-size="11" font-weight="400" text-anchor="middle"><tspan x="1507.5" dy="0">mutasi uang</tspan></text>
<path d="M 1295.0 545.0 L 2255.0 545.0" fill="none" stroke="#4b5563" stroke-width="2" marker-end="url(#arrow)" /><rect x="1718.2" y="532.6" width="113.7" height="24.9" rx="6" ry="6" fill="#ffffff" opacity="0.92" stroke="none" /><text x="1775.0" y="548.6" fill="#111111" font-family="Arial, Helvetica, sans-serif" font-size="11" font-weight="400" text-anchor="middle"><tspan x="1775.0" dy="0">expense terkait</tspan></text>
<path d="M 240.0 460.0 L 2255.0 545.0" fill="none" stroke="#4b5563" stroke-width="2" marker-end="url(#arrow)" /><rect x="1187.5" y="490.1" width="120.1" height="24.9" rx="6" ry="6" fill="#ffffff" opacity="0.92" stroke="none" /><text x="1247.5" y="506.1" fill="#111111" font-family="Arial, Helvetica, sans-serif" font-size="11" font-weight="400" text-anchor="middle"><tspan x="1247.5" dy="0">monitor &amp; policy</tspan></text>
<path d="M 2255.0 545.0 L 1320.0 1105.0" fill="none" stroke="#4b5563" stroke-width="2" marker-end="url(#arrow)" />
<text x="52.0" y="42.8" fill="#111111" font-family="Arial, Helvetica, sans-serif" font-size="24" font-weight="700" text-anchor="start"><tspan x="52.0" dy="0">FLOWCHART LINTAS ROLE END-TO-END</tspan></text>
<text x="52.0" y="68.6" fill="#666666" font-family="Arial, Helvetica, sans-serif" font-size="11" font-weight="400" text-anchor="start"><tspan x="52.0" dy="0">Setiap lane menunjukkan siapa yang memegang langkah utama. Ini bukan daftar akses, tapi perjalanan proses dari kiri ke kanan.</tspan></text>
<rect x="40.0" y="110.0" width="500.0" height="1180.0" rx="12" ry="12" fill="#fff2cc" stroke="#d6b656" stroke-width="1.5" /><rect x="40.0" y="110.0" width="500.0" height="34.0" rx="12" ry="12" fill="#fff2cc" stroke="#d6b656" stroke-width="1.5" /><text x="60.0" y="131.6" fill="#111111" font-family="Arial, Helvetica, sans-serif" font-size="14" font-weight="700" text-anchor="start"><tspan x="60.0" dy="0">OWNER</tspan></text>
<rect x="560.0" y="110.0" width="500.0" height="1180.0" rx="12" ry="12" fill="#f8cecc" stroke="#b85450" stroke-width="1.5" /><rect x="560.0" y="110.0" width="500.0" height="34.0" rx="12" ry="12" fill="#f8cecc" stroke="#b85450" stroke-width="1.5" /><text x="580.0" y="131.6" fill="#111111" font-family="Arial, Helvetica, sans-serif" font-size="14" font-weight="700" text-anchor="start"><tspan x="580.0" dy="0">OPERASIONAL</tspan></text>
<rect x="1080.0" y="110.0" width="500.0" height="1180.0" rx="12" ry="12" fill="#d5e8d4" stroke="#82b366" stroke-width="1.5" /><rect x="1080.0" y="110.0" width="500.0" height="34.0" rx="12" ry="12" fill="#d5e8d4" stroke="#82b366" stroke-width="1.5" /><text x="1100.0" y="131.6" fill="#111111" font-family="Arial, Helvetica, sans-serif" font-size="14" font-weight="700" text-anchor="start"><tspan x="1100.0" dy="0">ARMADA</tspan></text>
<rect x="1600.0" y="110.0" width="420.0" height="1180.0" rx="12" ry="12" fill="#e1d5e7" stroke="#9673a6" stroke-width="1.5" /><rect x="1600.0" y="110.0" width="420.0" height="34.0" rx="12" ry="12" fill="#e1d5e7" stroke="#9673a6" stroke-width="1.5" /><text x="1620.0" y="131.6" fill="#111111" font-family="Arial, Helvetica, sans-serif" font-size="14" font-weight="700" text-anchor="start"><tspan x="1620.0" dy="0">DRIVER</tspan></text>
<rect x="2040.0" y="110.0" width="500.0" height="1180.0" rx="12" ry="12" fill="#dae8fc" stroke="#6c8ebf" stroke-width="1.5" /><rect x="2040.0" y="110.0" width="500.0" height="34.0" rx="12" ry="12" fill="#dae8fc" stroke="#6c8ebf" stroke-width="1.5" /><text x="2060.0" y="131.6" fill="#111111" font-family="Arial, Helvetica, sans-serif" font-size="14" font-weight="700" text-anchor="start"><tspan x="2060.0" dy="0">FINANCE</tspan></text>
<ellipse cx="230.0" cy="230.0" rx="110.0" ry="30.0" fill="#d5e8d4" stroke="#82b366" stroke-width="1.5" /><text x="230.0" y="233.9" fill="#111111" font-family="Arial, Helvetica, sans-serif" font-size="12" font-weight="700" text-anchor="middle"><tspan x="230.0" dy="0">Set company policy, master global, audit</tspan></text>
<ellipse cx="740.0" cy="230.0" rx="90.0" ry="30.0" fill="#d5e8d4" stroke="#82b366" stroke-width="1.5" /><text x="740.0" y="233.9" fill="#111111" font-family="Arial, Helvetica, sans-serif" font-size="12" font-weight="700" text-anchor="middle"><tspan x="740.0" dy="0">Buat order / resi</tspan></text>
<ellipse cx="1295.0" cy="250.0" rx="115.0" ry="30.0" fill="#d5e8d4" stroke="#82b366" stroke-width="1.5" /><text x="1295.0" y="253.9" fill="#111111" font-family="Arial, Helvetica, sans-serif" font-size="12" font-weight="700" text-anchor="middle"><tspan x="1295.0" dy="0">Pastikan driver &amp; kendaraan siap</tspan></text>
<ellipse cx="2255.0" cy="270.0" rx="115.0" ry="30.0" fill="#d5e8d4" stroke="#82b366" stroke-width="1.5" /><text x="2255.0" y="273.9" fill="#111111" font-family="Arial, Helvetica, sans-serif" font-size="12" font-weight="700" text-anchor="middle"><tspan x="2255.0" dy="0">Buat nota / receipt / payment</tspan></text>
<ellipse cx="1795.0" cy="350.0" rx="105.0" ry="30.0" fill="#d5e8d4" stroke="#82b366" stroke-width="1.5" /><text x="1795.0" y="353.9" fill="#111111" font-family="Arial, Helvetica, sans-serif" font-size="12" font-weight="700" text-anchor="middle"><tspan x="1795.0" dy="0">Jalankan trip + tracking</tspan></text>
<rect x="650.0" y="360.0" width="190.0" height="80.0" rx="12" ry="12" fill="#f8cecc" stroke="#b85450" stroke-width="1.5" /><text x="745.0" y="403.9" fill="#111111" font-family="Arial, Helvetica, sans-serif" font-size="12" font-weight="700" text-anchor="middle"><tspan x="745.0" dy="0">Siapkan DO</tspan></text>
<rect x="120.0" y="420.0" width="240.0" height="80.0" rx="12" ry="12" fill="#fff2cc" stroke="#d6b656" stroke-width="1.5" /><text x="240.0" y="463.9" fill="#111111" font-family="Arial, Helvetica, sans-serif" font-size="12" font-weight="400" text-anchor="middle"><tspan x="240.0" dy="0">Approve override penting / pantau dashboard</tspan></text>
<rect x="1180.0" y="500.0" width="230.0" height="90.0" rx="12" ry="12" fill="#d5e8d4" stroke="#82b366" stroke-width="1.5" /><text x="1295.0" y="548.9" fill="#111111" font-family="Arial, Helvetica, sans-serif" font-size="12" font-weight="400" text-anchor="middle"><tspan x="1295.0" dy="0">Kelola maintenance / incident / tire</tspan></text>
<rect x="2140.0" y="500.0" width="230.0" height="90.0" rx="12" ry="12" fill="#dae8fc" stroke="#6c8ebf" stroke-width="1.5" /><text x="2255.0" y="548.9" fill="#111111" font-family="Arial, Helvetica, sans-serif" font-size="12" font-weight="400" text-anchor="middle"><tspan x="2255.0" dy="0">Kelola cashflow, refund, reports</tspan></text>
<rect x="1690.0" y="540.0" width="210.0" height="80.0" rx="12" ry="12" fill="#e1d5e7" stroke="#9673a6" stroke-width="1.5" /><text x="1795.0" y="583.9" fill="#111111" font-family="Arial, Helvetica, sans-serif" font-size="12" font-weight="400" text-anchor="middle"><tspan x="1795.0" dy="0">Ajukan delivered / kirim POD</tspan></text>
<rect x="650.0" y="560.0" width="220.0" height="90.0" rx="12" ry="12" fill="#ffe6cc" stroke="#d79b00" stroke-width="1.5" /><text x="760.0" y="608.9" fill="#111111" font-family="Arial, Helvetica, sans-serif" font-size="12" font-weight="400" text-anchor="middle"><tspan x="760.0" dy="0">Buat voucher / nota bila role izinnya ada</tspan></text>
<ellipse cx="1320.0" cy="1105.0" rx="160.0" ry="35.0" fill="#d5e8d4" stroke="#82b366" stroke-width="1.5" /><text x="1320.0" y="1108.9" fill="#111111" font-family="Arial, Helvetica, sans-serif" font-size="12" font-weight="700" text-anchor="middle"><tspan x="1320.0" dy="0">Semua modul sinkron ke ledger, audit, dan laporan</tspan></text>
</svg>