<svg xmlns="http://www.w3.org/2000/svg" width="2500" height="1400" viewBox="0 0 2500 1400">
<defs>
<marker id="arrow" viewBox="0 0 10 10" refX="9" refY="5" markerWidth="8" markerHeight="8" orient="auto-start-reverse">
<path d="M 0 0 L 10 5 L 0 10 z" fill="#4b5563" />
</marker>
</defs>
<rect x="0" y="0" width="2500" height="1400" fill="#ffffff" />
<path d="M 170.0 230.0 L 410.0 230.0" fill="none" stroke="#4b5563" stroke-width="2" marker-end="url(#arrow)" />
<path d="M 410.0 230.0 L 190.0 420.0" fill="none" stroke="#4b5563" stroke-width="2" marker-end="url(#arrow)" /><rect x="275.1" y="312.6" width="49.9" height="24.9" rx="6" ry="6" fill="#ffffff" opacity="0.92" stroke="none" /><text x="300.0" y="328.6" fill="#111111" font-family="Arial, Helvetica, sans-serif" font-size="11" font-weight="400" text-anchor="middle"><tspan x="300.0" dy="0">Belum</tspan></text>
<path d="M 410.0 230.0 L 400.0 420.0" fill="none" stroke="#4b5563" stroke-width="2" marker-end="url(#arrow)" /><rect x="380.1" y="312.6" width="49.9" height="24.9" rx="6" ry="6" fill="#ffffff" opacity="0.92" stroke="none" /><text x="405.0" y="328.6" fill="#111111" font-family="Arial, Helvetica, sans-serif" font-size="11" font-weight="400" text-anchor="middle"><tspan x="405.0" dy="0">Sudah</tspan></text>
<path d="M 770.0 230.0 L 990.0 230.0" fill="none" stroke="#4b5563" stroke-width="2" marker-end="url(#arrow)" />
<path d="M 990.0 230.0 L 790.0 420.0" fill="none" stroke="#4b5563" stroke-width="2" marker-end="url(#arrow)" /><rect x="865.0" y="312.6" width="49.9" height="24.9" rx="6" ry="6" fill="#ffffff" opacity="0.92" stroke="none" /><text x="890.0" y="328.6" fill="#111111" font-family="Arial, Helvetica, sans-serif" font-size="11" font-weight="400" text-anchor="middle"><tspan x="890.0" dy="0">Belum</tspan></text>
<path d="M 990.0 230.0 L 990.0 420.0" fill="none" stroke="#4b5563" stroke-width="2" marker-end="url(#arrow)" /><rect x="965.0" y="312.6" width="49.9" height="24.9" rx="6" ry="6" fill="#ffffff" opacity="0.92" stroke="none" /><text x="990.0" y="328.6" fill="#111111" font-family="Arial, Helvetica, sans-serif" font-size="11" font-weight="400" text-anchor="middle"><tspan x="990.0" dy="0">Sudah</tspan></text>
<path d="M 1385.0 230.0 L 1630.0 230.0" fill="none" stroke="#4b5563" stroke-width="2" marker-end="url(#arrow)" />
<path d="M 1630.0 230.0 L 1405.0 420.0" fill="none" stroke="#4b5563" stroke-width="2" marker-end="url(#arrow)" /><rect x="1492.5" y="312.6" width="49.9" height="24.9" rx="6" ry="6" fill="#ffffff" opacity="0.92" stroke="none" /><text x="1517.5" y="328.6" fill="#111111" font-family="Arial, Helvetica, sans-serif" font-size="11" font-weight="400" text-anchor="middle"><tspan x="1517.5" dy="0">Belum</tspan></text>
<path d="M 1630.0 230.0 L 1630.0 420.0" fill="none" stroke="#4b5563" stroke-width="2" marker-end="url(#arrow)" /><rect x="1605.0" y="312.6" width="49.9" height="24.9" rx="6" ry="6" fill="#ffffff" opacity="0.92" stroke="none" /><text x="1630.0" y="328.6" fill="#111111" font-family="Arial, Helvetica, sans-serif" font-size="11" font-weight="400" text-anchor="middle"><tspan x="1630.0" dy="0">Sudah</tspan></text>
<path d="M 1995.0 230.0 L 2220.0 230.0" fill="none" stroke="#4b5563" stroke-width="2" marker-end="url(#arrow)" />
<path d="M 2220.0 230.0 L 1985.0 420.0" fill="none" stroke="#4b5563" stroke-width="2" marker-end="url(#arrow)" /><rect x="2077.6" y="312.6" width="49.9" height="24.9" rx="6" ry="6" fill="#ffffff" opacity="0.92" stroke="none" /><text x="2102.5" y="328.6" fill="#111111" font-family="Arial, Helvetica, sans-serif" font-size="11" font-weight="400" text-anchor="middle"><tspan x="2102.5" dy="0">Cukup</tspan></text>
<path d="M 2220.0 230.0 L 2225.0 420.0" fill="none" stroke="#4b5563" stroke-width="2" marker-end="url(#arrow)" /><rect x="2197.6" y="312.6" width="49.9" height="24.9" rx="6" ry="6" fill="#ffffff" opacity="0.92" stroke="none" /><text x="2222.5" y="328.6" fill="#111111" font-family="Arial, Helvetica, sans-serif" font-size="11" font-weight="400" text-anchor="middle"><tspan x="2222.5" dy="0">Tidak</tspan></text>
<text x="52.0" y="42.8" fill="#111111" font-family="Arial, Helvetica, sans-serif" font-size="24" font-weight="700" text-anchor="start"><tspan x="52.0" dy="0">FLOWCHART GUARD DAN LOCK UTAMA</tspan></text>
<text x="52.0" y="68.6" fill="#666666" font-family="Arial, Helvetica, sans-serif" font-size="11" font-weight="400" text-anchor="start"><tspan x="52.0" dy="0">Bukan semua error message, tapi guard besar yang paling memengaruhi alur edit / delete / settlement / refund.</tspan></text>
<rect x="40.0" y="110.0" width="560.0" height="1180.0" rx="12" ry="12" fill="#fafafa" stroke="#b3b3b3" stroke-width="1.5" stroke-dasharray="7 5" /><text x="320.0" y="703.9" fill="#111111" font-family="Arial, Helvetica, sans-serif" font-size="12" font-weight="400" text-anchor="middle"><tspan x="320.0" dy="0">ORDER / RESI</tspan></text>
<rect x="640.0" y="110.0" width="560.0" height="1180.0" rx="12" ry="12" fill="#fafafa" stroke="#b3b3b3" stroke-width="1.5" stroke-dasharray="7 5" /><text x="920.0" y="703.9" fill="#111111" font-family="Arial, Helvetica, sans-serif" font-size="12" font-weight="400" text-anchor="middle"><tspan x="920.0" dy="0">SURAT JALAN</tspan></text>
<rect x="1240.0" y="110.0" width="560.0" height="1180.0" rx="12" ry="12" fill="#fafafa" stroke="#b3b3b3" stroke-width="1.5" stroke-dasharray="7 5" /><text x="1520.0" y="703.9" fill="#111111" font-family="Arial, Helvetica, sans-serif" font-size="12" font-weight="400" text-anchor="middle"><tspan x="1520.0" dy="0">VOUCHER &amp; CLAIM</tspan></text>
<rect x="1840.0" y="110.0" width="560.0" height="1180.0" rx="12" ry="12" fill="#fafafa" stroke="#b3b3b3" stroke-width="1.5" stroke-dasharray="7 5" /><text x="2120.0" y="703.9" fill="#111111" font-family="Arial, Helvetica, sans-serif" font-size="12" font-weight="400" text-anchor="middle"><tspan x="2120.0" dy="0">REFUND &amp; REKENING</tspan></text>
<polygon points="410.0,165.0 500.0,230.0 410.0,295.0 320.0,230.0" fill="#fff2cc" stroke="#d6b656" stroke-width="1.5" /><text x="410.0" y="233.9" fill="#111111" font-family="Arial, Helvetica, sans-serif" font-size="12" font-weight="700" text-anchor="middle"><tspan x="410.0" dy="0">Sudah ada DO / progress / hold blocker?</tspan></text>
<polygon points="990.0,165.0 1080.0,230.0 990.0,295.0 900.0,230.0" fill="#fff2cc" stroke="#d6b656" stroke-width="1.5" /><text x="990.0" y="233.9" fill="#111111" font-family="Arial, Helvetica, sans-serif" font-size="12" font-weight="700" text-anchor="middle"><tspan x="990.0" dy="0">Sudah ada voucher / finance link?</tspan></text>
<polygon points="1630.0,165.0 1720.0,230.0 1630.0,295.0 1540.0,230.0" fill="#fff2cc" stroke="#d6b656" stroke-width="1.5" /><text x="1630.0" y="233.9" fill="#111111" font-family="Arial, Helvetica, sans-serif" font-size="12" font-weight="700" text-anchor="middle"><tspan x="1630.0" dy="0">Sudah settled / refunded / locked?</tspan></text>
<polygon points="2220.0,165.0 2300.0,230.0 2220.0,295.0 2140.0,230.0" fill="#fff2cc" stroke="#d6b656" stroke-width="1.5" /><text x="2220.0" y="233.9" fill="#111111" font-family="Arial, Helvetica, sans-serif" font-size="12" font-weight="700" text-anchor="middle"><tspan x="2220.0" dy="0">Saldo cukup?</tspan></text>
<ellipse cx="170.0" cy="230.0" rx="70.0" ry="30.0" fill="#d5e8d4" stroke="#82b366" stroke-width="1.5" /><text x="170.0" y="233.9" fill="#111111" font-family="Arial, Helvetica, sans-serif" font-size="12" font-weight="700" text-anchor="middle"><tspan x="170.0" dy="0">Edit order?</tspan></text>
<ellipse cx="770.0" cy="230.0" rx="70.0" ry="30.0" fill="#d5e8d4" stroke="#82b366" stroke-width="1.5" /><text x="770.0" y="233.9" fill="#111111" font-family="Arial, Helvetica, sans-serif" font-size="12" font-weight="700" text-anchor="middle"><tspan x="770.0" dy="0">Edit DO?</tspan></text>
<ellipse cx="1385.0" cy="230.0" rx="85.0" ry="30.0" fill="#d5e8d4" stroke="#82b366" stroke-width="1.5" /><text x="1385.0" y="233.9" fill="#111111" font-family="Arial, Helvetica, sans-serif" font-size="12" font-weight="700" text-anchor="middle"><tspan x="1385.0" dy="0">Ubah voucher / claim?</tspan></text>
<ellipse cx="1995.0" cy="230.0" rx="95.0" ry="30.0" fill="#d5e8d4" stroke="#82b366" stroke-width="1.5" /><text x="1995.0" y="233.9" fill="#111111" font-family="Arial, Helvetica, sans-serif" font-size="12" font-weight="700" text-anchor="middle"><tspan x="1995.0" dy="0">Mutasi debit dari rekening?</tspan></text>
<rect x="100.0" y="380.0" width="180.0" height="80.0" rx="12" ry="12" fill="#d5e8d4" stroke="#82b366" stroke-width="1.5" /><text x="190.0" y="423.9" fill="#111111" font-family="Arial, Helvetica, sans-serif" font-size="12" font-weight="400" text-anchor="middle"><tspan x="190.0" dy="0">Buka edit penuh</tspan></text>
<rect x="300.0" y="380.0" width="200.0" height="80.0" rx="12" ry="12" fill="#ffe6cc" stroke="#d79b00" stroke-width="1.5" /><text x="400.0" y="423.9" fill="#111111" font-family="Arial, Helvetica, sans-serif" font-size="12" font-weight="400" text-anchor="middle"><tspan x="400.0" dy="0">Batasi ke revisi target / hold</tspan></text>
<rect x="700.0" y="380.0" width="180.0" height="80.0" rx="12" ry="12" fill="#d5e8d4" stroke="#82b366" stroke-width="1.5" /><text x="790.0" y="423.9" fill="#111111" font-family="Arial, Helvetica, sans-serif" font-size="12" font-weight="400" text-anchor="middle"><tspan x="790.0" dy="0">Buka edit field aman</tspan></text>
<rect x="900.0" y="380.0" width="180.0" height="80.0" rx="12" ry="12" fill="#f8cecc" stroke="#b85450" stroke-width="1.5" /><text x="990.0" y="423.9" fill="#111111" font-family="Arial, Helvetica, sans-serif" font-size="12" font-weight="400" text-anchor="middle"><tspan x="990.0" dy="0">Kunci field finance</tspan></text>
<rect x="1300.0" y="380.0" width="210.0" height="80.0" rx="12" ry="12" fill="#d5e8d4" stroke="#82b366" stroke-width="1.5" /><text x="1405.0" y="423.9" fill="#111111" font-family="Arial, Helvetica, sans-serif" font-size="12" font-weight="400" text-anchor="middle"><tspan x="1405.0" dy="0">Lanjut aksi voucher / klaim</tspan></text>
<rect x="1540.0" y="380.0" width="180.0" height="80.0" rx="12" ry="12" fill="#f8cecc" stroke="#b85450" stroke-width="1.5" /><text x="1630.0" y="423.9" fill="#111111" font-family="Arial, Helvetica, sans-serif" font-size="12" font-weight="400" text-anchor="middle"><tspan x="1630.0" dy="0">Blok aksi voucher / klaim</tspan></text>
<rect x="1900.0" y="380.0" width="170.0" height="80.0" rx="12" ry="12" fill="#d5e8d4" stroke="#82b366" stroke-width="1.5" /><text x="1985.0" y="423.9" fill="#111111" font-family="Arial, Helvetica, sans-serif" font-size="12" font-weight="400" text-anchor="middle"><tspan x="1985.0" dy="0">Jalankan mutasi</tspan></text>
<rect x="2140.0" y="380.0" width="170.0" height="80.0" rx="12" ry="12" fill="#f8cecc" stroke="#b85450" stroke-width="1.5" /><text x="2225.0" y="423.9" fill="#111111" font-family="Arial, Helvetica, sans-serif" font-size="12" font-weight="400" text-anchor="middle"><tspan x="2225.0" dy="0">Blok overdraft</tspan></text>
</svg>