<svg xmlns="http://www.w3.org/2000/svg" width="2500" height="1400" viewBox="0 0 2500 1400">
<defs>
<marker id="arrow" viewBox="0 0 10 10" refX="9" refY="5" markerWidth="8" markerHeight="8" orient="auto-start-reverse">
<path d="M 0 0 L 10 5 L 0 10 z" fill="#4b5563" />
</marker>
</defs>
<rect x="0" y="0" width="2500" height="1400" fill="#ffffff" />
<path d="M 195.0 250.0 L 410.0 250.0" fill="none" stroke="#4b5563" stroke-width="2" marker-end="url(#arrow)" />
<path d="M 410.0 250.0 L 195.0 450.0" fill="none" stroke="#4b5563" stroke-width="2" marker-end="url(#arrow)" /><rect x="277.6" y="337.6" width="49.9" height="24.9" rx="6" ry="6" fill="#ffffff" opacity="0.92" stroke="none" /><text x="302.5" y="353.6" fill="#111111" font-family="Arial, Helvetica, sans-serif" font-size="11" font-weight="400" text-anchor="middle"><tspan x="302.5" dy="0">Tidak</tspan></text>
<path d="M 410.0 250.0 L 405.0 450.0" fill="none" stroke="#4b5563" stroke-width="2" marker-end="url(#arrow)" /><rect x="385.5" y="337.6" width="44.0" height="24.9" rx="6" ry="6" fill="#ffffff" opacity="0.92" stroke="none" /><text x="407.5" y="353.6" fill="#111111" font-family="Arial, Helvetica, sans-serif" font-size="11" font-weight="400" text-anchor="middle"><tspan x="407.5" dy="0">Ada</tspan></text>
<path d="M 820.0 250.0 L 1060.0 250.0" fill="none" stroke="#4b5563" stroke-width="2" marker-end="url(#arrow)" />
<path d="M 1060.0 250.0 L 810.0 450.0" fill="none" stroke="#4b5563" stroke-width="2" marker-end="url(#arrow)" /><rect x="910.0" y="337.6" width="49.9" height="24.9" rx="6" ry="6" fill="#ffffff" opacity="0.92" stroke="none" /><text x="935.0" y="353.6" fill="#111111" font-family="Arial, Helvetica, sans-serif" font-size="11" font-weight="400" text-anchor="middle"><tspan x="935.0" dy="0">Belum</tspan></text>
<path d="M 1060.0 250.0 L 1060.0 450.0" fill="none" stroke="#4b5563" stroke-width="2" marker-end="url(#arrow)" /><rect x="1035.0" y="337.6" width="49.9" height="24.9" rx="6" ry="6" fill="#ffffff" opacity="0.92" stroke="none" /><text x="1060.0" y="353.6" fill="#111111" font-family="Arial, Helvetica, sans-serif" font-size="11" font-weight="400" text-anchor="middle"><tspan x="1060.0" dy="0">Sudah</tspan></text>
<path d="M 1435.0 250.0 L 1675.0 250.0" fill="none" stroke="#4b5563" stroke-width="2" marker-end="url(#arrow)" />
<path d="M 1675.0 250.0 L 1420.0 450.0" fill="none" stroke="#4b5563" stroke-width="2" marker-end="url(#arrow)" /><rect x="1522.5" y="337.6" width="49.9" height="24.9" rx="6" ry="6" fill="#ffffff" opacity="0.92" stroke="none" /><text x="1547.5" y="353.6" fill="#111111" font-family="Arial, Helvetica, sans-serif" font-size="11" font-weight="400" text-anchor="middle"><tspan x="1547.5" dy="0">Tidak</tspan></text>
<path d="M 1675.0 250.0 L 1670.0 450.0" fill="none" stroke="#4b5563" stroke-width="2" marker-end="url(#arrow)" /><rect x="1650.5" y="337.6" width="44.0" height="24.9" rx="6" ry="6" fill="#ffffff" opacity="0.92" stroke="none" /><text x="1672.5" y="353.6" fill="#111111" font-family="Arial, Helvetica, sans-serif" font-size="11" font-weight="400" text-anchor="middle"><tspan x="1672.5" dy="0">Ada</tspan></text>
<path d="M 2035.0 250.0 L 2275.0 250.0" fill="none" stroke="#4b5563" stroke-width="2" marker-end="url(#arrow)" />
<path d="M 2275.0 250.0 L 2045.0 450.0" fill="none" stroke="#4b5563" stroke-width="2" marker-end="url(#arrow)" /><rect x="2135.1" y="337.6" width="49.9" height="24.9" rx="6" ry="6" fill="#ffffff" opacity="0.92" stroke="none" /><text x="2160.0" y="353.6" fill="#111111" font-family="Arial, Helvetica, sans-serif" font-size="11" font-weight="400" text-anchor="middle"><tspan x="2160.0" dy="0">Belum</tspan></text>
<path d="M 2275.0 250.0 L 2265.0 450.0" fill="none" stroke="#4b5563" stroke-width="2" marker-end="url(#arrow)" /><rect x="2245.1" y="337.6" width="49.9" height="24.9" rx="6" ry="6" fill="#ffffff" opacity="0.92" stroke="none" /><text x="2270.0" y="353.6" fill="#111111" font-family="Arial, Helvetica, sans-serif" font-size="11" font-weight="400" text-anchor="middle"><tspan x="2270.0" dy="0">Sudah</tspan></text>
<text x="52.0" y="42.8" fill="#111111" font-family="Arial, Helvetica, sans-serif" font-size="24" font-weight="700" text-anchor="start"><tspan x="52.0" dy="0">FLOWCHART DELETE, VOID, DAN DEACTIVATE</tspan></text>
<text x="52.0" y="68.6" fill="#666666" font-family="Arial, Helvetica, sans-serif" font-size="11" font-weight="400" text-anchor="start"><tspan x="52.0" dy="0">Halaman ini memisahkan kapan data masih boleh dihapus, kapan harus void / nonaktif, dan kapan wajib ditolak.</tspan></text>
<rect x="40.0" y="110.0" width="560.0" height="1180.0" rx="12" ry="12" fill="#fafafa" stroke="#b3b3b3" stroke-width="1.5" stroke-dasharray="7 5" /><text x="320.0" y="703.9" fill="#111111" font-family="Arial, Helvetica, sans-serif" font-size="12" font-weight="400" text-anchor="middle"><tspan x="320.0" dy="0">ORDER / CUSTOMER</tspan></text>
<rect x="650.0" y="110.0" width="560.0" height="1180.0" rx="12" ry="12" fill="#fafafa" stroke="#b3b3b3" stroke-width="1.5" stroke-dasharray="7 5" /><text x="930.0" y="703.9" fill="#111111" font-family="Arial, Helvetica, sans-serif" font-size="12" font-weight="400" text-anchor="middle"><tspan x="930.0" dy="0">DO / VOUCHER / CLAIM</tspan></text>
<rect x="1260.0" y="110.0" width="560.0" height="1180.0" rx="12" ry="12" fill="#fafafa" stroke="#b3b3b3" stroke-width="1.5" stroke-dasharray="7 5" /><text x="1540.0" y="703.9" fill="#111111" font-family="Arial, Helvetica, sans-serif" font-size="12" font-weight="400" text-anchor="middle"><tspan x="1540.0" dy="0">MASTER ARMADA / REKENING</tspan></text>
<rect x="1870.0" y="110.0" width="560.0" height="1180.0" rx="12" ry="12" fill="#fafafa" stroke="#b3b3b3" stroke-width="1.5" stroke-dasharray="7 5" /><text x="2150.0" y="703.9" fill="#111111" font-family="Arial, Helvetica, sans-serif" font-size="12" font-weight="400" text-anchor="middle"><tspan x="2150.0" dy="0">BORONGAN / FINANCE</tspan></text>
<polygon points="410.0,185.0 500.0,250.0 410.0,315.0 320.0,250.0" fill="#fff2cc" stroke="#d6b656" stroke-width="1.5" /><text x="410.0" y="253.9" fill="#111111" font-family="Arial, Helvetica, sans-serif" font-size="12" font-weight="700" text-anchor="middle"><tspan x="410.0" dy="0">Ada dokumen turunan / legacy ref?</tspan></text>
<polygon points="1060.0,185.0 1150.0,250.0 1060.0,315.0 970.0,250.0" fill="#fff2cc" stroke="#d6b656" stroke-width="1.5" /><text x="1060.0" y="253.9" fill="#111111" font-family="Arial, Helvetica, sans-serif" font-size="12" font-weight="700" text-anchor="middle"><tspan x="1060.0" dy="0">Sudah jalan / settled / refunded?</tspan></text>
<polygon points="1675.0,185.0 1770.0,250.0 1675.0,315.0 1580.0,250.0" fill="#fff2cc" stroke="#d6b656" stroke-width="1.5" /><text x="1675.0" y="253.9" fill="#111111" font-family="Arial, Helvetica, sans-serif" font-size="12" font-weight="700" text-anchor="middle"><tspan x="1675.0" dy="0">Masih punya saldo / histori / relasi aktif?</tspan></text>
<polygon points="2275.0,185.0 2370.0,250.0 2275.0,315.0 2180.0,250.0" fill="#fff2cc" stroke="#d6b656" stroke-width="1.5" /><text x="2275.0" y="253.9" fill="#111111" font-family="Arial, Helvetica, sans-serif" font-size="12" font-weight="700" text-anchor="middle"><tspan x="2275.0" dy="0">Sudah ada pembayaran / refund / ledger effect?</tspan></text>
<ellipse cx="195.0" cy="250.0" rx="85.0" ry="30.0" fill="#d5e8d4" stroke="#82b366" stroke-width="1.5" /><text x="195.0" y="253.9" fill="#111111" font-family="Arial, Helvetica, sans-serif" font-size="12" font-weight="700" text-anchor="middle"><tspan x="195.0" dy="0">Hapus customer / order?</tspan></text>
<ellipse cx="820.0" cy="250.0" rx="100.0" ry="30.0" fill="#d5e8d4" stroke="#82b366" stroke-width="1.5" /><text x="820.0" y="253.9" fill="#111111" font-family="Arial, Helvetica, sans-serif" font-size="12" font-weight="700" text-anchor="middle"><tspan x="820.0" dy="0">Hapus DO / voucher / claim?</tspan></text>
<ellipse cx="1435.0" cy="250.0" rx="105.0" ry="30.0" fill="#d5e8d4" stroke="#82b366" stroke-width="1.5" /><text x="1435.0" y="253.9" fill="#111111" font-family="Arial, Helvetica, sans-serif" font-size="12" font-weight="700" text-anchor="middle"><tspan x="1435.0" dy="0">Nonaktifkan kendaraan / rekening?</tspan></text>
<ellipse cx="2035.0" cy="250.0" rx="95.0" ry="30.0" fill="#d5e8d4" stroke="#82b366" stroke-width="1.5" /><text x="2035.0" y="253.9" fill="#111111" font-family="Arial, Helvetica, sans-serif" font-size="12" font-weight="700" text-anchor="middle"><tspan x="2035.0" dy="0">Void / delete finance doc?</tspan></text>
<rect x="110.0" y="410.0" width="170.0" height="80.0" rx="12" ry="12" fill="#d5e8d4" stroke="#82b366" stroke-width="1.5" /><text x="195.0" y="453.9" fill="#111111" font-family="Arial, Helvetica, sans-serif" font-size="12" font-weight="400" text-anchor="middle"><tspan x="195.0" dy="0">Hapus data</tspan></text>
<rect x="320.0" y="410.0" width="170.0" height="80.0" rx="12" ry="12" fill="#f8cecc" stroke="#b85450" stroke-width="1.5" /><text x="405.0" y="453.9" fill="#111111" font-family="Arial, Helvetica, sans-serif" font-size="12" font-weight="400" text-anchor="middle"><tspan x="405.0" dy="0">Tolak hapus</tspan></text>
<rect x="720.0" y="410.0" width="180.0" height="80.0" rx="12" ry="12" fill="#ffe6cc" stroke="#d79b00" stroke-width="1.5" /><text x="810.0" y="453.9" fill="#111111" font-family="Arial, Helvetica, sans-serif" font-size="12" font-weight="400" text-anchor="middle"><tspan x="810.0" dy="0">Hapus klaim aktif yang aman</tspan></text>
<rect x="970.0" y="410.0" width="180.0" height="80.0" rx="12" ry="12" fill="#f8cecc" stroke="#b85450" stroke-width="1.5" /><text x="1060.0" y="453.9" fill="#111111" font-family="Arial, Helvetica, sans-serif" font-size="12" font-weight="400" text-anchor="middle"><tspan x="1060.0" dy="0">Pakai void / cancel / lock</tspan></text>
<rect x="1330.0" y="410.0" width="180.0" height="80.0" rx="12" ry="12" fill="#d5e8d4" stroke="#82b366" stroke-width="1.5" /><text x="1420.0" y="453.9" fill="#111111" font-family="Arial, Helvetica, sans-serif" font-size="12" font-weight="400" text-anchor="middle"><tspan x="1420.0" dy="0">Nonaktifkan master</tspan></text>
<rect x="1580.0" y="410.0" width="180.0" height="80.0" rx="12" ry="12" fill="#f8cecc" stroke="#b85450" stroke-width="1.5" /><text x="1670.0" y="453.9" fill="#111111" font-family="Arial, Helvetica, sans-serif" font-size="12" font-weight="400" text-anchor="middle"><tspan x="1670.0" dy="0">Tolak nonaktif</tspan></text>
<rect x="1940.0" y="410.0" width="210.0" height="80.0" rx="12" ry="12" fill="#d5e8d4" stroke="#82b366" stroke-width="1.5" /><text x="2045.0" y="453.9" fill="#111111" font-family="Arial, Helvetica, sans-serif" font-size="12" font-weight="400" text-anchor="middle"><tspan x="2045.0" dy="0">Hapus dokumen yang belum berdampak</tspan></text>
<rect x="2180.0" y="410.0" width="170.0" height="80.0" rx="12" ry="12" fill="#f8cecc" stroke="#b85450" stroke-width="1.5" /><text x="2265.0" y="453.9" fill="#111111" font-family="Arial, Helvetica, sans-serif" font-size="12" font-weight="400" text-anchor="middle"><tspan x="2265.0" dy="0">Pakai void / block</tspan></text>
</svg>