<svg xmlns="http://www.w3.org/2000/svg" width="2500" height="1400" viewBox="0 0 2500 1400">
<defs>
<marker id="arrow" viewBox="0 0 10 10" refX="9" refY="5" markerWidth="8" markerHeight="8" orient="auto-start-reverse">
<path d="M 0 0 L 10 5 L 0 10 z" fill="#4b5563" />
</marker>
</defs>
<rect x="0" y="0" width="2500" height="1400" fill="#ffffff" />
<path d="M 160.0 270.0 L 410.0 270.0" fill="none" stroke="#4b5563" stroke-width="2" marker-end="url(#arrow)" />
<path d="M 410.0 270.0 L 690.0 270.0" fill="none" stroke="#4b5563" stroke-width="2" marker-end="url(#arrow)" /><rect x="525.0" y="257.6" width="49.9" height="24.9" rx="6" ry="6" fill="#ffffff" opacity="0.92" stroke="none" /><text x="550.0" y="273.6" fill="#111111" font-family="Arial, Helvetica, sans-serif" font-size="11" font-weight="400" text-anchor="middle"><tspan x="550.0" dy="0">Tidak</tspan></text>
<path d="M 410.0 270.0 L 970.0 270.0" fill="none" stroke="#4b5563" stroke-width="2" marker-end="url(#arrow)" /><rect x="668.0" y="257.6" width="44.0" height="24.9" rx="6" ry="6" fill="#ffffff" opacity="0.92" stroke="none" /><text x="690.0" y="273.6" fill="#111111" font-family="Arial, Helvetica, sans-serif" font-size="11" font-weight="400" text-anchor="middle"><tspan x="690.0" dy="0">Ya</tspan></text>
<path d="M 970.0 270.0 L 1225.0 270.0" fill="none" stroke="#4b5563" stroke-width="2" marker-end="url(#arrow)" />
<path d="M 1225.0 270.0 L 1495.0 210.0" fill="none" stroke="#4b5563" stroke-width="2" marker-end="url(#arrow)" /><rect x="1335.0" y="227.6" width="49.9" height="24.9" rx="6" ry="6" fill="#ffffff" opacity="0.92" stroke="none" /><text x="1360.0" y="243.6" fill="#111111" font-family="Arial, Helvetica, sans-serif" font-size="11" font-weight="400" text-anchor="middle"><tspan x="1360.0" dy="0">Punya</tspan></text>
<path d="M 1225.0 270.0 L 1505.0 330.0" fill="none" stroke="#4b5563" stroke-width="2" marker-end="url(#arrow)" /><rect x="1340.0" y="287.6" width="49.9" height="24.9" rx="6" ry="6" fill="#ffffff" opacity="0.92" stroke="none" /><text x="1365.0" y="303.6" fill="#111111" font-family="Arial, Helvetica, sans-serif" font-size="11" font-weight="400" text-anchor="middle"><tspan x="1365.0" dy="0">Tidak</tspan></text>
<path d="M 1495.0 210.0 L 1790.0 270.0" fill="none" stroke="#4b5563" stroke-width="2" marker-end="url(#arrow)" />
<path d="M 1505.0 330.0 L 1790.0 270.0" fill="none" stroke="#4b5563" stroke-width="2" marker-end="url(#arrow)" />
<path d="M 1790.0 270.0 L 2040.0 210.0" fill="none" stroke="#4b5563" stroke-width="2" marker-end="url(#arrow)" /><rect x="1890.0" y="227.6" width="49.9" height="24.9" rx="6" ry="6" fill="#ffffff" opacity="0.92" stroke="none" /><text x="1915.0" y="243.6" fill="#111111" font-family="Arial, Helvetica, sans-serif" font-size="11" font-weight="400" text-anchor="middle"><tspan x="1915.0" dy="0">Boleh</tspan></text>
<path d="M 1790.0 270.0 L 2060.0 330.0" fill="none" stroke="#4b5563" stroke-width="2" marker-end="url(#arrow)" /><rect x="1890.5" y="287.6" width="69.0" height="24.9" rx="6" ry="6" fill="#ffffff" opacity="0.92" stroke="none" /><text x="1925.0" y="303.6" fill="#111111" font-family="Arial, Helvetica, sans-serif" font-size="11" font-weight="400" text-anchor="middle"><tspan x="1925.0" dy="0">Sensitif</tspan></text>
<path d="M 690.0 270.0 L 2335.0 270.0" fill="none" stroke="#4b5563" stroke-width="2" marker-end="url(#arrow)" />
<path d="M 2040.0 210.0 L 2335.0 270.0" fill="none" stroke="#4b5563" stroke-width="2" marker-end="url(#arrow)" />
<path d="M 2060.0 330.0 L 2335.0 270.0" fill="none" stroke="#4b5563" stroke-width="2" marker-end="url(#arrow)" />
<text x="52.0" y="42.8" fill="#111111" font-family="Arial, Helvetica, sans-serif" font-size="24" font-weight="700" text-anchor="start"><tspan x="52.0" dy="0">FLOWCHART KEPUTUSAN AKSES ROLE</tspan></text>
<text x="52.0" y="68.6" fill="#666666" font-family="Arial, Helvetica, sans-serif" font-size="11" font-weight="400" text-anchor="start"><tspan x="52.0" dy="0">Menjelaskan kenapa beberapa link tampil clickable untuk satu role, tapi hanya teks biasa atau redirect untuk role lain.</tspan></text>
<rect x="1400.0" y="170.0" width="190.0" height="80.0" rx="12" ry="12" fill="#dae8fc" stroke="#6c8ebf" stroke-width="1.5" /><text x="1495.0" y="213.9" fill="#111111" font-family="Arial, Helvetica, sans-serif" font-size="12" font-weight="400" text-anchor="middle"><tspan x="1495.0" dy="0">Render hyperlink aktif</tspan></text>
<rect x="1950.0" y="170.0" width="180.0" height="80.0" rx="12" ry="12" fill="#d5e8d4" stroke="#82b366" stroke-width="1.5" /><text x="2040.0" y="213.9" fill="#111111" font-family="Arial, Helvetica, sans-serif" font-size="12" font-weight="400" text-anchor="middle"><tspan x="2040.0" dy="0">Render nominal penuh</tspan></text>
<polygon points="410.0,205.0 500.0,270.0 410.0,335.0 320.0,270.0" fill="#fff2cc" stroke="#d6b656" stroke-width="1.5" /><text x="410.0" y="273.9" fill="#111111" font-family="Arial, Helvetica, sans-serif" font-size="12" font-weight="700" text-anchor="middle"><tspan x="410.0" dy="0">Role punya izin halaman?</tspan></text>
<polygon points="1225.0,205.0 1320.0,270.0 1225.0,335.0 1130.0,270.0" fill="#fff2cc" stroke="#d6b656" stroke-width="1.5" /><text x="1225.0" y="273.9" fill="#111111" font-family="Arial, Helvetica, sans-serif" font-size="12" font-weight="700" text-anchor="middle"><tspan x="1225.0" dy="0">Role punya izin dokumen relasi?</tspan></text>
<polygon points="1790.0,205.0 1880.0,270.0 1790.0,335.0 1700.0,270.0" fill="#fff2cc" stroke="#d6b656" stroke-width="1.5" /><text x="1790.0" y="273.9" fill="#111111" font-family="Arial, Helvetica, sans-serif" font-size="12" font-weight="700" text-anchor="middle"><tspan x="1790.0" dy="0">Data finance sensitif?</tspan></text>
<rect x="580.0" y="230.0" width="220.0" height="80.0" rx="12" ry="12" fill="#f8cecc" stroke="#b85450" stroke-width="1.5" /><text x="690.0" y="273.9" fill="#111111" font-family="Arial, Helvetica, sans-serif" font-size="12" font-weight="400" text-anchor="middle"><tspan x="690.0" dy="0">Redirect / block query sensitif</tspan></text>
<rect x="880.0" y="230.0" width="180.0" height="80.0" rx="12" ry="12" fill="#d5e8d4" stroke="#82b366" stroke-width="1.5" /><text x="970.0" y="273.9" fill="#111111" font-family="Arial, Helvetica, sans-serif" font-size="12" font-weight="400" text-anchor="middle"><tspan x="970.0" dy="0">Buka halaman</tspan></text>
<ellipse cx="2335.0" cy="270.0" rx="95.0" ry="35.0" fill="#d5e8d4" stroke="#82b366" stroke-width="1.5" /><text x="2335.0" y="273.9" fill="#111111" font-family="Arial, Helvetica, sans-serif" font-size="12" font-weight="700" text-anchor="middle"><tspan x="2335.0" dy="0">UI tetap nyambung tanpa bocor akses</tspan></text>
<ellipse cx="160.0" cy="270.0" rx="90.0" ry="30.0" fill="#d5e8d4" stroke="#82b366" stroke-width="1.5" /><text x="160.0" y="273.9" fill="#111111" font-family="Arial, Helvetica, sans-serif" font-size="12" font-weight="700" text-anchor="middle"><tspan x="160.0" dy="0">User buka halaman / detail</tspan></text>
<rect x="1400.0" y="290.0" width="210.0" height="80.0" rx="12" ry="12" fill="#f5f5f5" stroke="#666666" stroke-width="1.5" /><text x="1505.0" y="333.9" fill="#111111" font-family="Arial, Helvetica, sans-serif" font-size="12" font-weight="400" text-anchor="middle"><tspan x="1505.0" dy="0">Render teks / summary aman</tspan></text>
<rect x="1950.0" y="290.0" width="220.0" height="80.0" rx="12" ry="12" fill="#fff2cc" stroke="#d6b656" stroke-width="1.5" /><text x="2060.0" y="333.9" fill="#111111" font-family="Arial, Helvetica, sans-serif" font-size="12" font-weight="400" text-anchor="middle"><tspan x="2060.0" dy="0">Sembunyikan nominal sensitif</tspan></text>
</svg>