<svg xmlns="http://www.w3.org/2000/svg" width="1900" height="1900" viewBox="0 0 1900 1900">
<defs>
<marker id="arrow" viewBox="0 0 10 10" refX="9" refY="5" markerWidth="8" markerHeight="8" orient="auto-start-reverse">
<path d="M 0 0 L 10 5 L 0 10 z" fill="#4b5563" />
</marker>
</defs>
<rect x="0" y="0" width="1900" height="1900" fill="#ffffff" />
<path d="M 950.0 150.0 L 950.0 345.0" fill="none" stroke="#4b5563" stroke-width="2" marker-end="url(#arrow)" />
<path d="M 950.0 345.0 L 950.0 470.0" fill="none" stroke="#4b5563" stroke-width="2" marker-end="url(#arrow)" />
<path d="M 950.0 470.0 L 950.0 605.0" fill="none" stroke="#4b5563" stroke-width="2" marker-end="url(#arrow)" />
<path d="M 950.0 605.0 L 950.0 735.0" fill="none" stroke="#4b5563" stroke-width="2" marker-end="url(#arrow)" />
<path d="M 950.0 735.0 L 950.0 910.0" fill="none" stroke="#4b5563" stroke-width="2" marker-end="url(#arrow)" />
<path d="M 950.0 910.0 L 580.0 1085.0" fill="none" stroke="#4b5563" stroke-width="2" marker-end="url(#arrow)" /><rect x="743.0" y="985.1" width="44.0" height="24.9" rx="6" ry="6" fill="#ffffff" opacity="0.92" stroke="none" /><text x="765.0" y="1001.1" fill="#111111" font-family="Arial, Helvetica, sans-serif" font-size="11" font-weight="400" text-anchor="middle"><tspan x="765.0" dy="0">Trip</tspan></text>
<path d="M 950.0 910.0 L 950.0 1085.0" fill="none" stroke="#4b5563" stroke-width="2" marker-end="url(#arrow)" /><rect x="918.7" y="985.1" width="62.7" height="24.9" rx="6" ry="6" fill="#ffffff" opacity="0.92" stroke="none" /><text x="950.0" y="1001.1" fill="#111111" font-family="Arial, Helvetica, sans-serif" font-size="11" font-weight="400" text-anchor="middle"><tspan x="950.0" dy="0">Finance</tspan></text>
<path d="M 950.0 910.0 L 1360.0 1085.0" fill="none" stroke="#4b5563" stroke-width="2" marker-end="url(#arrow)" /><rect x="1130.0" y="985.1" width="49.9" height="24.9" rx="6" ry="6" fill="#ffffff" opacity="0.92" stroke="none" /><text x="1155.0" y="1001.1" fill="#111111" font-family="Arial, Helvetica, sans-serif" font-size="11" font-weight="400" text-anchor="middle"><tspan x="1155.0" dy="0">Fleet</tspan></text>
<path d="M 580.0 1085.0 L 950.0 1315.0" fill="none" stroke="#4b5563" stroke-width="2" marker-end="url(#arrow)" />
<path d="M 950.0 1085.0 L 950.0 1315.0" fill="none" stroke="#4b5563" stroke-width="2" marker-end="url(#arrow)" />
<path d="M 1360.0 1085.0 L 950.0 1315.0" fill="none" stroke="#4b5563" stroke-width="2" marker-end="url(#arrow)" />
<path d="M 950.0 1315.0 L 950.0 1485.0" fill="none" stroke="#4b5563" stroke-width="2" marker-end="url(#arrow)" />
<text x="52.0" y="42.8" fill="#111111" font-family="Arial, Helvetica, sans-serif" font-size="24" font-weight="700" text-anchor="start"><tspan x="52.0" dy="0">APPENDIX FLOW DEPENDENCY MASTER DAN MODUL</tspan></text>
<text x="52.0" y="68.6" fill="#666666" font-family="Arial, Helvetica, sans-serif" font-size="11" font-weight="400" text-anchor="start"><tspan x="52.0" dy="0">Halaman appendix ini tetap bersifat referensi, tetapi saya ubah jadi flow dependency agar lebih konsisten dengan halaman flowchart lain.</tspan></text>
<ellipse cx="950.0" cy="150.0" rx="140.0" ry="30.0" fill="#d5e8d4" stroke="#82b366" stroke-width="1.5" /><text x="950.0" y="153.9" fill="#111111" font-family="Arial, Helvetica, sans-serif" font-size="12" font-weight="700" text-anchor="middle"><tspan x="950.0" dy="0">Mulai dari kebutuhan modul operasional</tspan></text>
<rect x="100.0" y="180.0" width="290.0" height="150.0" rx="12" ry="12" fill="#fff7e6" stroke="#999999" stroke-width="1.5" stroke-dasharray="7 5" /><text x="245.0" y="234.6" fill="#111111" font-family="Arial, Helvetica, sans-serif" font-size="12" font-weight="400" text-anchor="middle"><tspan x="245.0" dy="0">Master global yang menopang banyak modul:</tspan><tspan x="245.0" dy="16.200000000000003">Company / branding</tspan><tspan x="245.0" dy="16.200000000000003">Rekening / kas</tspan><tspan x="245.0" dy="16.200000000000003">User policy / akses</tspan></text>
<rect x="760.0" y="300.0" width="380.0" height="90.0" rx="12" ry="12" fill="#dae8fc" stroke="#6c8ebf" stroke-width="1.5" /><text x="950.0" y="348.9" fill="#111111" font-family="Arial, Helvetica, sans-serif" font-size="12" font-weight="400" text-anchor="middle"><tspan x="950.0" dy="0">Lengkapi customer, pickup / recipient, dan produk customer</tspan></text>
<rect x="820.0" y="430.0" width="260.0" height="80.0" rx="12" ry="12" fill="#f8cecc" stroke="#b85450" stroke-width="1.5" /><text x="950.0" y="473.9" fill="#111111" font-family="Arial, Helvetica, sans-serif" font-size="12" font-weight="700" text-anchor="middle"><tspan x="950.0" dy="0">Order / Resi siap dipakai</tspan></text>
<rect x="775.0" y="560.0" width="350.0" height="90.0" rx="12" ry="12" fill="#d5e8d4" stroke="#82b366" stroke-width="1.5" /><text x="950.0" y="608.9" fill="#111111" font-family="Arial, Helvetica, sans-serif" font-size="12" font-weight="400" text-anchor="middle"><tspan x="950.0" dy="0">Lengkapi driver, kendaraan, dan tarif rute trip</tspan></text>
<rect x="820.0" y="695.0" width="260.0" height="80.0" rx="12" ry="12" fill="#f8cecc" stroke="#b85450" stroke-width="1.5" /><text x="950.0" y="738.9" fill="#111111" font-family="Arial, Helvetica, sans-serif" font-size="12" font-weight="700" text-anchor="middle"><tspan x="950.0" dy="0">DO / Surat Jalan siap dipakai</tspan></text>
<polygon points="950.0,835.0 1085.0,910.0 950.0,985.0 815.0,910.0" fill="#fff2cc" stroke="#d6b656" stroke-width="1.5" /><text x="950.0" y="913.9" fill="#111111" font-family="Arial, Helvetica, sans-serif" font-size="12" font-weight="700" text-anchor="middle"><tspan x="950.0" dy="0">Modul turunan mana yang perlu berjalan?</tspan></text>
<rect x="1200.0" y="1040.0" width="320.0" height="90.0" rx="12" ry="12" fill="#d5e8d4" stroke="#82b366" stroke-width="1.5" /><text x="1360.0" y="1088.9" fill="#111111" font-family="Arial, Helvetica, sans-serif" font-size="12" font-weight="400" text-anchor="middle"><tspan x="1360.0" dy="0">Expense / Maintenance / Incident / Tire</tspan></text>
<rect x="470.0" y="1045.0" width="220.0" height="80.0" rx="12" ry="12" fill="#ffe6cc" stroke="#d79b00" stroke-width="1.5" /><text x="580.0" y="1088.9" fill="#111111" font-family="Arial, Helvetica, sans-serif" font-size="12" font-weight="400" text-anchor="middle"><tspan x="580.0" dy="0">Voucher / Borongan</tspan></text>
<rect x="805.0" y="1045.0" width="290.0" height="80.0" rx="12" ry="12" fill="#dae8fc" stroke="#6c8ebf" stroke-width="1.5" /><text x="950.0" y="1088.9" fill="#111111" font-family="Arial, Helvetica, sans-serif" font-size="12" font-weight="700" text-anchor="middle"><tspan x="950.0" dy="0">Nota / Receipt / Refund</tspan></text>
<rect x="770.0" y="1265.0" width="360.0" height="100.0" rx="12" ry="12" fill="#e1d5e7" stroke="#9673a6" stroke-width="1.5" /><text x="950.0" y="1318.9" fill="#111111" font-family="Arial, Helvetica, sans-serif" font-size="12" font-weight="700" text-anchor="middle"><tspan x="950.0" dy="0">Ledger / Reports / Audit membaca semua mutasi dan dependency master</tspan></text>
<ellipse cx="950.0" cy="1485.0" rx="140.0" ry="35.0" fill="#d5e8d4" stroke="#82b366" stroke-width="1.5" /><text x="950.0" y="1488.9" fill="#111111" font-family="Arial, Helvetica, sans-serif" font-size="12" font-weight="700" text-anchor="middle"><tspan x="950.0" dy="0">Semua surface admin dan driver membaca dependency ini</tspan></text>
</svg>